<?xml version="1.0" encoding="utf-8"?>
<!-- Generator: Adobe Illustrator 26.0.2, SVG Export Plug-In . SVG Version: 6.00 Build 0)  -->
<svg version="1.1" id="Calque_1" xmlns="http://www.w3.org/2000/svg" xmlns:xlink="http://www.w3.org/1999/xlink" x="0px" y="0px"
	 viewBox="0 0 329 465" style="enable-background:new 0 0 329 465;" xml:space="preserve">
<style type="text/css">
	.st0{opacity:0.3;}
	.st1{fill:#FAFAFA;stroke:#776262;stroke-miterlimit:10;}
	.st2{fill:#C42C27;}
	.st3{fill:#FFFFFF;}
	.st4{fill:#F1C256;}
</style>
<g>
	<path class="st0" d="M283.06,23.21v420.4c0,8.37-6.86,15.23-15.23,15.23H14.03c-4.93-3.26-8.19-8.87-8.19-15.23V23.21
		c0-6.37,3.26-11.96,8.19-15.22h253.79C276.2,7.99,283.06,14.84,283.06,23.21z"/>
	<path class="st1" d="M24.12,458.84c-8.38,0-15.23-6.86-15.23-15.23V23.21c0-8.38,6.85-15.22,15.23-15.22h286.36
		c8.38,0,15.23,6.84,15.23,15.22v420.4c0,8.37-6.85,15.23-15.23,15.23H24.12z"/>
	<path class="st2" d="M42.4,431.42c-3.35,0-6.1-2.74-6.1-6.09V41.49c0-3.35,2.74-6.1,6.1-6.1h249.8c3.35,0,6.1,2.75,6.1,6.1v383.84
		c0,3.35-2.75,6.09-6.1,6.09H42.4z"/>
	<path class="st3" d="M68.04,431.42l-4.15-4.15l17.24-17.22l17.23,17.22l-4.15,4.15h16.9l-4.14-4.15l17.22-17.22l17.24,17.22
		l-4.15,4.15h16.9l-4.15-4.15l17.24-17.23l17.24,17.23l-4.15,4.15h16.91l-4.15-4.15l17.23-17.22l17.23,17.22l-4.15,4.15h16.9
		l-4.14-4.15l17.24-17.23l17.23,17.23l-4.14,4.15h16.91l-4.15-4.15l17.23-17.23l1.75,1.75v-12.11l-1.75,1.75l-17.23-17.23
		l17.23-17.23l1.75,1.75V356.6l-1.75,1.75l-17.23-17.24l17.23-17.22l1.75,1.75v-12.11l-1.75,1.75l-17.24-17.24l17.24-17.23
		l1.75,1.75v-12.11l-1.75,1.75l-17.23-17.23l17.23-17.23l1.75,1.74v-12.1l-1.75,1.75l-17.23-17.24l17.23-17.23l1.75,1.75v-12.11
		l-1.75,1.74l-17.23-17.23l17.23-17.24l1.75,1.75v-12.11l-1.75,1.75l-17.23-17.24l17.23-17.23l1.75,1.75V98.11l-1.75,1.75
		l-17.23-17.22l17.23-17.24l1.75,1.75V55.04l-1.75,1.74l-17.23-17.22l4.14-4.15h-16.9l4.14,4.15l-17.23,17.22l-17.23-17.22
		l4.14-4.15h-16.9l4.15,4.15l-17.23,17.22l-17.24-17.22l4.15-4.15h-16.9l4.14,4.15l-17.23,17.22l-17.23-17.22l4.14-4.15h-16.9
		l4.15,4.15l-17.24,17.22l-17.22-17.22l4.14-4.15h-16.9l4.15,4.15L81.14,56.77L63.9,39.55l4.15-4.15h-16.9l4.14,4.15L38.05,56.77
		l-1.75-1.74v12.11l1.75-1.75l17.23,17.24L38.05,99.86l-1.75-1.75v12.12l1.75-1.75l17.23,17.23l-17.23,17.24l-1.75-1.75v12.11
		l1.75-1.74l17.23,17.24l-17.23,17.23l-1.75-1.74v12.11l1.75-1.75l17.23,17.23l-17.23,17.24l-1.75-1.75v12.1l1.75-1.74l17.23,17.23
		l-17.23,17.23l-1.75-1.75v12.11l1.75-1.75l17.23,17.23l-17.23,17.24l-1.75-1.75v12.11l1.75-1.75l17.23,17.22l-17.23,17.24
		l-1.75-1.75v12.11l1.75-1.75l17.23,17.24l-17.23,17.23l-1.75-1.75v12.12l1.75-1.75l17.23,17.23l-4.14,4.15H68.04z M63.9,384.2
		l17.23-17.23l17.24,17.24l-17.23,17.23L63.9,384.2z M162.99,276.49l-17.24,17.24l-17.22-17.24l17.22-17.22L162.99,276.49z
		 M128.52,233.42l17.24-17.24l17.23,17.23l-17.24,17.23L128.52,233.42z M150.06,254.95l17.23-17.22l17.23,17.23l-17.23,17.23
		L150.06,254.95z M171.61,233.41l17.22-17.23l17.24,17.24l-17.24,17.23L171.61,233.41z M188.83,259.26l17.24,17.22l-17.24,17.24
		l-17.22-17.24L188.83,259.26z M193.14,254.95l17.23-17.23l17.24,17.23l-17.23,17.23L193.14,254.95z M193.14,211.87l17.24-17.23
		l17.23,17.23l-17.24,17.24L193.14,211.87z M188.83,207.57l-17.22-17.24l17.22-17.23l17.24,17.23L188.83,207.57z M184.52,211.87
		l-17.23,17.23l-17.23-17.23l17.23-17.23L184.52,211.87z M145.76,207.57l-17.24-17.24l17.22-17.23l17.24,17.23L145.76,207.57z
		 M141.45,211.87l-17.24,17.24l-17.23-17.24l17.22-17.23L141.45,211.87z M141.45,254.95l-17.24,17.24l-17.22-17.23l17.23-17.23
		L141.45,254.95z M141.45,298.03l-17.24,17.24l-17.22-17.24l17.22-17.23L141.45,298.03z M145.75,302.34l17.24,17.23l-17.23,17.24
		l-17.24-17.24L145.75,302.34z M150.06,298.03l17.23-17.23l17.24,17.23l-17.24,17.24L150.06,298.03z M188.83,302.34l17.24,17.23
		l-17.24,17.23l-17.22-17.23L188.83,302.34z M193.15,298.03l17.23-17.23l17.23,17.24l-17.23,17.23L193.15,298.03z M231.92,302.34
		l17.23,17.23l-17.23,17.23l-17.23-17.23L231.92,302.34z M214.69,276.49l17.23-17.22l17.23,17.22l-17.23,17.24L214.69,276.49z
		 M214.68,233.42l17.24-17.24l17.24,17.24l-17.24,17.23L214.68,233.42z M214.69,190.33l17.23-17.23l17.23,17.23l-17.23,17.24
		L214.69,190.33z M214.69,147.25l17.23-17.24l17.23,17.24l-17.23,17.23L214.69,147.25z M227.61,168.79l-17.23,17.23l-17.23-17.23
		l17.23-17.24L227.61,168.79z M188.83,164.48l-17.22-17.23l17.22-17.24l17.24,17.24L188.83,164.48z M184.53,168.79l-17.24,17.23
		l-17.23-17.23l17.23-17.24L184.53,168.79z M145.75,164.48l-17.22-17.23l17.22-17.24l17.24,17.24L145.75,164.48z M141.45,168.79
		l-17.24,17.23l-17.22-17.23l17.22-17.24L141.45,168.79z M102.68,164.48l-17.24-17.23l17.24-17.24l17.22,17.24L102.68,164.48z
		 M119.9,190.33l-17.22,17.24l-17.24-17.24l17.24-17.23L119.9,190.33z M119.91,233.42l-17.23,17.23l-17.24-17.24l17.24-17.23
		L119.91,233.42z M119.9,276.49l-17.22,17.24l-17.24-17.24l17.24-17.22L119.9,276.49z M119.9,319.57l-17.22,17.23l-17.24-17.23
		l17.24-17.23L119.9,319.57z M119.91,362.66l-17.23,17.24l-17.24-17.24l17.24-17.24L119.91,362.66z M106.98,341.11l17.22-17.22
		l17.24,17.22l-17.24,17.24L106.98,341.11z M145.76,345.43l17.23,17.23l-17.23,17.23l-17.24-17.23L145.76,345.43z M150.06,341.11
		l17.23-17.22l17.24,17.22l-17.24,17.24L150.06,341.11z M188.83,345.42l17.24,17.23l-17.24,17.24l-17.22-17.23L188.83,345.42z
		 M193.15,341.11l17.23-17.22l17.23,17.22l-17.23,17.24L193.15,341.11z M231.92,345.42l17.23,17.23l-17.23,17.24l-17.23-17.24
		L231.92,345.42z M236.22,341.11l17.23-17.22l17.23,17.22l-17.23,17.24L236.22,341.11z M236.22,298.04l17.23-17.24l17.23,17.23
		l-17.23,17.24L236.22,298.04z M236.22,254.95l17.24-17.23l17.23,17.23l-17.23,17.23L236.22,254.95z M236.22,211.87l17.23-17.23
		l17.23,17.23l-17.23,17.24L236.22,211.87z M236.22,168.79l17.23-17.24l17.23,17.24l-17.23,17.23L236.22,168.79z M236.22,125.71
		l17.23-17.23l17.23,17.23l-17.23,17.24L236.22,125.71z M231.92,121.4l-17.23-17.23l17.23-17.24l17.23,17.24L231.92,121.4z
		 M227.61,125.71l-17.23,17.24l-17.23-17.24l17.23-17.23L227.61,125.71z M188.83,121.4l-17.22-17.23l17.22-17.24l17.24,17.24
		L188.83,121.4z M184.53,125.71l-17.24,17.24l-17.23-17.24l17.23-17.23L184.53,125.71z M145.75,121.4l-17.22-17.23l17.22-17.24
		l17.24,17.24L145.75,121.4z M141.45,125.71l-17.24,17.24l-17.22-17.24l17.22-17.23L141.45,125.71z M102.68,121.4l-17.24-17.23
		l17.24-17.24l17.22,17.24L102.68,121.4z M98.37,125.71l-17.23,17.24L63.9,125.71l17.23-17.23L98.37,125.71z M98.37,168.79
		l-17.23,17.23L63.9,168.79l17.24-17.24L98.37,168.79z M98.37,211.87L81.14,229.1L63.9,211.87l17.24-17.23L98.37,211.87z
		 M98.37,254.95l-17.23,17.23L63.9,254.95l17.24-17.23L98.37,254.95z M98.37,298.03l-17.23,17.24L63.9,298.03l17.24-17.23
		L98.37,298.03z M98.37,341.11l-17.24,17.24L63.9,341.11l17.24-17.22L98.37,341.11z M102.68,422.97l-17.24-17.22l17.24-17.23
		l17.22,17.23L102.68,422.97z M106.98,384.2l17.23-17.24l17.24,17.23l-17.24,17.24L106.98,384.2z M145.75,422.97l-17.22-17.22
		l17.24-17.23l17.23,17.22L145.75,422.97z M150.06,384.2l17.23-17.23l17.23,17.23l-17.23,17.23L150.06,384.2z M188.83,422.97
		l-17.22-17.23l17.22-17.22l17.24,17.22L188.83,422.97z M193.14,384.2l17.24-17.24l17.23,17.24l-17.23,17.23L193.14,384.2z
		 M231.92,422.97l-17.23-17.23l17.23-17.22l17.24,17.22L231.92,422.97z M236.22,384.2l17.23-17.24l17.23,17.24l-17.23,17.23
		L236.22,384.2z M292.23,405.74L275,422.97l-17.22-17.23L275,388.51L292.23,405.74z M292.23,362.66L275,379.89l-17.22-17.24
		L275,345.42L292.23,362.66z M292.23,319.57L275,336.8l-17.23-17.23L275,302.34L292.23,319.57z M292.23,276.49L275,293.73
		l-17.22-17.24L275,259.26L292.23,276.49z M292.23,233.42L275,250.65l-17.22-17.23L275,216.18L292.23,233.42z M292.23,190.33
		L275,207.57l-17.22-17.24L275,173.1L292.23,190.33z M292.23,147.25L275,164.48l-17.22-17.23L275,130.01L292.23,147.25z
		 M292.23,104.17L275,121.4l-17.22-17.23L275,86.93L292.23,104.17z M275,43.85l17.24,17.24L275,78.32l-17.22-17.24L275,43.85z
		 M270.69,82.63l-17.23,17.22l-17.23-17.23l17.23-17.24L270.69,82.63z M231.92,43.85l17.23,17.23l-17.23,17.24l-17.23-17.24
		L231.92,43.85z M227.61,82.63l-17.23,17.23l-17.23-17.23l17.23-17.24L227.61,82.63z M188.83,43.85l17.24,17.23l-17.24,17.24
		l-17.22-17.24L188.83,43.85z M184.53,82.63l-17.24,17.23l-17.23-17.23l17.23-17.24L184.53,82.63z M145.75,43.85l17.24,17.23
		l-17.24,17.24l-17.22-17.24L145.75,43.85z M141.45,82.63l-17.24,17.23l-17.22-17.23l17.22-17.24L141.45,82.63z M102.68,43.85
		l17.22,17.23l-17.22,17.24L85.44,61.08L102.68,43.85z M98.37,82.63L81.13,99.86L63.9,82.63l17.24-17.24L98.37,82.63z M42.36,61.09
		l17.23-17.24l17.24,17.23L59.59,78.32L42.36,61.09z M42.36,104.17l17.23-17.24l17.23,17.24L59.59,121.4L42.36,104.17z
		 M42.36,147.25l17.23-17.24l17.24,17.24l-17.24,17.23L42.36,147.25z M42.36,190.33l17.23-17.23l17.24,17.23l-17.24,17.24
		L42.36,190.33z M42.36,233.42l17.23-17.24l17.24,17.23l-17.24,17.24L42.36,233.42z M42.36,276.49l17.23-17.22l17.24,17.22
		l-17.24,17.24L42.36,276.49z M42.36,319.57l17.23-17.23l17.24,17.23l-17.24,17.24L42.36,319.57z M42.36,362.65l17.23-17.22
		l17.23,17.23l-17.23,17.23L42.36,362.65z M42.36,405.74l17.23-17.22l17.24,17.23l-17.24,17.22L42.36,405.74z"/>
	<path class="st4" d="M60.67,427.27l20.47-20.46l20.46,20.46l-4.15,4.15h2.15l3.07-3.06l3.06,3.06h2.16l-4.15-4.15l20.46-20.46
		l20.47,20.46l-4.15,4.15h2.16l3.06-3.06l3.07,3.06h2.16l-4.15-4.15l20.47-20.46l20.46,20.46l-4.15,4.15h2.16l3.07-3.06l3.07,3.06
		h2.16l-4.15-4.15l20.46-20.46l20.46,20.46l-4.15,4.15h2.15l3.07-3.06l3.06,3.06h2.15l-4.13-4.15l20.46-20.46l20.46,20.46
		l-4.14,4.15h2.15l3.07-3.07l3.07,3.07h2.16l-4.15-4.15l20.46-20.46l1.75,1.75v-2.16l-0.67-0.67l0.67-0.67v-2.15l-1.75,1.74
		l-20.46-20.46l20.46-20.46l1.75,1.74v-2.16l-0.67-0.66l0.67-0.68v-2.14l-1.75,1.75l-20.46-20.48l20.46-20.46l1.75,1.74v-2.15
		l-0.68-0.68l0.68-0.67v-2.16l-1.75,1.75l-20.47-20.46l20.47-20.46l1.75,1.74v-2.15l-0.68-0.68l0.68-0.67v-2.16l-1.75,1.75
		l-20.46-20.46l20.46-20.46l1.75,1.74v-2.15l-0.67-0.67l0.67-0.67v-2.16l-1.75,1.75l-20.46-20.47l20.46-20.46l1.75,1.75V191
		l-0.67-0.67l0.67-0.67v-2.16l-1.75,1.75l-20.46-20.46l20.46-20.47l1.75,1.75v-2.16l-0.68-0.66l0.68-0.67v-2.16l-1.75,1.75
		l-20.46-20.47l20.46-20.46l1.75,1.75v-2.16l-0.68-0.67l0.68-0.67v-2.16l-1.75,1.75l-20.46-20.46l20.46-20.47l1.75,1.75v-2.16
		l-0.67-0.66l0.67-0.68v-2.15l-1.75,1.75l-20.46-20.46l4.14-4.15h-2.15L275,38.47l-3.06-3.07h-2.16l4.14,4.15l-20.46,20.46
		L233,39.55l4.13-4.15h-2.15l-3.06,3.07l-3.07-3.07h-2.15l4.15,4.15l-20.46,20.46l-20.46-20.46l4.14-4.15h-2.15l-3.07,3.07
		l-3.07-3.07h-2.16l4.15,4.15l-20.46,20.46l-20.46-20.46l4.15-4.15h-2.16l-3.07,3.07l-3.06-3.07h-2.16l4.15,4.15l-20.47,20.46
		l-20.46-20.46l4.15-4.15h-2.16l-3.06,3.07L99.6,35.4h-2.15l4.15,4.15L81.14,60.01L60.67,39.55l4.15-4.15h-2.16l-3.06,3.07
		l-3.06-3.07h-2.16l4.15,4.15L38.05,60.01l-1.75-1.75v2.15l0.68,0.68l-0.68,0.66v2.16l1.75-1.75l20.46,20.47l-20.46,20.46
		l-1.75-1.75v2.16l0.68,0.67l-0.68,0.67v2.16l1.75-1.75l20.46,20.46l-20.46,20.47l-1.75-1.75v2.16l0.68,0.67l-0.68,0.66v2.15
		l1.75-1.75l20.46,20.47l-20.46,20.46l-1.75-1.75v2.16l0.68,0.67L36.3,191v2.15l1.75-1.75l20.46,20.46l-20.46,20.47l-1.75-1.75v2.16
		l0.68,0.67l-0.68,0.67v2.15l1.75-1.74l20.46,20.46l-20.46,20.46l-1.75-1.75v2.16l0.68,0.67l-0.68,0.68v2.15l1.75-1.74l20.46,20.46
		L38.05,318.5l-1.75-1.75v2.16l0.68,0.67l-0.68,0.68v2.15l1.75-1.74l20.46,20.46l-20.46,20.46l-1.75-1.74v2.14l0.68,0.67l-0.68,0.67
		v2.16l1.75-1.74l20.46,20.46l-20.46,20.46l-1.75-1.74v2.16l0.68,0.67l-0.68,0.67v2.16l1.75-1.75l20.46,20.46l-4.14,4.15h2.16
		l3.06-3.06l3.07,3.06h2.16L60.67,427.27z M60.67,384.2l20.46-20.46l20.47,20.47l-20.46,20.46L60.67,384.2z M166.22,276.49
		l-20.47,20.47l-20.46-20.47l20.46-20.46L166.22,276.49z M125.29,233.42l20.47-20.47l20.46,20.46l-20.47,20.46L125.29,233.42z
		 M146.83,254.95l20.46-20.46l20.46,20.46l-20.46,20.46L146.83,254.95z M168.37,233.41l20.46-20.46l20.46,20.47l-20.46,20.46
		L168.37,233.41z M188.83,256.03l20.46,20.46l-20.46,20.47l-20.46-20.47L188.83,256.03z M189.91,254.95l20.46-20.46l20.47,20.46
		l-20.46,20.46L189.91,254.95z M189.91,211.87l20.46-20.46l20.46,20.46l-20.47,20.47L189.91,211.87z M188.83,210.79l-20.46-20.46
		l20.46-20.46l20.46,20.46L188.83,210.79z M187.76,211.87l-20.46,20.46l-20.46-20.46l20.46-20.46L187.76,211.87z M145.76,210.79
		l-20.47-20.46l20.46-20.46l20.47,20.46L145.76,210.79z M144.68,211.87l-20.47,20.47l-20.46-20.47l20.46-20.46L144.68,211.87z
		 M144.68,254.95l-20.47,20.46l-20.46-20.46l20.46-20.46L144.68,254.95z M144.68,298.03l-20.47,20.46l-20.46-20.46l20.46-20.46
		L144.68,298.03z M145.75,299.12l20.47,20.46l-20.46,20.46l-20.47-20.46L145.75,299.12z M146.83,298.03l20.46-20.46l20.46,20.46
		l-20.46,20.46L146.83,298.03z M188.83,299.12l20.46,20.46l-20.46,20.46l-20.46-20.46L188.83,299.12z M189.91,298.03l20.46-20.46
		l20.46,20.47l-20.46,20.46L189.91,298.03z M231.92,299.12l20.46,20.46l-20.46,20.46l-20.46-20.46L231.92,299.12z M211.45,276.49
		l20.46-20.46l20.46,20.46l-20.46,20.48L211.45,276.49z M211.45,233.42l20.46-20.47l20.47,20.47l-20.47,20.46L211.45,233.42z
		 M211.45,190.33l20.46-20.46l20.46,20.46l-20.46,20.46L211.45,190.33z M211.45,147.25l20.46-20.47l20.46,20.47l-20.46,20.46
		L211.45,147.25z M230.84,168.79l-20.46,20.46l-20.46-20.46l20.46-20.47L230.84,168.79z M188.83,167.72l-20.46-20.46l20.46-20.47
		l20.46,20.47L188.83,167.72z M187.76,168.79l-20.46,20.46l-20.46-20.46l20.46-20.47L187.76,168.79z M145.75,167.72l-20.46-20.46
		l20.46-20.47l20.47,20.47L145.75,167.72z M144.68,168.79l-20.47,20.46l-20.46-20.46l20.46-20.47L144.68,168.79z M102.68,167.72
		l-20.46-20.46l20.46-20.47l20.46,20.47L102.68,167.72z M123.13,190.33l-20.46,20.46l-20.46-20.46l20.46-20.46L123.13,190.33z
		 M123.14,233.42l-20.46,20.46l-20.46-20.47l20.46-20.46L123.14,233.42z M123.13,276.49l-20.46,20.47l-20.46-20.47l20.46-20.46
		L123.13,276.49z M123.13,319.57l-20.46,20.46l-20.46-20.46l20.46-20.46L123.13,319.57z M123.14,362.66l-20.46,20.47l-20.46-20.47
		l20.46-20.46L123.14,362.66z M103.75,341.11l20.46-20.46l20.48,20.46l-20.47,20.48L103.75,341.11z M145.76,342.19l20.46,20.46
		l-20.46,20.46l-20.47-20.46L145.76,342.19z M146.83,341.11l20.46-20.46l20.46,20.46l-20.46,20.48L146.83,341.11z M188.83,342.19
		l20.46,20.46l-20.46,20.47l-20.46-20.46L188.83,342.19z M189.91,341.11l20.46-20.46l20.46,20.46l-20.46,20.46L189.91,341.11z
		 M231.92,342.19l20.46,20.46l-20.46,20.47l-20.46-20.47L231.92,342.19z M233,341.11l20.46-20.46l20.46,20.46l-20.46,20.46
		L233,341.11z M233,298.04l20.46-20.47l20.46,20.46l-20.46,20.46L233,298.04z M233,254.95l20.46-20.46l20.46,20.46l-20.46,20.46
		L233,254.95z M233,211.87l20.46-20.46l20.46,20.46l-20.46,20.47L233,211.87z M233,168.79l20.46-20.47l20.46,20.47l-20.46,20.46
		L233,168.79z M233,125.71l20.46-20.46l20.46,20.46l-20.46,20.47L233,125.71z M231.92,124.63l-20.46-20.46l20.46-20.46l20.46,20.46
		L231.92,124.63z M230.84,125.71l-20.46,20.47l-20.46-20.47l20.46-20.46L230.84,125.71z M188.83,124.63l-20.46-20.46l20.46-20.46
		l20.46,20.46L188.83,124.63z M187.76,125.71l-20.46,20.47l-20.46-20.47l20.46-20.46L187.76,125.71z M145.75,124.63l-20.46-20.46
		l20.46-20.46l20.47,20.46L145.75,124.63z M144.68,125.71l-20.47,20.47l-20.46-20.47l20.46-20.46L144.68,125.71z M102.68,124.63
		l-20.46-20.46l20.46-20.46l20.46,20.46L102.68,124.63z M101.6,125.71l-20.46,20.47l-20.47-20.47l20.46-20.46L101.6,125.71z
		 M101.6,168.79l-20.46,20.46l-20.47-20.46l20.47-20.47L101.6,168.79z M101.6,211.87l-20.46,20.46l-20.47-20.46l20.47-20.46
		L101.6,211.87z M101.6,254.95l-20.46,20.46l-20.47-20.46l20.47-20.46L101.6,254.95z M101.6,298.03L81.14,318.5l-20.47-20.46
		l20.47-20.46L101.6,298.03z M101.6,341.11l-20.47,20.48l-20.46-20.48l20.47-20.46L101.6,341.11z M102.68,426.2l-20.46-20.46
		l20.46-20.46l20.46,20.46L102.68,426.2z M103.75,384.2l20.46-20.47l20.47,20.46l-20.48,20.47L103.75,384.2z M145.75,426.2
		l-20.46-20.46l20.47-20.46l20.46,20.46L145.75,426.2z M146.83,384.2l20.46-20.46l20.46,20.46l-20.46,20.46L146.83,384.2z
		 M188.83,426.2l-20.46-20.46l20.46-20.46l20.46,20.46L188.83,426.2z M189.91,384.2l20.46-20.46l20.46,20.46l-20.46,20.46
		L189.91,384.2z M231.92,426.2l-20.46-20.46l20.46-20.46l20.47,20.46L231.92,426.2z M233,384.2l20.46-20.46l20.46,20.46
		l-20.46,20.46L233,384.2z M295.47,405.74L275,426.19l-20.46-20.46L275,385.28L295.47,405.74z M295.47,362.66L275,383.12
		l-20.46-20.47L275,342.19L295.47,362.66z M295.47,319.57L275,340.04l-20.46-20.46L275,299.12L295.47,319.57z M295.47,276.49
		L275,296.96l-20.46-20.47L275,256.03L295.47,276.49z M295.47,233.42L275,253.88l-20.46-20.46L275,212.95L295.47,233.42z
		 M295.47,190.33L275,210.79l-20.46-20.46L275,169.87L295.47,190.33z M295.47,147.25L275,167.72l-20.46-20.46L275,126.78
		L295.47,147.25z M295.47,104.17L275,124.63l-20.46-20.46L275,83.71L295.47,104.17z M275,40.63l20.47,20.46L275,81.55l-20.46-20.47
		L275,40.63z M273.92,82.63l-20.46,20.46L233,82.63l20.46-20.47L273.92,82.63z M231.92,40.63l20.46,20.46l-20.46,20.47l-20.46-20.47
		L231.92,40.63z M230.84,82.63l-20.46,20.46l-20.46-20.46l20.46-20.47L230.84,82.63z M188.83,40.63l20.46,20.46l-20.46,20.47
		l-20.46-20.47L188.83,40.63z M187.76,82.63l-20.46,20.46l-20.46-20.46l20.46-20.47L187.76,82.63z M145.75,40.63l20.47,20.46
		l-20.47,20.47l-20.46-20.47L145.75,40.63z M144.68,82.63l-20.47,20.46l-20.46-20.46l20.46-20.47L144.68,82.63z M102.68,40.63
		l20.46,20.46l-20.46,20.47L82.21,61.08L102.68,40.63z M101.6,82.63l-20.47,20.46L60.67,82.63l20.47-20.48L101.6,82.63z
		 M39.13,61.09l20.46-20.46l20.47,20.46L59.59,81.55L39.13,61.09z M39.13,104.17l20.46-20.46l20.46,20.46l-20.46,20.46L39.13,104.17
		z M39.13,147.25l20.46-20.47l20.47,20.47l-20.47,20.46L39.13,147.25z M39.13,190.33l20.46-20.46l20.47,20.46l-20.47,20.46
		L39.13,190.33z M39.13,233.42l20.46-20.47l20.47,20.46l-20.47,20.47L39.13,233.42z M39.13,276.49l20.46-20.46l20.47,20.46
		l-20.47,20.47L39.13,276.49z M39.13,319.57l20.46-20.46l20.47,20.46l-20.47,20.46L39.13,319.57z M39.13,362.65l20.46-20.46
		l20.46,20.46l-20.46,20.46L39.13,362.65z M39.13,405.74l20.46-20.46l20.47,20.46L59.59,426.2L39.13,405.74z"/>
</g>
</svg>
