<?xml version="1.0" encoding="utf-8"?>
<!-- Generator: Adobe Illustrator 26.0.2, SVG Export Plug-In . SVG Version: 6.00 Build 0)  -->
<svg version="1.1" id="Calque_1" xmlns="http://www.w3.org/2000/svg" xmlns:xlink="http://www.w3.org/1999/xlink" x="0px" y="0px"
	 viewBox="0 0 329 465" style="enable-background:new 0 0 329 465;" xml:space="preserve">
<style type="text/css">
	.st0{opacity:0.3;}
	.st1{fill:#FAFAFA;stroke:#776262;stroke-miterlimit:10;}
</style>
<g>
	<path class="st0" d="M283.06,23.21v420.4c0,8.37-6.86,15.23-15.23,15.23H14.03c-4.93-3.26-8.19-8.87-8.19-15.23V23.21
		c0-6.37,3.26-11.96,8.19-15.22h253.79C276.2,7.99,283.06,14.84,283.06,23.21z"/>
	<path class="st1" d="M24.12,458.84c-8.38,0-15.23-6.86-15.23-15.23V23.21c0-8.38,6.85-15.22,15.23-15.22h286.36
		c8.38,0,15.23,6.84,15.23,15.22v420.4c0,8.37-6.85,15.23-15.23,15.23H24.12z"/>
</g>
</svg>
