<?xml version="1.0" standalone="no"?>
<!DOCTYPE svg PUBLIC "-//W3C//DTD SVG 20010904//EN"
 "http://www.w3.org/TR/2001/REC-SVG-20010904/DTD/svg10.dtd">
<svg version="1.0" xmlns="http://www.w3.org/2000/svg"
 width="1280.000000pt" height="640.000000pt" viewBox="0 0 1280.000000 640.000000"
 preserveAspectRatio="xMidYMid meet">
<metadata>
Created by potrace 1.15, written by Peter Selinger 2001-2017
</metadata>
<g transform="translate(0.000000,640.000000) scale(0.100000,-0.100000)"
fill="#000000" stroke="none">
<path d="M3793 6235 c-95 -41 -67 -180 37 -180 105 0 132 140 35 181 -40 16
-32 17 -72 -1z"/>
<path d="M5345 6241 c-11 -5 -28 -18 -38 -28 -17 -20 -18 -20 -56 -1 -36 17
-42 18 -74 4 -19 -8 -39 -22 -45 -32 -9 -16 -12 -16 -42 9 -40 34 -80 35 -119
2 l-30 -26 -21 21 c-25 25 -101 28 -120 5 -11 -13 -15 -12 -37 5 -47 37 -131
15 -148 -39 -3 -11 -18 -22 -33 -26 -15 -4 -34 -13 -44 -22 -14 -13 -17 -12
-23 6 -10 32 -54 61 -92 61 -25 0 -43 -8 -65 -30 -28 -28 -32 -30 -48 -15 -24
21 -82 19 -113 -5 -34 -27 -44 -78 -23 -117 29 -58 115 -67 155 -18 18 24 18
24 54 6 35 -18 36 -19 17 -36 -44 -40 -32 -123 21 -150 35 -19 57 -19 93 0 36
19 36 19 36 -9 0 -28 51 -76 80 -76 13 0 17 -5 14 -14 -4 -11 -17 -13 -54 -9
-45 5 -51 3 -79 -25 -42 -42 -43 -92 -2 -133 43 -42 93 -41 136 5 34 37 59 38
26 2 -34 -38 -34 -68 0 -109 26 -31 37 -37 70 -37 22 0 49 5 61 11 21 12 52
74 43 89 -3 5 9 6 28 3 44 -7 91 17 106 54 10 25 16 28 46 25 29 -4 41 2 71
32 20 20 47 39 59 42 13 3 31 14 40 25 16 17 20 17 47 3 36 -19 88 -12 111 14
21 23 114 22 148 -1 13 -9 36 -17 50 -17 56 0 116 82 91 125 -6 11 -3 29 10
55 21 42 17 76 -13 108 -16 18 -17 25 -6 50 11 27 14 29 32 16 10 -8 35 -14
55 -14 88 0 125 102 59 163 -48 44 -115 31 -144 -29 -15 -33 -16 -33 -40 -18
-24 16 -70 16 -105 0 -12 -5 -16 0 -18 20 -2 33 -16 51 -53 70 -31 16 -45 17
-74 5z m-12 -189 c-12 -2 -34 -17 -48 -34 -25 -29 -26 -30 -40 -12 -18 24 -19
34 -2 34 8 0 24 11 36 24 23 24 24 24 49 8 26 -17 26 -17 5 -20z m-194 15 c12
-16 5 -27 -18 -27 -9 0 -22 -14 -30 -31 l-13 -30 -25 23 c-21 20 -22 23 -8 26
10 2 21 -2 26 -10 5 -7 9 -10 10 -5 1 4 2 10 3 15 3 13 31 52 37 52 4 0 12 -6
18 -13z m296 -14 c-16 -13 -16 -14 -3 -10 13 5 22 -2 33 -22 8 -16 20 -31 27
-34 7 -2 10 -7 6 -11 -9 -11 -46 11 -78 47 l-28 32 26 11 c34 14 43 7 17 -13z
m-484 -34 c-20 -9 -41 -27 -47 -40 l-11 -24 -17 32 c-16 32 -16 33 8 39 14 3
32 14 41 24 16 18 19 18 40 2 l22 -17 -36 -16z m-161 31 c0 -5 -7 -10 -16 -10
-8 0 -12 5 -9 10 3 6 10 10 16 10 5 0 9 -4 9 -10z m-81 -47 c-6 -16 -11 -42
-11 -59 0 -31 -1 -32 -37 -27 -24 3 -49 -1 -69 -11 -31 -16 -32 -16 -32 7 0
13 -5 28 -11 34 -8 8 2 9 35 6 37 -5 53 -1 81 18 19 13 35 32 35 42 0 9 4 17
10 17 6 0 6 -10 -1 -27z m-193 0 c17 -22 18 -41 2 -25 -7 7 -21 12 -31 12 -16
0 -17 3 -7 15 16 19 20 19 36 -2z m954 -37 c0 -3 -4 -8 -10 -11 -5 -3 -10 -1
-10 4 0 6 5 11 10 11 6 0 10 -2 10 -4z m3 -44 c-3 -12 -9 -19 -14 -16 -5 3 -4
14 2 25 13 26 20 21 12 -9z m-573 -24 c0 -6 7 -20 17 -30 9 -10 11 -18 5 -18
-6 0 -14 5 -17 10 -3 6 -15 10 -25 10 -17 0 -18 3 -8 25 11 24 28 25 28 3z
m372 -26 c-15 -2 -37 -13 -50 -25 -17 -16 -25 -18 -34 -9 -8 8 -5 14 15 21 14
6 34 22 43 36 l18 27 17 -24 c18 -23 18 -23 -9 -26z m-152 -12 c0 -5 -12 -11
-26 -14 -14 -4 -33 -20 -42 -36 -9 -17 -25 -30 -35 -30 -10 0 -27 -5 -38 -10
-17 -10 -18 -8 -15 22 2 18 4 35 5 38 0 3 10 6 20 7 15 1 18 -3 14 -15 -4 -9
13 5 37 31 40 46 43 47 61 31 11 -9 19 -20 19 -24z m-336 -30 c-4 -8 -9 -27
-12 -42 -3 -22 -10 -28 -29 -28 -20 0 -24 3 -17 18 4 9 8 33 8 53 0 35 1 35
28 25 20 -7 26 -15 22 -26z"/>
<path d="M3535 6185 c-54 -53 -20 -149 56 -161 31 -5 42 -1 70 24 28 25 34 37
34 72 0 34 -6 47 -28 66 -39 33 -99 33 -132 -1z"/>
<path d="M9764 6190 c-57 -23 -73 -109 -28 -154 52 -52 146 -23 160 48 14 78
-59 136 -132 106z"/>
<path d="M3071 6143 c-66 -55 -24 -173 62 -173 20 0 40 11 64 35 32 32 35 40
30 73 -8 49 -46 82 -96 82 -22 0 -48 -8 -60 -17z"/>
<path d="M3358 6145 c-35 -19 -48 -44 -48 -90 0 -53 36 -85 94 -85 37 0 48 5
70 31 34 40 34 80 -1 119 -34 36 -78 46 -115 25z"/>
<path d="M4015 6148 c-59 -32 -72 -97 -29 -147 21 -26 33 -31 69 -31 36 0 48
5 69 31 43 51 32 115 -24 144 -34 18 -57 19 -85 3z"/>
<path d="M6926 6119 c-66 -78 11 -187 105 -149 63 26 78 95 33 149 -21 26 -33
31 -69 31 -36 0 -48 -5 -69 -31z"/>
<path d="M10035 5985 c-18 -17 -25 -35 -25 -63 0 -76 67 -120 131 -88 31 15
49 14 49 -4 0 -5 -9 -12 -21 -15 -11 -4 -27 -22 -36 -40 l-16 -34 -19 24 c-38
48 -124 41 -155 -13 l-16 -28 -28 28 c-37 38 -99 39 -134 3 -35 -34 -34 -93 1
-134 25 -30 25 -31 4 -31 -12 0 -35 -13 -51 -29 -33 -33 -39 -84 -14 -117 20
-26 19 -34 -5 -34 -12 0 -32 -11 -45 -25 -49 -48 -28 -135 38 -158 9 -4 17
-11 17 -17 0 -7 -9 -5 -22 4 -12 9 -38 16 -58 16 l-35 0 3 48 c3 35 -1 52 -12
61 -23 19 -20 31 7 31 33 0 64 25 77 64 11 34 2 77 -19 91 -17 10 -13 25 8 25
10 0 30 12 45 26 52 52 23 146 -48 160 -90 16 -150 -91 -89 -158 15 -16 15
-18 0 -18 -24 0 -74 -47 -81 -76 l-7 -26 -22 28 c-17 22 -18 29 -7 32 60 20
81 112 35 157 -13 14 -31 25 -40 25 -12 0 -15 6 -9 23 9 31 12 32 31 14 45
-40 122 -24 145 31 7 15 13 29 14 31 2 1 13 -6 25 -18 32 -30 88 -28 123 4 14
13 26 31 26 40 0 21 17 19 25 -3 10 -33 84 -53 130 -36 21 9 45 56 45 92 0 97
-134 122 -179 34 -17 -34 -19 -34 -25 -14 -9 26 -54 52 -90 52 -28 0 -86 -44
-86 -66 0 -18 -2 -18 -45 7 -25 15 -43 19 -63 14 -31 -8 -72 -42 -72 -62 0
-17 -10 -16 -34 2 -32 24 -93 19 -121 -10 -14 -13 -25 -31 -25 -40 0 -19 -14
-19 -29 -1 -7 8 -26 18 -42 21 -16 4 -29 13 -29 20 0 7 -15 -2 -34 -21 -19
-19 -43 -34 -55 -34 -12 0 -21 -4 -21 -10 0 -5 6 -10 13 -10 7 0 12 -15 12
-40 1 -30 8 -47 27 -66 46 -46 139 -27 154 31 3 14 8 25 10 25 2 0 18 -10 37
-23 26 -18 32 -27 26 -42 -14 -36 -9 -63 16 -93 l25 -30 -30 -15 c-27 -14 -30
-14 -30 0 0 8 -13 28 -29 44 -39 38 -87 39 -130 3 -29 -24 -31 -25 -31 -6 0
26 -55 72 -86 72 -62 0 -114 -60 -100 -116 18 -71 106 -99 160 -49 16 14 26
19 26 11 0 -7 9 -25 20 -39 26 -33 79 -44 118 -25 28 14 29 14 40 -14 10 -26
9 -28 -8 -23 -27 9 -85 -21 -99 -51 -18 -41 -13 -83 14 -109 13 -14 32 -25 42
-25 14 -1 13 -4 -7 -15 -36 -21 -49 -18 -60 10 -5 14 -13 24 -17 23 -5 -1 -22
2 -40 6 -36 8 -86 -12 -103 -43 -15 -28 -12 -83 5 -108 24 -34 78 -48 115 -30
28 14 31 14 40 -4 10 -17 7 -19 -24 -19 -22 0 -45 -9 -63 -24 -23 -20 -28 -32
-27 -68 1 -38 -3 -47 -27 -60 -26 -15 -28 -15 -49 7 l-22 23 21 7 c28 9 61 53
61 82 0 63 -59 111 -119 98 -68 -15 -95 -106 -46 -159 l24 -26 -28 -15 c-28
-14 -29 -13 -35 10 -3 13 -18 34 -33 46 l-28 23 28 27 c38 38 37 90 -2 130
-84 83 -213 -32 -140 -125 11 -14 27 -26 36 -26 11 0 6 -10 -16 -35 -17 -20
-31 -47 -31 -60 0 -24 0 -24 -29 -7 l-29 16 25 30 c33 40 27 90 -18 128 -30
25 -30 26 -10 33 27 8 54 60 49 94 l-4 27 35 -18 c65 -33 136 9 136 81 0 72
-65 114 -132 86 -38 -16 -53 -41 -53 -90 0 -35 0 -36 -22 -21 -12 9 -39 16
-59 16 -79 0 -118 -102 -61 -159 l27 -28 -27 -25 c-22 -20 -28 -35 -28 -65 0
-43 30 -93 56 -93 19 0 18 -7 -6 -32 -12 -14 -20 -36 -20 -58 l0 -37 -33 10
-33 11 19 37 c16 33 17 44 7 74 -7 21 -22 41 -35 47 l-24 11 35 32 c46 43 47
93 5 136 -16 16 -38 29 -48 29 -11 1 -6 6 15 15 38 17 66 71 56 110 -3 14 -19
36 -35 50 -29 24 -29 24 -8 36 22 11 38 0 39 -28 0 -23 52 -53 92 -53 49 0 88
35 88 79 0 28 1 29 38 24 31 -4 44 0 70 22 18 15 32 35 32 46 0 11 7 19 16 19
12 0 14 -5 9 -17 -16 -38 -16 -62 -1 -91 47 -91 176 -59 176 44 0 37 -5 47
-35 72 l-36 29 15 44 c20 58 20 71 -4 102 -25 32 -25 37 1 37 31 0 57 18 75
51 20 40 11 82 -28 114 -39 33 -80 32 -119 -3 -36 -32 -42 -85 -15 -127 16
-24 15 -25 -3 -25 -11 0 -33 -12 -50 -26 l-31 -26 0 30 c0 21 -9 38 -31 56
-53 45 -123 30 -148 -32 l-12 -29 -35 18 c-81 41 -170 -41 -131 -121 l15 -30
-33 0 c-25 0 -40 -8 -62 -34 -28 -31 -32 -32 -54 -20 -40 22 -78 17 -110 -15
-16 -16 -29 -37 -29 -45 0 -21 -7 -20 -37 4 -47 37 -122 16 -141 -40 l-11 -30
-25 25 c-14 14 -37 25 -52 25 -22 0 -25 3 -20 23 3 12 6 26 6 31 0 5 8 2 18
-6 42 -37 121 -23 144 26 13 30 16 31 42 11 40 -30 120 -6 132 40 7 30 5 30
48 4 25 -15 44 -19 65 -14 39 8 81 58 81 95 0 36 -41 86 -77 93 -41 8 -92 -17
-106 -52 -12 -29 -12 -29 -36 -10 -34 28 -92 25 -125 -6 -14 -13 -26 -31 -26
-38 0 -12 -7 -11 -37 4 -58 30 -122 3 -137 -57 -6 -23 -8 -24 -29 -9 -60 42
-147 -6 -147 -82 0 -22 6 -45 13 -52 10 -11 8 -11 -10 -2 -36 18 -79 13 -112
-15 -25 -21 -31 -33 -31 -66 0 -48 43 -98 85 -98 75 0 128 79 94 141 -9 19 -9
19 10 10 11 -6 29 -11 40 -11 16 0 18 -4 12 -27 -11 -45 -3 -67 41 -109 22
-21 38 -33 34 -26 -5 8 0 12 12 12 17 0 19 -6 15 -47 -6 -57 20 -98 67 -108
33 -7 34 -9 20 -35 -9 -17 -12 -17 -39 11 -67 66 -174 7 -157 -87 10 -49 50
-77 103 -71 38 4 41 3 33 -14 -28 -51 5 -122 61 -134 21 -5 29 -11 25 -22 -3
-8 -6 -19 -6 -25 0 -5 -14 2 -31 16 -40 34 -88 34 -126 2 -24 -21 -28 -32 -28
-75 0 -48 -1 -51 -26 -51 -50 0 -95 -82 -70 -129 9 -17 9 -21 -2 -21 -22 0
-67 -40 -78 -68 -12 -32 5 -87 34 -107 28 -20 87 -19 116 1 37 27 49 2 17 -36
-34 -42 -34 -81 2 -122 21 -23 38 -32 63 -32 33 -1 34 -2 30 -38 -2 -31 2 -43
27 -68 17 -16 40 -30 52 -30 l21 0 -20 -26 c-31 -39 -28 -89 8 -125 41 -40 91
-40 132 0 16 16 29 37 29 46 0 13 6 16 25 11 31 -8 90 16 104 42 19 36 13 87
-14 116 -13 14 -29 26 -34 26 -6 0 1 16 14 36 14 20 25 45 25 56 0 49 -50 98
-99 98 -13 0 -17 6 -14 28 5 40 -30 91 -68 99 l-32 6 27 14 c14 7 34 30 44 49
l19 36 13 -31 c16 -41 62 -65 105 -57 30 6 33 4 33 -20 0 -79 78 -118 150 -74
27 17 32 17 32 4 0 -9 13 -29 29 -45 32 -32 70 -37 111 -16 21 11 29 10 55 -5
40 -24 76 -23 109 3 l26 20 0 -31 c0 -65 82 -111 142 -79 13 7 18 7 14 1 -4
-6 2 -16 11 -22 13 -8 14 -13 6 -16 -7 -3 -13 -10 -13 -16 0 -7 4 -7 13 0 8 7
19 6 37 -3 14 -8 37 -14 52 -15 l26 0 -29 -29 c-47 -47 -31 -125 30 -151 29
-11 30 -14 16 -33 -25 -36 -19 -82 16 -116 27 -27 30 -35 22 -59 -22 -62 20
-122 85 -122 44 0 68 14 87 50 23 44 18 69 -21 108 -24 24 -32 38 -25 45 6 6
11 18 11 27 0 9 13 26 29 38 16 11 32 33 35 49 4 15 16 35 26 43 11 8 26 31
34 51 18 43 6 73 -41 105 -25 17 -30 24 -20 32 13 11 59 -21 70 -49 4 -9 6
-10 6 -1 1 6 10 12 21 12 33 0 78 28 86 52 6 21 7 21 20 -5 18 -33 43 -47 84
-47 42 0 67 15 85 50 14 27 18 29 37 19 18 -10 19 -13 6 -20 -12 -6 -13 -18
-8 -54 7 -47 30 -80 61 -90 12 -4 19 -16 19 -31 0 -32 41 -73 80 -80 21 -5 30
-12 30 -26 0 -11 13 -33 29 -49 40 -39 91 -40 130 -1 l28 27 -5 -42 c-4 -37
-1 -46 26 -73 87 -86 218 34 138 127 -20 23 -22 32 -14 55 19 55 -26 118 -85
118 -23 0 -28 4 -23 16 16 42 16 64 2 93 -19 35 -44 51 -80 51 -27 0 -30 7
-20 34 5 14 9 13 31 -4 14 -11 40 -20 57 -20 27 0 31 -4 33 -27 3 -64 8 -83
21 -78 15 6 16 -7 0 -23 -7 -7 -8 -12 -2 -12 6 0 14 3 18 8 4 4 27 7 51 7 35
0 51 7 74 29 31 30 38 29 79 -7 l22 -20 0 20 c0 14 8 23 25 27 14 4 33 19 43
34 14 22 23 26 53 24 27 -2 44 3 67 22 16 15 35 26 40 26 6 0 14 4 17 10 3 6
-1 7 -9 4 -19 -7 -21 7 -4 24 9 9 9 12 0 12 -7 0 -12 7 -12 15 0 14 27 20 78
18 7 -1 11 1 8 4 -3 3 4 14 14 25 10 11 21 31 24 44 8 31 -19 91 -45 99 -10 4
-27 26 -38 51 -12 26 -30 49 -45 56 -21 9 -24 14 -14 26 7 8 21 18 33 22 19 8
19 9 -2 9 -16 1 -23 7 -23 22 0 49 -38 88 -87 89 -37 0 -37 0 -22 33 l11 24
28 -29 c40 -39 91 -39 131 1 l29 30 25 -25 c33 -33 93 -33 131 0 26 22 30 22
62 9 41 -17 93 -4 117 30 20 28 19 87 -1 116 -16 22 -15 23 2 19 11 -2 20 -13
22 -25 6 -39 50 -73 97 -73 46 0 70 19 100 80 20 41 62 79 88 80 21 0 23 20 2
20 -29 0 -15 17 25 29 21 6 46 21 55 34 17 25 20 79 4 109 -14 26 -67 48 -102
41 -29 -6 -77 -55 -77 -79 0 -8 -4 -14 -9 -14 -5 0 -6 20 -4 45 5 39 2 47 -25
75 -20 20 -40 30 -60 30 -25 0 -29 3 -25 20 5 18 7 18 34 5 42 -22 82 -19 113
10 14 13 26 29 26 34 0 7 9 7 26 0 34 -12 88 4 109 34 8 12 15 38 15 59 0 44
24 53 34 13 7 -28 59 -65 91 -65 29 0 82 35 90 59 6 20 8 20 28 6 12 -8 30
-15 40 -15 10 0 33 -16 51 -35 27 -28 41 -35 70 -35 49 0 96 44 96 89 0 23 11
42 39 70 l39 39 11 -25 c13 -29 66 -53 103 -46 42 8 73 48 73 94 0 46 5 49 27
11 14 -24 15 -35 6 -65 -22 -71 35 -136 108 -123 38 8 74 47 74 82 0 28 6 30
26 9 21 -21 62 -29 92 -19 33 12 65 55 65 88 0 30 4 31 31 11 48 -36 126 -4
142 59 14 59 -43 121 -106 114 -21 -2 -34 5 -55 30 -37 44 -95 45 -143 1 -18
-16 -30 -34 -27 -38 3 -5 -1 -12 -7 -14 -9 -4 -10 -8 -2 -14 25 -19 22 -38 -7
-40 -21 -2 -30 3 -35 20 -5 12 -7 25 -6 29 1 4 -6 7 -16 7 -91 4 -105 7 -118
33 -7 14 -27 31 -43 38 -65 27 -131 -19 -131 -91 0 -28 -5 -41 -20 -49 -11 -6
-25 -22 -33 -35 -12 -24 -13 -24 -25 -5 -10 17 -8 21 16 34 55 28 67 96 26
145 -21 26 -33 31 -69 31 -36 0 -48 -5 -69 -31 -28 -33 -35 -86 -14 -107 8 -8
5 -14 -14 -21 -30 -11 -58 -47 -58 -75 0 -19 0 -19 -21 0 -14 13 -36 19 -65
19 -42 0 -44 2 -44 28 l0 28 26 -20 c40 -31 89 -28 126 9 27 28 30 36 25 73
-11 82 -93 114 -157 60 -19 -16 -31 -21 -30 -12 5 35 -2 58 -26 83 -53 53
-145 23 -160 -52 l-6 -29 -29 30 c-26 26 -35 29 -72 24 -25 -3 -48 -14 -58
-26 -17 -20 -17 -20 -29 10 -14 33 -55 59 -95 59 -33 0 -85 -50 -85 -80 0 -16
-4 -20 -16 -16 -60 23 -102 13 -130 -30 -10 -14 -17 -42 -17 -61 1 -31 -1 -33
-15 -20 -42 36 -115 23 -141 -26 -11 -21 -18 -24 -32 -17 -23 13 -75 13 -99 0
-16 -8 -21 -4 -37 28 -13 26 -28 40 -52 48 -34 11 -35 11 -12 23 19 10 25 10
34 -3 10 -13 12 -7 12 33 0 39 5 55 25 76 l25 27 -27 -7 c-21 -5 -29 -3 -34 9
-8 22 -56 46 -89 46 -16 0 -38 -12 -56 -29 -50 -51 -34 -127 34 -156 30 -12
30 -13 9 -24 -29 -15 -53 -65 -50 -99 3 -24 -1 -28 -35 -36 -28 -7 -47 -6 -70
3 -18 8 -51 19 -74 25 -29 7 -43 16 -43 27 0 9 -7 22 -15 29 -21 17 -19 30 4
30 11 0 23 5 26 10 12 19 25 10 25 -19 0 -35 49 -81 86 -81 74 0 123 75 90
138 -9 17 -26 36 -37 43 -21 11 -69 9 -100 -5 -13 -6 -18 -1 -21 21 -4 27 -2
28 34 28 101 0 128 141 33 181 -69 28 -131 -15 -129 -91 1 -35 -2 -42 -15 -38
-37 13 -50 34 -40 61 34 90 -88 166 -156 97z m1499 -329 c-8 -11 -14 -33 -14
-48 l0 -27 -30 17 -29 17 24 25 c15 16 25 38 25 56 l0 29 19 -25 c17 -21 18
-27 5 -44z m166 22 c0 -30 -1 -31 -14 -12 -10 13 -11 23 -4 31 15 19 18 16 18
-19z m-1550 -20 c0 -5 -7 -8 -16 -8 -26 0 -74 -56 -74 -87 -1 -24 -2 -25 -11
-10 -16 27 -67 49 -98 42 -40 -9 -58 15 -36 48 l16 25 29 -29 c40 -40 91 -40
131 0 16 16 29 37 29 47 0 16 1 16 15 -2 8 -10 15 -22 15 -26z m1185 2 c8 -16
28 -36 43 -44 15 -9 21 -15 14 -16 -7 0 -21 -15 -32 -32 -18 -30 -20 -31 -20
-10 0 13 -14 37 -30 54 -27 27 -36 30 -71 25 -22 -3 -48 -12 -58 -21 -25 -23
-35 -20 -17 5 8 12 12 29 9 38 -5 13 -3 14 8 4 20 -20 84 -16 110 7 13 10 25
19 26 20 1 0 9 -13 18 -30z m1126 -64 c-12 -12 -24 -37 -27 -55 -6 -26 -9 -30
-16 -17 -5 10 -5 23 2 35 5 11 10 29 10 40 0 21 17 31 38 23 10 -3 8 -10 -7
-26z m-2561 -6 c12 -7 12 -12 -4 -29 l-19 -20 -27 22 c-26 21 -26 22 -6 29 30
9 39 9 56 -2z m1177 -17 c21 3 48 8 60 12 20 6 21 4 16 -34 -5 -35 -2 -44 26
-72 27 -26 37 -30 71 -27 22 2 40 1 40 -2 -1 -17 -21 -26 -60 -26 -25 0 -52
-3 -60 -7 -13 -6 -15 -1 -12 33 3 33 -1 44 -26 70 -32 31 -76 39 -112 20 -15
-8 -18 -5 -22 24 -4 33 -3 33 19 19 14 -10 36 -13 60 -10z m-2340 1 c-3 -3 -2
-17 3 -30 11 -28 10 -28 -23 -11 -24 13 -25 15 -9 30 9 9 21 17 26 17 5 0 7
-3 3 -6z m-124 -60 c-13 -13 -26 -37 -29 -53 -6 -27 -10 -29 -34 -25 -15 4
-37 1 -48 -5 -22 -12 -35 -2 -46 34 -5 17 -1 20 24 21 33 1 68 27 81 61 7 20
9 20 42 6 l34 -16 -24 -23z m1497 -39 c22 -12 22 -12 -13 -19 -41 -8 -77 -46
-77 -82 0 -29 -5 -30 -37 -4 -35 27 -75 25 -111 -5 -35 -29 -48 -74 -32 -104
10 -19 8 -21 -21 -21 -23 0 -40 -9 -65 -36 -22 -22 -34 -30 -34 -20 0 8 6 20
13 25 71 57 80 68 82 106 2 22 -2 48 -9 58 -9 16 -8 21 4 25 8 3 27 17 42 32
l26 27 24 -23 c59 -57 158 -17 158 65 1 35 1 36 14 12 7 -13 23 -29 36 -36z
m442 10 c17 -4 39 -1 57 8 26 13 30 13 35 0 9 -22 8 -23 -26 -23 -21 0 -41 -9
-60 -27 -27 -25 -28 -26 -28 -6 0 12 -11 35 -25 51 -31 37 -33 53 -2 24 12
-11 34 -24 49 -27z m798 15 c0 -11 -7 -20 -15 -20 -13 0 -14 4 -5 20 6 11 13
20 15 20 3 0 5 -9 5 -20z m-2564 -11 c4 -7 26 -9 57 -6 46 4 48 3 26 -9 -13
-7 -40 -13 -60 -14 -28 0 -38 5 -42 20 -5 21 7 27 19 9z m2091 -36 c2 -6 -11
-13 -30 -17 -39 -7 -73 -39 -82 -77 -8 -31 16 -83 44 -99 35 -18 90 -12 116
14 l23 23 4 -28 c4 -25 1 -29 -20 -29 -23 0 -74 -42 -83 -68 -4 -11 -10 -11
-32 -1 -22 10 -27 19 -27 50 0 29 -6 43 -31 63 -17 14 -37 26 -46 26 -11 0
-13 5 -7 18 4 9 8 31 8 47 1 26 6 31 41 40 28 7 46 20 60 42 18 28 22 30 39
19 11 -7 21 -17 23 -23z m115 -55 c14 -22 13 -25 -12 -50 l-27 -27 0 25 c0 18
5 24 21 25 17 0 15 3 -10 14 -18 8 -42 27 -54 42 l-21 27 30 11 c16 5 33 14
38 18 4 5 11 -7 14 -26 3 -20 12 -46 21 -59z m-808 47 c7 -19 -3 -19 -28 0
-19 15 -19 15 1 15 11 0 23 -7 27 -15z m-672 -52 c8 -10 5 -13 -14 -13 -22 0
-24 3 -20 37 4 36 5 36 14 13 5 -13 14 -30 20 -37z m728 -24 c0 -3 -8 -13 -17
-22 -17 -15 -18 -13 -18 17 0 29 2 32 18 22 9 -6 17 -14 17 -17z m121 -3 c11
-14 33 -27 50 -31 28 -6 29 -8 15 -24 -9 -10 -21 -31 -27 -48 -14 -40 10 -89
52 -107 27 -11 28 -14 14 -32 -8 -10 -15 -31 -15 -46 0 -32 19 -78 33 -78 5 0
4 -7 -3 -15 -11 -13 -16 -12 -42 10 -16 14 -36 25 -43 25 -9 0 -5 9 10 25 45
44 25 137 -34 156 -9 3 -9 11 3 34 9 17 16 38 16 48 0 26 -26 74 -45 80 -8 4
-15 11 -15 17 0 16 11 12 31 -14z m173 -34 c-1 -2 -13 0 -26 3 l-25 6 21 24
21 24 6 -27 c3 -15 4 -28 3 -30z m598 33 c-3 -20 -7 -23 -18 -14 -12 10 -11
14 3 25 10 7 19 14 19 14 1 0 -1 -11 -4 -25z m-2810 -28 c15 -12 13 -16 -16
-40 -19 -14 -36 -37 -40 -51 -10 -39 18 -96 53 -109 l30 -11 -30 -18 c-16 -10
-34 -29 -40 -42 l-11 -23 -24 24 -24 24 21 29 c37 49 7 125 -58 144 -28 9 -88
-16 -102 -42 -19 -36 -13 -91 12 -116 22 -22 23 -24 6 -45 -19 -23 -54 -19
-45 5 6 16 -10 19 -19 4 -3 -5 -13 -10 -21 -10 -12 0 -12 4 2 26 34 52 -16
137 -80 137 -30 0 -29 -1 -15 30 l11 24 24 -23 c32 -33 92 -33 128 1 14 13 26
33 26 45 0 25 5 25 32 0 29 -27 87 -26 122 1 14 11 26 27 26 35 0 17 10 17 32
1z m1092 -36 c-3 -16 -1 -38 5 -50 10 -18 7 -23 -28 -46 -22 -13 -45 -33 -50
-44 -9 -16 -14 -18 -35 -8 l-25 12 31 16 c50 26 72 85 48 130 -10 17 -7 19 24
19 34 0 35 -1 30 -29z m822 -90 c34 -30 34 -31 18 -56 -11 -18 -15 -37 -11
-62 5 -28 3 -33 -5 -25 -7 7 -27 12 -44 12 l-32 0 29 29 c42 42 40 93 -4 135
-34 31 -34 32 -13 48 20 15 21 15 24 -18 2 -23 14 -42 38 -63z m-178 28 c-25
-24 -29 -36 -27 -67 l4 -37 -52 0 c-49 0 -53 2 -63 29 -13 38 -14 36 16 36 38
0 64 18 80 55 13 32 16 33 43 24 l28 -10 -29 -30z m562 34 c0 -2 -5 -14 -11
-25 -18 -33 5 -94 41 -113 23 -12 30 -22 30 -44 0 -16 3 -36 6 -45 4 -11 0
-16 -11 -16 -10 0 -32 -16 -50 -34 -42 -44 -54 -34 -15 11 17 18 30 45 30 59
0 37 -25 78 -55 92 -25 12 -25 13 -10 43 10 19 14 41 10 59 -6 25 -4 28 14 23
12 -3 21 -7 21 -10z m-1080 -107 c-7 -20 -6 -36 4 -60 13 -32 13 -34 -7 -38
-20 -4 -22 0 -22 41 0 25 -4 54 -9 63 -6 12 -2 17 16 20 30 5 30 5 18 -26z
m1523 -15 c-3 -21 0 -47 6 -58 9 -19 7 -22 -24 -27 -22 -4 -43 -18 -59 -39
-14 -18 -26 -26 -26 -20 0 15 -52 43 -79 43 -14 0 -19 5 -15 15 5 13 8 13 27
0 59 -42 153 10 145 80 -3 25 0 35 12 39 8 2 16 4 17 5 0 0 -1 -16 -4 -38z
m-1336 -78 c-34 -17 -47 -42 -47 -91 0 -31 -4 -41 -20 -45 -16 -4 -18 -1 -13
24 3 18 -1 38 -11 54 -16 24 -16 25 4 25 11 0 34 13 52 29 18 16 39 26 46 23
11 -4 7 -9 -11 -19z m395 7 c18 0 18 -2 -7 -32 -22 -26 -26 -39 -22 -69 5 -37
5 -37 -27 -33 -20 3 -42 -2 -60 -13 -29 -18 -30 -18 -52 4 -13 13 -35 23 -51
23 -26 0 -30 5 -39 46 -9 40 -8 46 8 55 16 8 18 6 18 -21 0 -46 47 -90 95 -90
55 0 98 47 93 100 -3 31 0 39 10 35 8 -3 23 -5 34 -5z m-680 -56 c27 5 29 4
22 -17 -4 -12 -7 -27 -7 -34 0 -7 -13 -1 -29 13 -16 13 -42 24 -58 24 -23 0
-27 4 -23 20 5 18 7 19 35 4 19 -10 42 -14 60 -10z m1718 6 c0 -5 -4 -10 -10
-10 -5 0 -10 5 -10 10 0 6 5 10 10 10 6 0 10 -4 10 -10z m-855 -10 c25 -9 25
-10 6 -29 -48 -48 -28 -135 37 -157 l32 -10 -25 -24 c-24 -23 -25 -23 -25 -3
0 21 -44 72 -64 74 -54 7 -73 3 -88 -15 -9 -12 -20 -17 -24 -13 -5 4 -2 12 6
17 13 8 12 12 -5 24 -19 15 -18 15 11 10 37 -7 88 16 105 47 6 12 9 37 7 55
-2 19 -3 34 -2 34 2 0 14 -4 29 -10z m-1978 -80 c11 0 4 -11 -20 -32 -35 -32
-41 -46 -38 -96 1 -30 47 -72 78 -72 l24 0 -20 -26 c-22 -29 -27 -74 -11 -104
8 -15 3 -25 -25 -53 -23 -23 -35 -44 -35 -63 l0 -29 -18 22 c-9 12 -29 27 -44
32 -16 6 -28 17 -28 25 0 8 -13 25 -28 38 -24 20 -28 30 -24 61 3 30 -1 41
-26 67 -17 16 -39 30 -49 30 -15 0 -18 8 -18 48 0 26 -4 55 -9 65 -6 12 -4 17
7 17 8 0 28 14 45 31 18 19 32 26 37 20 3 -6 26 -11 50 -11 36 0 48 5 69 31
14 17 26 35 26 41 0 6 9 -1 21 -16 11 -14 28 -26 36 -26z m952 18 c-15 -28
-10 -74 11 -101 l20 -26 -22 -6 c-36 -11 -67 -45 -74 -81 -9 -48 -30 -33 -28
21 1 36 7 49 33 71 25 21 31 33 31 66 0 21 -4 47 -10 57 -8 16 -5 18 19 17 24
-1 27 -4 20 -18z m-1347 -70 c-28 -11 -31 -9 -19 16 10 21 13 22 23 7 10 -13
9 -17 -4 -23z m1618 -8 c37 0 40 -2 40 -27 l0 -26 -22 20 c-29 26 -64 34 -95
22 -21 -8 -24 -7 -19 7 3 8 6 25 6 36 0 20 2 19 25 -6 18 -20 34 -26 65 -26z
m1451 21 c20 -18 20 -18 -6 -14 -14 3 -25 12 -25 19 0 19 7 18 31 -5z m-173
-26 c8 -7 0 -10 -27 -10 -38 0 -38 0 -23 23 13 20 18 22 27 11 6 -8 16 -19 23
-24z m-1028 -7 c0 -13 3 -33 6 -44 4 -15 0 -23 -13 -26 -16 -4 -18 2 -18 44 0
32 4 48 13 48 6 0 12 -10 12 -22z m1080 -18 c0 -5 -4 -10 -9 -10 -6 0 -13 5
-16 10 -3 6 1 10 9 10 9 0 16 -4 16 -10z m-430 -10 c0 -5 -7 -10 -16 -10 -8 0
-12 5 -9 10 3 6 10 10 16 10 5 0 9 -4 9 -10z m268 -20 c-7 -10 -13 -18 -13
-17 0 1 -7 10 -14 20 -12 15 -11 17 13 17 23 0 25 -2 14 -20z m-1306 -34 c-3
-38 0 -49 22 -71 30 -30 32 -35 11 -35 -25 0 -65 -46 -65 -75 0 -29 -3 -30
-35 -9 -17 11 -36 14 -59 10 -31 -6 -33 -5 -29 18 4 22 8 24 30 15 38 -14 91
13 108 56 13 30 13 39 1 69 -8 18 -20 37 -27 42 -12 7 2 15 41 23 3 1 4 -19 2
-43z m578 -1 c7 -8 8 -15 3 -15 -6 0 -26 -11 -46 -24 l-35 -24 -6 21 c-3 12
-4 22 -3 23 8 6 63 33 68 34 4 0 12 -7 19 -15z m168 -61 c9 -18 7 -22 -24 -36
-32 -14 -34 -14 -34 2 0 9 -9 29 -21 44 -20 25 -20 26 -1 26 10 0 27 8 38 18
19 18 19 18 25 -7 3 -14 11 -35 17 -47z m362 61 c0 -8 -2 -15 -4 -15 -2 0 -6
7 -10 15 -3 8 -1 15 4 15 6 0 10 -7 10 -15z m-888 -34 c-10 -2 -23 -8 -29 -13
-14 -11 -16 -4 -7 29 6 21 7 22 29 5 19 -14 21 -18 7 -21z m-877 -1 c9 0 29 7
45 15 29 15 30 14 36 -10 8 -34 50 -65 88 -65 26 -1 28 -2 13 -11 -21 -13 -49
-64 -46 -87 4 -25 -75 -102 -92 -91 -21 13 -73 11 -94 -5 -11 -8 -24 -12 -30
-10 -16 6 -15 -86 1 -118 14 -27 14 -28 -9 -28 -13 0 -32 -6 -43 -14 -13 -10
-23 -11 -31 -4 -9 7 -4 18 23 43 31 30 35 39 33 76 -3 34 1 45 23 63 14 11 31
31 37 44 10 18 15 20 31 12 39 -21 87 -12 114 21 70 82 -18 194 -113 144 -18
-9 -37 -27 -43 -40 -9 -20 -14 -22 -33 -13 l-23 10 19 32 c10 17 19 39 19 49
0 16 2 16 30 2 16 -8 36 -15 45 -15z m971 -16 c-5 -14 -9 -14 -22 -3 -14 12
-14 14 3 20 23 8 27 4 19 -17z m575 -51 c-18 -6 -37 -17 -41 -23 -5 -8 -10 -7
-18 3 -9 10 -4 16 23 26 19 7 40 22 47 34 l12 22 6 -25 c5 -22 1 -27 -29 -37z
m-1231 -17 c0 -4 -11 -1 -25 8 -13 9 -37 16 -52 16 -26 1 -27 2 -10 14 16 12
23 11 52 -7 19 -12 34 -26 35 -31z m483 6 c-5 -22 -6 -22 -25 -5 -20 18 -20
18 4 24 29 7 28 8 21 -19z m-1009 7 c24 -11 24 -12 5 -33 -15 -15 -19 -32 -17
-66 3 -40 0 -47 -27 -65 l-30 -21 -15 31 c-15 29 -14 31 12 47 35 22 51 53 46
89 -5 33 -6 32 26 18z m1415 -88 c25 -14 67 -14 92 -1 15 8 19 7 19 -4 0 -20
49 -76 66 -76 20 0 17 -13 -6 -28 -17 -10 -20 -10 -20 7 0 10 -12 30 -26 45
-29 28 -79 35 -117 15 -17 -9 -22 -9 -26 2 -2 8 -19 28 -37 45 -30 29 -31 33
-16 47 14 15 17 14 33 -13 10 -16 27 -34 38 -39z m-185 34 c17 -13 17 -14 -3
-36 -12 -13 -21 -34 -21 -47 l0 -25 -26 26 -26 26 21 22 c12 13 21 29 21 36 0
17 10 16 34 -2z m670 0 c-4 -8 -10 -15 -15 -15 -5 0 -9 7 -9 15 0 8 7 15 15
15 9 0 12 -6 9 -15z m-2456 -54 c28 -24 30 -61 2 -61 -11 0 -20 7 -20 15 0 8
-4 15 -10 15 -5 0 -10 8 -10 18 0 14 2 15 10 2 5 -8 12 -12 15 -8 3 3 -1 13
-10 22 -23 22 -5 20 23 -3z m1597 -32 c-14 -17 -25 -42 -25 -55 0 -25 0 -25
-24 -7 l-24 18 29 33 c16 18 29 39 29 48 0 12 4 13 20 4 21 -11 21 -11 -5 -41z
m-485 -12 c-39 -10 -70 -52 -70 -94 0 -23 -4 -33 -12 -30 -9 2 -12 19 -9 47 2
34 11 51 40 79 34 34 37 35 58 21 21 -15 21 -15 -7 -23z m1334 4 c-8 -9 -22
12 -17 26 6 15 7 14 13 -3 4 -10 6 -21 4 -23z m-2484 -21 c-14 -27 -60 -60
-81 -60 -14 0 -19 7 -19 27 0 26 0 26 22 7 21 -19 21 -19 14 0 -9 25 42 70 61
54 9 -7 10 -16 3 -28z m1260 -2 l0 -32 -20 22 c-12 12 -26 22 -33 23 -11 1 26
15 46 18 4 1 7 -13 7 -31z m1050 24 c0 -5 11 -14 25 -20 22 -10 23 -14 14 -35
l-11 -24 -25 23 c-14 13 -32 24 -39 24 -19 0 -17 10 4 26 20 15 32 18 32 6z
m-851 -61 c-37 -38 -39 -87 -5 -128 21 -25 22 -31 10 -48 -8 -10 -14 -35 -14
-55 0 -32 -4 -37 -34 -48 -19 -7 -37 -20 -40 -28 -5 -13 -11 -12 -37 10 -17
14 -41 26 -55 26 -13 0 -24 6 -24 13 0 15 20 46 20 31 0 -15 45 -34 78 -34 90
0 121 134 41 175 -15 8 -39 15 -53 15 -31 0 -86 -45 -86 -71 0 -18 -1 -19 -25
-3 l-24 16 27 23 c21 18 27 32 27 63 l0 40 24 -24 c23 -23 42 -28 86 -25 26 3
75 56 75 82 0 16 3 18 19 9 19 -9 18 -11 -10 -39z m1095 -6 c-7 -16 -24 -21
-24 -6 0 5 -3 17 -7 26 -5 15 -3 16 15 6 13 -7 19 -17 16 -26z m-704 -26 c0
-4 -9 -9 -19 -12 -11 -3 -28 -19 -39 -36 -14 -23 -21 -28 -30 -19 -8 8 -5 19
13 40 14 16 25 38 25 49 0 19 1 19 25 2 13 -10 25 -21 25 -24z m133 -54 c-16
-12 -19 -11 -25 6 -4 11 -14 22 -23 25 -21 9 -19 19 8 31 19 9 25 6 40 -20 17
-28 17 -30 0 -42z m-2037 24 c2 -23 -1 -25 -27 -21 -16 2 -29 8 -29 12 0 45
51 54 56 9z m421 -11 c-20 -13 -27 -9 -27 12 0 18 3 19 20 8 14 -9 16 -14 7
-20z m168 -28 c13 -15 11 -19 -15 -39 l-30 -22 -11 28 c-5 15 -17 33 -25 39
-12 10 -10 15 18 31 33 19 33 19 41 -1 4 -11 15 -28 22 -36z m1106 -1 c-11
-10 -24 -27 -30 -36 -5 -10 -13 -15 -16 -11 -4 4 0 17 9 30 9 12 16 35 16 50
l0 28 21 -21 21 -21 -21 -19z m896 29 c-3 -8 -6 -5 -6 6 -1 11 2 17 5 13 3 -3
4 -12 1 -19z m-362 -52 c14 -15 38 -29 55 -33 22 -4 29 -10 26 -20 -4 -8 -6
-19 -6 -25 0 -6 -8 -3 -19 6 -10 9 -35 20 -55 23 -27 4 -36 10 -36 25 0 11 -5
28 -11 39 -8 15 -7 24 3 36 12 15 13 14 16 -5 2 -11 14 -32 27 -46z m235 2 c8
-3 12 -8 8 -12 -3 -4 -15 -3 -26 3 -12 6 -32 11 -45 11 -24 0 -25 2 -14 29
l11 29 25 -27 c14 -15 33 -30 41 -33z m-1486 33 c3 -4 -1 -17 -9 -27 -8 -10
-15 -37 -15 -59 -1 -32 -3 -36 -10 -20 -5 11 -9 14 -9 8 -1 -7 -6 -13 -11 -13
-6 0 -10 6 -9 13 3 23 -1 37 -10 37 -5 0 -5 -15 -1 -35 7 -30 5 -35 -11 -35
-14 0 -19 7 -19 25 0 14 -4 25 -10 25 -22 0 -8 18 19 23 16 3 39 20 52 36 25
32 34 36 43 22z m179 -15 c24 -24 24 -25 6 -42 -16 -14 -19 -15 -19 -2 0 8
-11 27 -25 42 -22 24 -22 26 -5 26 11 0 30 -11 43 -24z m-1063 -51 c0 -1 -11
-10 -25 -19 -24 -16 -25 -16 -25 7 0 20 4 23 25 19 14 -2 25 -6 25 -7z m2580
-27 c0 -5 -4 -8 -10 -8 -5 0 -10 10 -10 23 0 18 2 19 10 7 5 -8 10 -18 10 -22z
m-805 -18 c3 -5 1 -10 -4 -10 -6 0 -11 5 -11 10 0 6 2 10 4 10 3 0 8 -4 11
-10z m149 -6 c9 -22 8 -24 -9 -24 -9 0 -27 -11 -40 -24 l-23 -23 -21 28 -22
29 29 0 c15 0 37 7 48 15 25 19 31 18 38 -1z m-880 -40 c8 -22 9 -21 -21 -26
-16 -3 -36 -9 -45 -13 -13 -5 -18 -3 -18 9 0 9 8 16 19 16 10 0 24 7 31 15 16
19 26 19 34 -1z m-1114 -20 c0 -34 50 -84 84 -84 23 0 26 -4 26 -35 l0 -35
-32 20 c-18 11 -43 20 -55 20 -20 0 -23 5 -23 38 0 21 -7 48 -16 60 -15 22
-12 42 7 42 5 0 9 -12 9 -26z m1710 2 c18 -7 29 -15 24 -18 -13 -6 -76 17 -68
25 9 9 6 9 44 -7z m600 -27 c0 -5 -4 -9 -10 -9 -5 0 -10 7 -10 16 0 8 5 12 10
9 6 -3 10 -10 10 -16z m-1098 -64 c-4 -42 -2 -48 33 -80 30 -29 35 -38 25 -50
-16 -19 -34 -19 -27 -1 6 14 -30 26 -82 26 l-26 0 23 18 c28 21 41 68 31 105
-6 22 -4 27 10 27 16 0 18 -6 13 -45z m711 -9 c4 -10 1 -13 -8 -9 -8 3 -12 9
-9 14 7 12 11 11 17 -5z m107 -96 c0 -37 -1 -38 -25 -27 -14 7 -25 20 -25 29
0 9 -2 23 -5 31 -5 10 1 13 25 9 27 -4 30 -8 30 -42z m-1876 -53 c-13 -16 -24
-35 -24 -42 0 -8 -7 -11 -20 -8 -24 6 -24 7 -4 38 10 15 15 38 12 59 l-4 33
32 -25 33 -26 -25 -29z m1965 -46 c29 -5 32 -8 19 -19 -22 -17 -75 -5 -81 20
-4 15 -2 18 11 12 9 -3 32 -9 51 -13z"/>
<path d="M9380 5230 c0 -5 5 -10 10 -10 6 0 10 5 10 10 0 6 -4 10 -10 10 -5 0
-10 -4 -10 -10z"/>
<path d="M10045 5260 c3 -5 8 -10 11 -10 2 0 4 5 4 10 0 6 -5 10 -11 10 -5 0
-7 -4 -4 -10z"/>
<path d="M9930 5170 c0 -5 5 -10 10 -10 6 0 10 5 10 10 0 6 -4 10 -10 10 -5 0
-10 -4 -10 -10z"/>
<path d="M9945 4560 c3 -5 8 -10 11 -10 2 0 4 5 4 10 0 6 -5 10 -11 10 -5 0
-7 -4 -4 -10z"/>
<path d="M9125 4020 c3 -5 8 -10 11 -10 2 0 4 5 4 10 0 6 -5 10 -11 10 -5 0
-7 -4 -4 -10z"/>
<path d="M8354 5984 c-57 -28 -70 -93 -28 -143 22 -26 33 -31 70 -31 57 0 94
35 94 87 0 47 -16 72 -55 89 -42 17 -43 17 -81 -2z"/>
<path d="M2004 5949 c-34 -17 -57 -66 -50 -104 21 -109 186 -97 186 14 0 71
-75 121 -136 90z"/>
<path d="M2229 5901 c-21 -22 -29 -39 -29 -66 0 -51 44 -95 95 -95 51 0 95 44
95 95 0 51 -44 95 -95 95 -27 0 -44 -8 -66 -29z"/>
<path d="M2855 5905 c-34 -34 -35 -102 -1 -134 37 -35 86 -38 123 -7 39 33 50
74 29 115 -20 37 -44 51 -91 51 -25 0 -43 -8 -60 -25z"/>
<path d="M2469 5871 c-21 -22 -29 -39 -29 -66 0 -27 8 -44 29 -66 40 -40 91
-40 131 0 16 16 31 27 33 25 2 -2 1 17 -3 43 -14 90 -100 124 -161 64z"/>
<path d="M11410 5880 c0 -5 8 -7 18 -3 14 5 15 3 5 -8 -18 -19 -16 -34 2 -19
21 18 19 40 -5 40 -11 0 -20 -4 -20 -10z"/>
<path d="M10853 5851 c-17 -11 -34 -29 -38 -40 -5 -18 -8 -19 -38 -6 -41 17
-79 9 -108 -22 -47 -50 -20 -141 48 -158 31 -7 113 30 113 52 0 12 6 13 28 7
53 -15 84 -8 114 25 43 48 34 112 -22 144 -36 22 -58 21 -97 -2z"/>
<path d="M11360 5860 c0 -5 6 -7 14 -4 11 4 13 0 9 -14 -2 -11 -1 -22 4 -25 4
-3 9 8 10 24 2 23 -2 29 -17 29 -11 0 -20 -4 -20 -10z"/>
<path d="M11465 5860 c-3 -5 1 -10 11 -10 13 0 14 -3 4 -15 -15 -18 1 -20 18
-3 8 8 9 15 1 25 -14 16 -26 17 -34 3z"/>
<path d="M3319 5831 c-21 -22 -29 -39 -29 -66 0 -51 44 -95 95 -95 27 0 44 8
66 29 21 22 29 39 29 66 0 51 -44 95 -95 95 -27 0 -44 -8 -66 -29z"/>
<path d="M3647 5839 c-27 -16 -49 -67 -42 -99 7 -31 57 -80 81 -80 11 0 13 -6
9 -19 -4 -14 5 -9 30 15 25 24 46 34 68 34 29 1 30 2 15 14 -12 9 -18 27 -18
55 0 56 -34 91 -87 91 -21 0 -46 -5 -56 -11z"/>
<path d="M7149 5765 c-82 -44 -47 -175 47 -175 85 0 126 100 65 161 -33 32
-70 37 -112 14z"/>
<path d="M823 5751 c-18 -11 -35 -32 -39 -47 l-7 -26 -25 32 c-33 42 -66 54
-108 40 -43 -15 -64 -45 -64 -93 0 -86 102 -122 163 -56 15 16 27 37 27 47 1
9 7 3 15 -16 40 -93 180 -63 180 39 0 75 -79 119 -142 80z"/>
<path d="M2680 5756 c0 -15 -3 -16 -15 -6 -8 7 -15 8 -15 2 0 -5 6 -15 14 -21
18 -15 39 8 26 29 -8 12 -10 12 -10 -4z"/>
<path d="M1021 5734 c-26 -21 -31 -33 -31 -68 0 -23 6 -48 13 -55 9 -11 9 -14
0 -18 -37 -13 -56 -42 -63 -91 -3 -28 -3 -49 1 -46 4 2 10 -3 13 -12 8 -21 72
-46 101 -38 58 14 93 96 61 139 -13 18 -11 21 15 37 16 10 29 22 29 28 0 5 7
10 16 10 10 0 14 -5 10 -15 -4 -10 2 -19 17 -25 12 -5 17 -9 11 -9 -7 -1 -19
-17 -29 -36 -20 -43 -13 -84 18 -113 87 -82 210 31 139 128 -15 20 -18 30 -9
33 6 2 20 -9 29 -24 9 -15 32 -33 51 -40 l35 -12 -20 -28 c-27 -36 -18 -90 19
-119 32 -25 90 -26 123 -3 22 16 23 16 17 -1 -9 -23 16 -82 41 -95 12 -6 35
-11 52 -11 17 0 40 5 52 11 25 13 51 74 42 101 -5 17 -3 18 14 9 61 -33 142
14 142 82 0 38 -29 82 -60 92 -19 6 -18 8 9 31 35 29 44 68 26 111 -16 38 -41
53 -90 53 -38 0 -85 -35 -85 -65 0 -19 -2 -19 -44 6 -45 26 -86 19 -120 -22
-27 -32 -36 -36 -36 -16 0 19 -41 54 -72 62 -16 4 -37 1 -54 -8 -27 -14 -29
-13 -60 19 -43 47 -98 48 -142 3 -29 -30 -30 -30 -37 -10 -8 25 -53 51 -89 51
-13 0 -38 -12 -55 -26z m747 -214 c-20 -21 -28 -38 -28 -65 0 -32 -2 -35 -19
-25 -30 16 -66 12 -94 -10 l-26 -20 1 30 c1 39 -29 80 -69 94 -31 11 -31 11
-13 34 10 12 20 22 23 22 3 0 7 -10 11 -22 13 -55 114 -69 154 -23 12 14 22
35 22 46 0 18 2 18 33 -7 l33 -26 -28 -28z"/>
<path d="M7612 5745 c-21 -9 -38 -27 -48 -50 -20 -49 1 -100 51 -121 66 -27
130 15 130 87 0 70 -68 113 -133 84z"/>
<path d="M7348 5720 c-27 -27 -30 -36 -25 -72 8 -57 36 -83 93 -83 38 0 50 5
70 28 34 40 32 90 -5 128 -41 41 -91 40 -133 -1z"/>
<path d="M12416 5742 c-3 -6 0 -13 6 -15 10 -4 9 -8 -2 -16 -13 -9 -13 -11 2
-11 24 0 33 20 15 37 -9 9 -17 11 -21 5z"/>
<path d="M2421 5716 c-8 -10 -9 -16 -1 -21 5 -3 10 2 11 12 0 15 2 14 9 -3 5
-12 13 -25 19 -28 6 -4 4 -17 -7 -35 -9 -16 -19 -28 -23 -26 -3 3 -4 -7 -1
-22 4 -23 2 -25 -14 -19 -41 17 -54 18 -83 3 l-31 -15 0 37 c0 46 -21 76 -64
91 -40 13 -75 2 -103 -34 l-20 -25 -25 30 c-49 55 -147 30 -163 -42 -22 -98
107 -160 166 -79 l22 28 24 -29 c14 -16 35 -29 46 -30 15 -1 10 -4 -13 -10
-38 -11 -80 -51 -80 -76 0 -14 -2 -14 -19 1 -10 9 -35 19 -54 23 -32 5 -41 1
-73 -31 -32 -32 -36 -41 -31 -72 7 -44 23 -63 65 -81 27 -11 37 -11 67 1 21 9
40 26 47 43 16 38 16 37 32 24 8 -7 12 -19 9 -27 -4 -11 0 -12 26 -3 53 19 98
4 127 -43 14 -22 34 -43 44 -45 18 -5 18 -6 -2 -34 -13 -17 -22 -44 -22 -63 0
-30 -2 -33 -17 -25 -51 27 -139 -16 -139 -67 0 -28 1 -28 -38 -8 -19 9 -41 13
-54 8 l-21 -6 21 27 c49 62 11 148 -67 149 -37 1 -41 3 -41 27 0 32 -34 77
-68 90 -32 12 -87 -5 -107 -34 -8 -12 -15 -38 -15 -59 0 -21 -4 -38 -10 -38
-5 0 -10 -4 -10 -10 0 -5 9 -10 19 -10 11 0 35 -15 55 -33 30 -29 35 -31 39
-15 3 10 12 18 21 18 12 0 16 -10 16 -34 0 -45 46 -86 96 -86 l35 0 -20 -26
c-23 -29 -27 -64 -11 -94 8 -15 6 -24 -10 -40 -11 -11 -21 -26 -21 -32 -5 -48
-3 -110 3 -114 4 -3 8 2 8 10 0 13 4 12 20 -4 11 -11 27 -20 35 -20 12 0 13
-4 5 -19 -21 -40 -12 -82 25 -117 19 -18 35 -40 35 -49 0 -53 64 -104 114 -91
19 5 32 -1 55 -25 27 -27 37 -31 75 -27 l43 3 -10 -30 c-25 -83 74 -149 148
-101 32 21 45 70 31 120 -12 42 -27 49 -97 50 -31 0 -35 3 -31 23 3 18 8 21
22 13 10 -6 28 -10 39 -10 10 0 21 -5 23 -11 6 -18 66 42 79 78 9 29 13 31 35
22 36 -13 70 -2 100 34 19 22 25 39 22 62 -3 31 -3 31 24 21 20 -7 36 -7 57 0
27 11 29 10 38 -21 l10 -32 -48 5 c-41 4 -51 1 -73 -21 -18 -18 -26 -37 -26
-62 0 -34 -12 -46 -25 -25 -3 6 -24 10 -46 10 -97 0 -133 -131 -48 -175 42
-22 75 -18 111 14 24 22 32 37 32 63 l0 34 28 -14 c16 -8 40 -11 53 -8 21 6
25 3 25 -18 0 -32 42 -82 76 -90 17 -5 40 0 67 13 40 20 40 20 65 1 38 -31 95
-27 125 9 21 26 29 28 69 24 25 -3 55 0 67 6 20 11 21 9 21 -24 0 -45 45 -95
85 -95 100 0 140 121 57 176 l-31 22 30 6 c18 3 36 16 46 34 14 25 22 29 59
28 46 -1 79 21 96 64 11 28 -8 110 -26 115 -6 2 -23 6 -38 9 -15 4 -32 14 -37
24 -8 15 -5 18 17 20 14 1 31 7 36 12 15 15 22 12 22 -10 0 -15 -7 -20 -25
-20 -29 0 -25 -5 12 -14 22 -5 27 -3 27 13 0 11 6 22 13 24 10 4 10 6 0 6 -20
1 -15 18 7 24 11 3 20 11 20 19 0 10 -2 10 -10 -2 -13 -21 -22 -7 -12 19 l8
22 24 -26 c13 -14 32 -25 42 -25 11 0 16 -4 13 -10 -11 -18 70 22 87 43 10 12
18 38 19 57 0 19 3 28 6 20 9 -25 36 -52 62 -61 31 -12 86 6 106 34 17 25 20
80 5 108 -15 28 -68 52 -97 44 l-26 -6 27 31 c15 18 26 44 26 60 0 37 -42 87
-80 95 -78 17 -140 -80 -94 -150 18 -28 72 -49 100 -39 17 7 17 5 -2 -17 -12
-13 -26 -37 -31 -54 -9 -29 -10 -30 -21 -8 -16 29 -71 47 -105 34 l-26 -10 19
32 c24 38 25 53 6 90 -8 15 -10 27 -5 27 6 0 21 12 34 26 32 34 33 91 4 128
-11 14 -16 26 -11 26 5 0 21 12 36 26 50 51 24 144 -45 159 -88 19 -152 -80
-97 -150 17 -22 19 -30 9 -33 -44 -15 -71 -77 -53 -125 10 -26 8 -31 -17 -53
-37 -31 -45 -65 -27 -108 18 -43 47 -59 97 -54 21 2 39 2 39 1 0 -1 -8 -16
-18 -33 l-19 -30 -23 25 c-16 17 -34 25 -57 25 -30 0 -34 3 -33 23 4 49 -1 69
-25 92 -49 50 -145 22 -160 -46 -7 -30 -7 -30 -21 -10 -22 31 -81 44 -117 26
-27 -13 -30 -13 -51 12 -17 20 -34 27 -67 29 -24 2 -47 3 -51 3 -5 1 -8 9 -8
19 0 19 -30 51 -63 69 -16 8 -16 10 7 22 44 24 60 96 31 138 -8 12 -31 27 -50
33 l-35 11 22 30 c19 26 21 34 11 69 -10 39 -9 42 23 74 78 78 1 194 -99 152
-54 -22 -73 -77 -46 -129 9 -16 9 -22 -1 -25 -29 -10 -60 -52 -60 -81 l0 -30
-35 14 c-37 16 -74 8 -107 -22 -17 -15 -18 -14 -18 9 0 30 -32 74 -61 83 -21
7 -20 7 4 33 32 35 40 63 27 97 -8 20 -7 31 1 41 7 8 9 18 5 21 -4 4 -11 1
-16 -7 -8 -12 -10 -10 -10 7 0 12 -4 24 -9 27 -5 4 -7 -2 -5 -11 4 -16 -3 -18
-58 -17 -57 1 -63 3 -68 24 -7 29 -23 35 -39 16z m-146 -225 c0 -43 34 -91 64
-91 9 0 1 -9 -17 -20 -21 -13 -35 -31 -39 -50 -6 -32 -13 -36 -31 -18 -8 8 -6
17 8 36 11 14 20 36 20 49 0 34 -26 80 -50 88 -29 9 -25 19 13 32 17 5 32 11
32 12 0 0 0 -17 0 -38z m225 4 c22 -12 23 -14 7 -20 -28 -11 -50 -63 -43 -101
14 -70 98 -97 155 -48 l31 26 0 -31 c0 -17 10 -42 24 -58 47 -55 145 -26 161
48 6 26 8 27 35 17 29 -10 29 -11 15 -38 -8 -16 -15 -40 -15 -54 0 -29 45 -86
68 -86 12 0 7 -8 -15 -26 -82 -64 -25 -191 77 -170 17 3 30 2 30 -2 0 -4 3
-18 6 -32 6 -21 4 -23 -7 -12 -19 17 -80 15 -108 -5 -24 -16 -24 -16 -18 7 8
30 -15 85 -41 99 -85 46 -182 -42 -138 -124 30 -55 93 -71 139 -35 l26 21 -6
-34 c-4 -28 0 -40 27 -70 18 -21 27 -37 22 -37 -6 0 -17 -3 -25 -6 -11 -4 -17
4 -22 25 -9 42 -49 71 -96 71 -21 0 -41 -4 -44 -10 -10 -16 -28 -11 -21 6 8
21 -20 73 -48 85 l-23 11 29 28 c38 38 39 100 3 135 -13 14 -32 25 -41 25 -15
0 -15 3 4 23 45 48 36 124 -19 152 -41 22 -74 18 -108 -11 -25 -21 -31 -33
-31 -66 l0 -41 -25 27 c-13 14 -29 26 -35 26 -6 0 -1 10 10 22 43 47 36 108
-18 144 l-31 21 25 12 c26 11 59 74 49 91 -9 14 6 12 35 -5z m58 -395 c12 0
10 -6 -9 -26 -37 -39 -33 -98 9 -136 l33 -29 -25 -20 c-17 -13 -28 -34 -32
-59 -6 -38 -7 -39 -27 -25 -52 36 -131 3 -143 -60 -6 -31 -8 -33 -30 -23 -14
6 -21 14 -16 17 16 11 32 49 32 79 0 32 -39 82 -65 82 -8 0 -15 5 -15 10 0 6
7 10 15 10 23 0 56 60 52 93 -2 15 -3 27 -3 27 18 -4 77 -29 68 -30 -7 0 -24
-11 -37 -25 -34 -33 -33 -84 1 -124 21 -26 33 -31 69 -31 36 0 48 5 69 31 47
55 22 137 -47 154 l-25 7 30 27 c23 21 30 35 30 64 l0 38 25 -26 c14 -14 33
-25 41 -25z m919 -230 c26 0 28 -3 28 -37 1 -21 5 -46 9 -55 17 -37 -14 -17
-34 21 -21 42 -71 68 -105 55 -15 -6 -16 -4 -6 14 6 11 11 32 11 45 0 25 0 25
34 -9 23 -23 43 -34 63 -34z m-1268 46 l24 -14 -21 -6 c-24 -8 -52 -53 -52
-85 0 -33 21 -68 49 -82 14 -7 27 -14 29 -15 2 -1 -4 -13 -13 -27 l-16 -25
-27 28 c-15 14 -33 29 -40 31 -10 3 -11 11 -2 33 7 21 8 38 1 59 -9 24 -7 34
9 54 11 14 20 34 20 44 0 22 7 23 39 5z m951 -52 c32 11 37 10 63 -13 18 -17
39 -25 62 -25 28 0 34 -3 29 -15 -14 -32 -16 -69 -5 -89 10 -19 8 -20 -23 -19
-33 2 -34 3 -33 45 0 34 -6 49 -26 70 -36 35 -95 37 -130 4 l-25 -23 -4 39 -3
39 30 -12 c24 -10 37 -10 65 -1z m-93 -119 c1 -20 7 -43 14 -51 20 -24 69 -46
90 -41 21 6 22 3 13 -31 l-7 -23 -23 22 c-17 16 -37 23 -65 23 -36 1 -42 5
-54 32 -7 18 -21 37 -32 42 -17 10 -16 11 7 20 14 6 32 17 39 26 17 21 17 22
18 -19z m-482 -11 c24 -16 55 -15 98 1 13 6 17 2 17 -19 0 -23 -2 -25 -24 -15
-49 22 -126 -23 -126 -74 0 -23 -2 -24 -39 -14 -46 12 -80 -4 -109 -53 -13
-20 -22 -26 -31 -20 -11 6 -10 13 8 35 11 15 21 36 21 45 0 15 7 17 45 13 39
-5 47 -2 75 25 20 21 30 40 30 61 0 36 2 37 35 15z m801 -72 c23 -15 25 -48 4
-67 -20 -18 -20 -18 -20 13 0 17 -3 37 -6 46 -6 17 4 21 22 8z m-414 -117 c24
6 28 3 28 -15 0 -11 11 -32 25 -46 36 -36 21 -48 -23 -18 -25 17 -45 24 -63
20 -22 -4 -26 0 -35 34 -11 38 -11 38 14 29 14 -6 38 -7 54 -4z m230 -50 c-30
-36 -54 -30 -28 6 9 13 16 32 16 43 0 18 1 18 20 1 19 -18 19 -18 -8 -50z
m154 39 c-9 -24 20 -83 49 -96 l26 -12 -32 -13 c-17 -7 -32 -13 -33 -13 -1 0
-2 16 -2 35 0 23 -8 43 -24 60 -23 25 -23 25 -4 40 24 18 27 18 20 -1z"/>
<path d="M2724 5196 c-37 -37 -42 -62 -19 -106 18 -35 43 -50 85 -50 44 0 69
16 85 53 18 43 9 82 -27 112 -42 36 -82 33 -124 -9z"/>
<path d="M2633 5716 c4 -6 7 -18 7 -29 0 -12 6 -17 17 -15 20 4 31 38 13 38
-6 0 -8 -4 -5 -10 10 -16 -6 -11 -23 8 -10 9 -14 13 -9 8z"/>
<path d="M3120 5719 c-81 -32 -78 -152 4 -179 26 -8 34 -16 30 -28 -4 -13 -1
-11 13 4 21 25 74 54 100 55 16 0 15 2 -3 11 -15 7 -20 16 -16 34 7 38 -16 81
-53 98 -38 18 -41 18 -75 5z"/>
<path d="M64 5710 c-31 -12 -64 -59 -64 -90 0 -33 33 -78 68 -91 32 -12 87 5
107 34 18 25 20 80 4 109 -6 11 -26 26 -44 34 -39 16 -42 16 -71 4z"/>
<path d="M2377 5694 c-4 -4 -7 -14 -7 -23 0 -14 2 -14 10 -1 9 13 11 13 21 0
8 -13 10 -12 7 4 -3 21 -20 31 -31 20z"/>
<path d="M3845 5676 c-69 -69 -19 -176 76 -163 22 3 39 1 39 -5 0 -5 5 -6 10
-3 6 3 10 15 10 27 0 11 16 36 35 55 33 33 34 35 10 29 -20 -5 -25 -3 -25 13
0 11 -14 31 -31 45 -40 34 -91 35 -124 2z"/>
<path d="M5636 5654 c-39 -40 -37 -103 5 -138 17 -14 42 -26 55 -26 30 0 84
26 84 41 0 6 4 7 10 4 5 -3 7 0 5 8 -3 7 -2 24 3 37 9 25 7 30 -35 76 -32 34
-91 33 -127 -2z"/>
<path d="M7030 5669 c0 -12 -10 -16 -46 -15 -40 1 -50 -3 -75 -32 -32 -36 -38
-77 -14 -108 21 -28 18 -34 -14 -34 -20 0 -37 -9 -55 -31 -22 -26 -26 -28 -26
-11 0 30 -46 80 -80 87 -33 7 -84 -15 -100 -44 -15 -28 -12 -83 5 -108 20 -29
75 -46 107 -34 14 5 35 22 47 37 16 20 21 22 21 10 0 -55 63 -105 116 -92 63
16 95 94 59 142 -21 28 -18 34 15 34 36 0 80 39 80 70 0 17 4 20 23 15 l22 -6
-23 18 c-12 10 -31 41 -42 68 -10 28 -19 43 -20 34z"/>
<path d="M2669 5621 c-62 -62 -25 -161 59 -161 78 0 124 74 86 138 -34 58 -99
68 -145 23z"/>
<path d="M2364 5629 c-3 -6 -1 -16 5 -22 9 -9 11 -8 6 6 -8 20 5 23 24 5 10
-11 11 -10 6 5 -8 19 -30 23 -41 6z"/>
<path d="M5853 5627 c5 -13 1 -17 -16 -17 -20 -1 -20 -2 -4 -11 9 -5 22 -7 27
-4 14 8 13 32 -2 41 -8 5 -9 2 -5 -9z"/>
<path d="M7255 5580 c-50 -20 -87 -96 -63 -126 55 -67 85 -77 139 -47 28 15
41 18 50 9 9 -8 11 -7 6 7 -5 12 -1 17 11 17 16 1 16 1 0 11 -10 5 -18 21 -18
34 0 66 -69 118 -125 95z"/>
<path d="M7500 5583 c-84 -33 -87 -144 -4 -179 30 -12 39 -12 69 1 66 27 80
111 26 159 -20 18 -68 28 -91 19z"/>
<path d="M5870 5566 c0 -15 -3 -16 -15 -6 -13 11 -14 10 -9 -4 7 -18 29 -21
40 -5 3 6 1 16 -5 22 -8 8 -11 6 -11 -7z"/>
<path d="M500 5560 c0 -5 5 -10 11 -10 5 0 7 5 4 10 -3 6 -8 10 -11 10 -2 0
-4 -4 -4 -10z"/>
<path d="M530 5555 c0 -8 -4 -15 -8 -15 -12 0 -32 -46 -32 -74 0 -30 35 -75
68 -87 55 -21 122 29 122 91 0 38 -28 78 -62 88 -52 15 -88 14 -88 -3z"/>
<path d="M864 5549 c-3 -6 -1 -16 6 -22 10 -9 11 -9 6 0 -3 6 -2 14 4 18 5 3
10 1 10 -4 0 -6 4 -11 10 -11 5 0 7 7 4 15 -7 17 -30 20 -40 4z"/>
<path d="M716 5504 c-38 -38 -36 -95 3 -135 46 -45 123 -32 149 26 7 14 17 23
22 20 6 -3 10 -1 10 4 0 6 -6 11 -12 12 -7 1 -2 4 12 9 l25 7 -27 8 c-16 4
-28 13 -28 20 0 8 10 11 28 9 21 -3 20 -2 -7 7 -19 6 -44 17 -55 25 -34 23
-90 18 -120 -12z"/>
<path d="M5814 5517 c3 -10 6 -21 6 -23 0 -2 6 -4 14 -4 21 0 30 20 17 33 -8
8 -11 6 -11 -8 0 -18 0 -18 -16 1 -14 17 -15 17 -10 1z"/>
<path d="M4630 5460 c0 -5 5 -10 10 -10 6 0 10 5 10 10 0 6 -4 10 -10 10 -5 0
-10 -4 -10 -10z"/>
<path d="M7170 5440 c0 -5 5 -10 10 -10 6 0 10 5 10 10 0 6 -4 10 -10 10 -5 0
-10 -4 -10 -10z"/>
<path d="M7410 5401 c-30 -8 -33 -35 -5 -38 11 -2 14 0 8 3 -18 8 -16 24 1 24
8 0 18 5 21 10 3 6 5 10 3 9 -2 -1 -14 -4 -28 -8z"/>
<path d="M9013 5386 c-23 -20 -28 -32 -28 -71 0 -39 5 -51 28 -71 40 -34 90
-32 128 5 86 86 -36 216 -128 137z"/>
<path d="M7451 5381 c-25 -19 -22 -41 7 -41 14 0 14 2 3 9 -12 8 -12 12 2 26
30 29 23 33 -12 6z"/>
<path d="M12041 5354 c-13 -9 -29 -32 -37 -50 -8 -19 -21 -34 -30 -34 -29 0
-64 -47 -64 -85 0 -49 15 -74 54 -90 54 -23 117 7 130 61 4 13 13 24 22 24 9
0 29 13 45 29 80 81 -27 210 -120 145z"/>
<path d="M3925 5336 c-69 -69 -15 -178 82 -163 31 5 33 4 33 -24 0 -39 48 -89
85 -89 94 0 139 114 67 171 -20 15 -38 20 -69 17 -42 -3 -43 -3 -43 29 0 70
-104 110 -155 59z"/>
<path d="M6223 5348 c-40 -10 -63 -42 -63 -86 0 -44 14 -68 51 -88 40 -20 82
-11 114 28 32 38 32 78 0 116 -28 34 -56 42 -102 30z"/>
<path d="M7332 5352 c-16 -2 -30 -18 -44 -47 -18 -36 -24 -42 -39 -34 -10 5
-32 9 -49 9 -40 0 -90 -47 -90 -85 0 -20 -4 -26 -15 -21 -8 3 -15 1 -15 -3 0
-5 6 -12 13 -14 7 -3 4 -6 -6 -6 -10 -1 -15 -6 -12 -11 4 -6 15 -8 25 -5 10 3
21 1 25 -5 3 -5 -2 -10 -12 -10 -11 0 -28 -7 -39 -15 -27 -20 -30 -19 -44 15
-7 16 -15 29 -19 28 -3 -1 -18 2 -33 6 -35 10 -73 1 -97 -23 -19 -19 -20 -19
-32 10 -15 38 -45 59 -85 59 -41 0 -94 -43 -94 -76 0 -28 1 -28 -39 -8 -60 30
-131 -14 -131 -83 0 -26 -4 -33 -20 -33 -25 0 -115 -86 -129 -124 -15 -38 -4
-71 31 -101 43 -36 82 -33 126 11 35 35 37 36 63 20 44 -26 97 -21 128 13 l27
29 27 -24 c36 -31 78 -31 115 1 39 32 48 74 28 114 -32 60 -109 71 -156 21
l-27 -29 -20 22 c-16 19 -18 27 -8 54 9 28 12 30 30 17 30 -22 82 -17 110 10
l24 24 12 -30 c21 -52 84 -71 139 -43 26 14 29 13 43 -8 14 -22 13 -22 -29
-22 -74 0 -117 -63 -89 -132 16 -38 41 -53 90 -53 66 0 111 71 82 130 -15 29
-15 30 9 30 21 0 23 -3 18 -29 -6 -28 9 -69 29 -82 5 -4 -7 -12 -27 -19 -44
-14 -66 -44 -66 -88 0 -44 14 -68 51 -88 40 -20 82 -11 112 26 21 25 29 27 69
23 37 -4 49 -1 74 20 26 22 29 32 29 83 0 64 8 72 80 74 35 0 38 2 23 13 -11
9 -14 18 -7 28 12 19 11 76 -2 101 -6 11 -26 26 -45 34 -19 8 -34 19 -34 24 0
15 16 12 30 -5 7 -8 27 -15 45 -15 32 0 33 0 28 -43 -4 -36 -1 -48 22 -75 22
-27 34 -32 70 -32 36 0 48 5 70 32 23 28 26 38 21 75 -5 37 -3 43 13 43 10 0
29 8 42 19 13 10 30 17 37 15 7 -1 8 0 2 3 -16 8 -12 23 7 23 15 0 14 2 -3 14
-18 14 -18 15 6 25 l25 10 -24 0 c-18 1 -22 5 -18 20 2 10 1 25 -4 32 -7 12
-9 12 -9 0 0 -11 -4 -10 -19 3 -10 9 -35 19 -54 23 -32 5 -41 1 -72 -30 -33
-33 -36 -34 -45 -16 -15 28 -68 52 -97 44 -23 -5 -25 -4 -19 19 7 28 -14 89
-34 101 -19 12 -72 21 -98 17z m-2 -182 c12 -8 11 -10 -7 -10 -13 0 -23 5 -23
10 0 13 11 13 30 0z m74 -28 c-6 -20 -7 -21 -29 -4 l-23 17 26 6 c33 7 32 7
26 -19z m196 -57 c0 -8 -4 -15 -10 -15 -5 0 -7 7 -4 15 4 8 8 15 10 15 2 0 4
-7 4 -15z m-376 -9 c-10 -26 24 -87 56 -99 19 -7 30 -18 30 -31 0 -17 -3 -16
-26 8 -15 14 -35 26 -45 26 -14 0 -19 7 -19 29 0 16 -4 41 -10 55 -7 21 -6 26
5 26 8 0 12 -6 9 -14z m155 -237 c1 -4 -15 1 -34 10 -21 10 -34 23 -35 34 0
16 5 15 34 -10 19 -15 35 -31 35 -34z"/>
<path d="M7270 5330 c0 -5 5 -10 10 -10 6 0 10 5 10 10 0 6 -4 10 -10 10 -5 0
-10 -4 -10 -10z"/>
<path d="M2135 5281 c-61 -26 -80 -108 -36 -154 70 -75 197 2 158 96 -8 17
-21 38 -29 44 -20 17 -69 24 -93 14z"/>
<path d="M8864 5251 c-67 -42 -61 -136 11 -166 30 -13 39 -13 69 -1 66 27 82
108 33 155 -34 31 -76 35 -113 12z"/>
<path d="M3113 5248 c-29 -14 -56 -73 -48 -105 17 -68 103 -96 159 -52 24 19
26 19 26 2 0 -54 78 -95 130 -68 67 35 76 111 19 159 -37 31 -77 33 -112 6
-31 -25 -37 -25 -37 -1 0 27 -56 71 -88 70 -15 0 -37 -5 -49 -11z"/>
<path d="M9145 5220 c-3 -5 -1 -10 4 -10 6 0 11 5 11 10 0 6 -2 10 -4 10 -3 0
-8 -4 -11 -10z"/>
<path d="M4288 5205 c-77 -43 -42 -175 47 -175 58 0 94 37 94 95 0 78 -70 118
-141 80z"/>
<path d="M7036 5201 c-4 -6 0 -11 11 -11 14 -1 13 -4 -7 -15 -15 -8 -19 -14
-10 -14 8 -1 22 4 30 9 13 8 13 11 -1 26 -11 11 -19 12 -23 5z"/>
<path d="M3080 5070 c0 -5 5 -10 10 -10 6 0 10 5 10 10 0 6 -4 10 -10 10 -5 0
-10 -4 -10 -10z"/>
<path d="M11424 4809 c-5 -9 -2 -10 9 -6 20 8 22 -4 5 -22 -11 -10 -9 -11 5
-5 19 7 20 35 0 41 -6 2 -15 -1 -19 -8z"/>
<path d="M11485 4791 c19 -8 19 -8 -3 -20 -12 -6 -22 -17 -22 -24 0 -7 3 -8 8
-2 4 6 15 15 25 20 27 15 26 30 -3 32 -22 2 -22 2 -5 -6z"/>
<path d="M6232 4765 c-16 -12 -27 -13 -41 -5 -35 18 -88 12 -118 -14 -22 -19
-28 -32 -28 -64 0 -76 70 -119 139 -87 26 13 39 14 55 6 50 -27 109 -5 131 48
35 85 -64 167 -138 116z"/>
<path d="M11400 4753 c-50 -8 -78 -25 -96 -59 -15 -28 -17 -39 -7 -65 11 -27
10 -30 -5 -23 -44 19 -78 16 -110 -11 -27 -23 -32 -34 -32 -70 0 -24 5 -47 11
-50 6 -4 8 -13 5 -20 -3 -8 2 -14 12 -14 9 -1 33 -3 53 -7 21 -3 46 -1 58 5
29 16 54 68 47 101 -5 27 -4 27 38 23 31 -4 51 0 70 12 50 33 50 114 0 154
-13 10 -20 21 -17 25 3 3 4 5 2 5 -2 -1 -15 -4 -29 -6z"/>
<path d="M3717 4732 c-23 -25 -21 -42 3 -42 11 0 20 4 20 10 0 5 -7 7 -16 3
-15 -5 -15 -3 1 20 20 31 16 35 -8 9z"/>
<path d="M11518 4743 c6 -2 12 -9 12 -14 0 -4 -6 -6 -13 -3 -8 3 -19 -1 -25
-9 -9 -11 -6 -13 18 -9 21 3 30 10 30 23 0 12 -7 19 -17 18 -11 0 -13 -3 -5
-6z"/>
<path d="M3762 4728 c-7 -7 -12 -18 -12 -25 0 -16 36 -17 46 -2 4 8 -1 9 -17
4 -21 -7 -22 -6 -10 9 16 19 10 31 -7 14z"/>
<path d="M7633 4733 c-12 -2 -33 -18 -47 -34 l-25 -29 -25 24 c-65 66 -166 24
-166 -69 0 -42 50 -85 99 -85 34 0 44 5 67 34 l28 34 19 -25 c28 -35 63 -46
103 -33 42 14 64 44 64 88 0 46 -16 71 -55 88 -19 8 -36 13 -37 13 -2 -1 -13
-4 -25 -6z"/>
<path d="M10904 4692 c-37 -6 -69 -49 -69 -93 0 -54 40 -94 94 -94 45 0 69 17
88 63 11 27 11 37 -1 66 -8 18 -19 37 -25 41 -20 12 -65 21 -87 17z"/>
<path d="M1947 4675 c-4 -8 -2 -17 3 -20 6 -4 10 1 10 11 0 14 3 14 15 4 13
-11 14 -10 9 4 -8 20 -30 21 -37 1z"/>
<path d="M6423 4548 c-29 -14 -55 -71 -47 -102 3 -13 14 -33 23 -43 17 -17 17
-19 -1 -48 -10 -16 -18 -42 -18 -57 0 -25 -3 -27 -27 -22 -62 12 -117 -37
-115 -101 1 -33 0 -34 -27 -29 -66 14 -124 -54 -103 -121 9 -32 9 -34 -8 -25
-28 15 -67 12 -95 -6 -22 -14 -25 -15 -25 -1 0 8 -3 22 -6 31 -5 13 1 16 26
16 46 0 90 47 90 95 0 27 -8 44 -29 66 -41 41 -91 40 -133 -1 -27 -28 -30 -36
-25 -75 4 -44 4 -45 -25 -45 -44 0 -88 -48 -88 -95 0 -72 89 -122 145 -81 17
12 20 9 39 -28 15 -28 31 -44 52 -51 l32 -10 -19 -24 c-10 -13 -19 -37 -19
-53 0 -23 -4 -29 -16 -24 -9 3 -19 6 -24 6 -5 0 -5 14 0 31 11 38 -8 92 -38
108 -26 14 -77 14 -103 1 -29 -16 -51 -67 -44 -100 7 -30 56 -80 79 -80 10 0
12 -13 8 -48 -4 -42 -1 -50 24 -76 26 -25 34 -28 76 -24 42 5 48 3 48 -14 0
-28 54 -78 84 -78 20 0 26 -5 26 -22 0 -21 2 -20 19 8 11 18 30 39 42 48 22
15 24 15 36 -9 14 -26 60 -55 88 -55 29 0 71 28 83 55 17 38 15 69 -8 98 -20
25 -20 28 -5 57 33 63 -13 135 -85 135 -77 0 -120 -75 -80 -142 16 -28 19 -41
11 -57 -5 -12 -12 -28 -14 -36 -3 -8 -6 0 -6 18 -1 23 -10 43 -31 64 -28 27
-36 30 -75 25 -33 -3 -45 -1 -45 8 0 9 11 12 40 8 34 -5 43 -2 71 26 28 28 31
37 27 75 l-5 43 26 -13 c28 -15 76 -10 100 10 8 6 20 26 28 44 12 30 12 38 -4
70 -46 94 -179 61 -177 -43 1 -43 1 -43 -25 -32 -36 16 -36 15 -17 36 13 14
17 32 15 64 l-4 44 47 -5 c41 -4 50 -1 72 23 19 20 26 39 26 66 0 39 0 39 39
39 57 0 95 35 95 86 l1 39 45 -3 c47 -2 64 6 93 48 16 23 17 24 17 3 0 -29 55
-73 91 -73 41 0 66 15 84 51 l16 30 21 -26 c11 -15 32 -31 46 -36 32 -12 87 5
107 34 18 25 20 80 4 109 -14 26 -67 48 -102 41 -27 -5 -77 -54 -77 -76 0 -7
-9 3 -20 21 -11 17 -25 32 -31 32 -6 0 1 14 15 31 36 43 35 91 -3 130 -49 49
-128 34 -152 -30 l-11 -26 -12 30 c-20 48 -82 68 -133 43z m184 -155 c13 -13
18 -25 12 -29 -6 -3 -19 -20 -30 -38 -16 -27 -19 -28 -19 -10 0 12 -8 32 -18
44 -17 21 -17 25 -3 56 14 28 17 31 26 17 6 -9 20 -27 32 -40z"/>
<path d="M11070 4500 c0 -13 6 -20 18 -19 10 0 12 3 5 6 -23 9 -14 25 10 18
17 -5 19 -4 7 4 -23 17 -40 13 -40 -9z"/>
<path d="M6218 4484 c-33 -18 -48 -43 -48 -82 0 -25 -3 -29 -24 -25 -28 6 -82
-20 -96 -46 -18 -34 -11 -78 16 -110 21 -26 33 -31 69 -31 36 0 48 5 69 31 15
18 26 43 26 60 0 27 3 29 39 29 94 0 124 132 40 176 -35 18 -57 17 -91 -2z"/>
<path d="M11108 4463 c-32 -5 -41 -44 -10 -42 10 0 12 3 5 6 -20 7 -15 23 6
23 11 0 23 5 26 10 3 6 5 9 3 9 -2 -1 -15 -4 -30 -6z"/>
<path d="M11125 4420 c-9 -14 3 -30 23 -29 14 0 13 2 -3 8 -19 8 -19 8 0 19
17 10 17 11 3 12 -9 0 -20 -4 -23 -10z"/>
<path d="M7061 4354 c-17 -14 -31 -32 -31 -40 0 -8 -4 -14 -10 -14 -5 0 -10
-7 -10 -15 0 -8 5 -15 10 -15 6 0 10 -7 10 -15 0 -9 12 -27 26 -40 32 -30 88
-33 123 -8 21 14 25 14 35 1 29 -39 90 -49 132 -22 23 16 26 16 37 0 7 -9 29
-22 49 -29 27 -10 34 -17 28 -27 -6 -10 -12 -11 -22 -3 -38 29 -99 20 -130
-20 -14 -17 -18 -19 -18 -6 0 27 -38 67 -71 74 -41 9 -86 -11 -104 -46 -18
-35 -19 -57 -2 -89 13 -25 13 -25 -26 -26 -29 0 -45 -7 -61 -25 l-21 -25 -16
33 c-16 33 -16 33 8 33 15 0 39 14 60 35 32 32 35 40 30 73 -8 49 -46 82 -96
82 -71 0 -112 -64 -85 -129 8 -19 14 -35 14 -36 0 -2 -16 -5 -35 -7 -23 -3
-32 -1 -25 6 6 6 10 29 10 52 0 35 -5 47 -31 68 -82 69 -194 -18 -145 -112 21
-41 50 -55 99 -49 29 4 36 2 28 -6 -6 -6 -11 -26 -11 -44 0 -22 -5 -33 -14
-33 -8 0 -18 -5 -22 -11 -4 -8 1 -9 16 -4 20 6 21 5 11 -14 -7 -12 -8 -21 -2
-21 5 0 12 6 15 13 3 9 8 8 18 -5 19 -23 80 -33 109 -18 13 7 32 22 41 34 17
21 18 21 18 0 0 -11 5 -25 12 -32 9 -9 5 -12 -19 -12 -19 0 -44 -10 -62 -26
-27 -22 -34 -24 -47 -13 -9 7 -37 16 -63 19 -40 4 -46 8 -49 30 -2 14 -8 29
-13 34 -5 6 -9 24 -9 42 0 24 -8 39 -31 58 -83 70 -194 -18 -144 -114 9 -18
26 -35 37 -38 19 -4 17 -7 -13 -21 -34 -16 -34 -16 -54 14 -12 16 -33 36 -48
43 l-27 13 28 26 c15 14 26 28 26 32 -14 75 -16 70 20 64 99 -16 155 115 72
172 -33 23 -89 19 -120 -10 -21 -19 -26 -33 -26 -70 0 -43 -1 -45 -20 -35 -27
15 -84 -4 -105 -33 -19 -27 -19 -86 0 -113 8 -12 27 -27 43 -33 l30 -12 -24
-24 c-34 -34 -33 -97 1 -130 30 -31 93 -37 123 -13 7 6 13 9 15 7 15 -27 27
-49 27 -52 0 -1 -18 -1 -39 1 -48 5 -76 -10 -97 -49 -20 -40 -11 -82 28 -114
38 -32 78 -32 116 0 37 31 46 65 29 107 l-14 33 43 -3 c37 -3 48 0 73 25 l29
29 31 -28 c41 -37 81 -37 123 1 33 29 33 29 57 10 25 -21 72 -25 101 -9 16 9
22 6 34 -18 8 -15 27 -34 42 -40 l27 -13 -22 -23 c-26 -28 -28 -91 -3 -119 17
-19 16 -20 -10 -13 -34 8 -92 -15 -107 -42 -6 -12 -11 -32 -11 -47 0 -23 -3
-25 -27 -19 -36 9 -35 6 -22 42 8 24 8 38 -4 60 l-14 29 46 -5 c40 -4 50 0 74
23 53 53 25 147 -47 161 -71 13 -130 -52 -109 -119 l10 -32 -48 0 c-41 0 -46
2 -38 17 16 30 9 67 -18 97 -41 44 -100 46 -139 4 -22 -24 -25 -35 -21 -76 4
-44 2 -48 -22 -54 -14 -3 -30 -8 -34 -10 -10 -6 12 -33 26 -33 7 0 7 4 -1 12
-9 9 -6 14 15 23 21 9 34 7 62 -7 23 -12 46 -16 63 -12 27 5 27 5 17 -24 -12
-35 2 -79 34 -104 l22 -18 -28 0 c-43 0 -87 -49 -87 -95 0 -77 92 -123 153
-75 14 11 33 20 44 19 12 0 8 -5 -14 -15 -67 -29 -85 -109 -37 -158 15 -14 35
-26 46 -26 18 0 18 -2 4 -22 -9 -12 -16 -40 -16 -61 0 -43 31 -82 74 -93 16
-4 26 -13 26 -25 0 -16 -3 -17 -32 -5 -49 20 -98 2 -121 -46 -16 -33 -17 -40
-3 -72 8 -19 23 -40 34 -47 15 -10 18 -20 14 -58 -3 -40 0 -52 22 -78 23 -27
25 -35 15 -56 -6 -14 -9 -37 -5 -52 8 -32 52 -75 76 -75 14 0 16 -8 12 -49 -4
-42 -1 -53 20 -73 17 -18 23 -35 23 -65 0 -47 17 -71 63 -90 27 -11 37 -11 67
1 19 8 38 22 41 30 5 14 8 14 27 1 25 -17 80 -20 108 -5 27 15 50 64 47 102
-3 32 -2 33 35 30 32 -3 43 2 72 31 36 36 42 58 25 101 -9 24 -8 26 20 26 18
0 42 11 62 29 18 15 40 26 48 23 13 -5 13 -3 1 12 -9 11 -15 40 -15 71 -1 34
-5 50 -11 44 -23 -23 -24 -6 -1 22 17 19 26 43 26 64 0 33 0 33 40 28 50 -7
84 14 101 62 7 19 19 35 27 35 7 0 27 13 43 29 36 36 40 93 9 126 -17 18 -19
26 -9 53 13 39 -10 94 -46 110 -14 7 -25 20 -25 30 0 11 -9 31 -21 46 l-20 26
26 0 c32 0 72 38 80 77 4 15 11 37 17 47 8 15 7 18 -6 13 -19 -8 -21 4 -3 22
10 11 8 12 -8 7 -11 -3 -27 -1 -35 4 -13 9 -13 11 0 20 11 7 3 8 -27 4 l-42
-6 -3 38 c-3 33 1 42 25 57 34 21 37 21 37 -1 0 -10 7 -27 15 -38 8 -12 11
-25 7 -29 -4 -5 -2 -5 5 -2 6 4 23 3 38 -3 24 -9 27 -14 21 -45 -6 -31 -4 -35
14 -35 11 0 20 4 20 10 0 5 -8 6 -17 3 -13 -5 -15 -2 -10 11 4 10 7 26 7 37 0
23 28 25 56 4 22 -17 77 -19 105 -5 30 16 52 68 45 105 -6 28 -3 35 14 40 39
12 62 84 39 126 -7 15 -7 24 0 33 9 11 1 14 -39 18 -29 3 -59 13 -71 24 -21
19 -22 19 -15 -2 4 -14 -1 -27 -19 -44 -14 -13 -25 -19 -25 -13 0 6 -12 22
-26 37 -20 19 -37 26 -65 26 -33 0 -38 3 -44 30 -8 37 -49 70 -87 70 -25 0
-28 3 -22 25 8 34 -2 71 -28 97 -16 16 -21 32 -19 61 2 33 -3 43 -33 72 -20
18 -36 37 -36 41 0 4 10 19 23 32 18 21 19 24 4 19 -13 -5 -28 3 -51 28 -22
22 -43 35 -59 35 -25 0 -26 1 -13 33 19 46 14 73 -20 102 -34 29 -88 33 -121
10 -21 -14 -24 -14 -42 4 -37 37 -101 40 -135 6 -13 -14 -16 -13 -28 3 -33 47
-92 54 -137 16z m282 -390 c43 -20 80 -13 112 22 20 21 27 24 44 14 14 -7 21
-21 21 -40 0 -28 -2 -29 -26 -20 -36 14 -70 3 -99 -32 -16 -18 -25 -24 -25
-15 0 9 -12 29 -26 46 -21 26 -33 31 -68 31 -23 0 -51 -7 -63 -15 -20 -14 -23
-14 -33 4 -15 29 -13 31 26 31 25 0 42 7 57 24 l22 24 12 -29 c7 -16 27 -36
46 -45z m-583 -93 c0 -11 4 -22 9 -25 5 -3 -3 -19 -18 -35 l-26 -29 -22 24
c-12 13 -28 24 -35 24 -7 0 6 9 30 21 23 12 42 25 42 30 0 5 5 9 10 9 6 0 10
-9 10 -19z m470 -76 c40 -21 82 -12 112 24 l23 27 17 -34 16 -34 -25 5 c-40 8
-82 -12 -100 -47 l-16 -31 -8 30 c-15 55 -87 83 -139 55 -15 -8 -21 -6 -30 9
-15 29 -13 31 23 31 21 0 41 8 52 20 19 20 19 20 31 -9 7 -16 27 -37 44 -46z
m345 33 c1 -24 5 -51 9 -60 7 -15 3 -18 -28 -18 -75 0 -115 -91 -66 -152 14
-19 16 -28 8 -36 -16 -16 -28 -15 -28 3 0 8 -8 15 -18 15 -20 0 -64 29 -45 30
16 0 43 52 43 82 0 13 -7 34 -16 47 -17 23 -16 23 14 16 56 -12 112 32 112 89
0 14 3 26 8 26 4 0 7 -19 7 -42z m107 -139 c-3 -31 1 -48 17 -70 16 -21 18
-29 8 -29 -8 0 -26 -9 -41 -21 -21 -17 -29 -19 -41 -9 -13 11 -11 16 10 42 28
34 31 61 11 101 -14 26 -14 27 12 27 26 0 27 -2 24 -41z m-376 -81 c29 -17 33
-23 20 -30 -8 -5 -20 -16 -25 -26 -8 -14 -11 -13 -22 11 -7 16 -25 35 -40 43
l-28 14 22 34 22 33 8 -29 c5 -18 22 -37 43 -50z m523 -85 c7 -14 8 -24 1 -28
-5 -3 -10 2 -10 13 0 11 -9 31 -20 45 -15 18 -17 26 -8 30 7 2 16 -6 19 -18 3
-11 11 -31 18 -42z m162 -26 c-13 -13 -26 -3 -16 12 3 6 11 8 17 5 6 -4 6 -10
-1 -17z m-692 -35 c10 -19 10 -23 -1 -21 -33 4 -52 -3 -79 -30 -33 -33 -37
-67 -14 -111 14 -27 14 -30 0 -30 -9 0 -27 -11 -40 -25 -21 -20 -25 -21 -25
-7 -1 15 -2 15 -13 1 -9 -11 -24 -14 -54 -11 -37 4 -43 7 -43 27 0 21 3 23 28
16 42 -11 69 -2 97 30 28 34 32 76 10 105 -21 28 -19 30 25 26 35 -4 44 0 68
26 15 16 28 29 28 28 1 0 7 -11 13 -24z m181 -31 c0 -5 -11 -11 -25 -14 -24
-4 -25 -3 -9 14 16 18 34 17 34 0z m-77 -47 c-15 -24 -17 -25 -24 -8 -12 30
-10 34 16 34 25 0 25 0 8 -26z m-546 -70 c-3 -3 -12 -4 -19 -1 -8 3 -5 6 6 6
11 1 17 -2 13 -5z m545 -41 c6 -8 2 -13 -14 -18 -13 -4 -32 -16 -44 -26 -20
-19 -21 -19 -38 -1 -16 18 -15 20 14 32 18 7 39 25 48 39 15 23 17 23 21 5 2
-10 7 -24 13 -31z m168 -18 c-18 -6 -41 -22 -52 -35 -16 -19 -21 -21 -28 -10
-6 10 -1 17 18 26 15 6 36 21 46 33 15 17 22 19 34 9 12 -10 9 -14 -18 -23z
m100 -15 c0 -5 -4 -10 -9 -10 -6 0 -13 5 -16 10 -3 6 1 10 9 10 9 0 16 -4 16
-10z m-700 -80 c0 -5 -8 -10 -17 -10 -15 0 -16 2 -3 10 19 12 20 12 20 0z
m338 -75 c-17 -6 -40 -22 -52 -35 -21 -25 -21 -25 -56 -7 -20 10 -45 15 -58
12 -23 -6 -23 -6 -5 20 13 18 24 23 38 19 58 -18 82 -16 111 9 26 22 30 23 40
8 11 -14 8 -18 -18 -26z m215 8 c14 -17 13 -18 -14 -19 -16 -1 -38 -9 -49 -19
-30 -27 -24 -5 7 27 31 33 35 34 56 11z m77 -39 c0 -14 -3 -14 -15 -4 -8 7
-15 14 -15 16 0 2 7 4 15 4 8 0 15 -7 15 -16z m-170 -21 c0 -29 -2 -29 -19 5
-10 18 -9 22 4 22 10 0 15 -9 15 -27z m-351 -12 c-11 -13 -19 -37 -19 -54 l0
-30 -22 20 c-13 11 -31 23 -40 26 -16 6 -17 8 -1 35 15 25 22 29 59 28 l41 -1
-18 -24z m557 -53 c4 -6 2 -14 -4 -16 -16 -5 -42 -56 -42 -82 0 -17 -3 -19
-19 -10 -11 5 -37 10 -58 10 -29 0 -41 5 -52 23 -10 17 -11 19 0 10 7 -7 33
-13 56 -13 49 0 93 33 93 70 0 22 15 27 26 8z m-203 -27 c3 -14 1 -18 -9 -14
-15 6 -18 16 -7 26 9 10 10 9 16 -12z m-159 -28 c36 -29 23 -48 -33 -48 -34 0
-55 -6 -70 -19 -19 -17 -23 -18 -38 -4 -10 9 -28 19 -40 22 -14 5 -23 15 -23
27 0 19 0 19 22 -1 15 -13 35 -20 64 -20 35 0 47 5 66 29 28 36 25 35 52 14z
m358 -145 c-9 -9 -12 -7 -12 12 0 19 3 21 12 12 9 -9 9 -15 0 -24z m-282 -33
c-27 -14 -36 -13 -25 4 3 6 16 11 28 11 21 -1 21 -1 -3 -15z m85 4 c11 -17 2
-18 -25 -4 -24 14 -24 14 -3 15 12 0 25 -5 28 -11z m-203 -59 c16 0 38 5 48
10 17 9 19 8 12 -11 -6 -15 -19 -23 -42 -26 -18 -2 -35 -5 -37 -7 -2 -1 -18
11 -37 28 -38 35 -38 57 1 26 14 -11 39 -20 55 -20z m378 16 c0 -20 -4 -22
-25 -18 -25 4 -25 5 -8 23 25 24 33 23 33 -5z m-92 -20 c-2 -1 -10 -7 -19 -14
-13 -10 -18 -8 -27 12 -11 24 -10 24 19 14 17 -6 29 -11 27 -12z m-487 1 c-6
-41 -15 -67 -23 -65 -10 4 -10 4 -1 48 3 17 10 29 15 28 5 -2 9 -7 9 -11z
m452 -180 c-7 -5 -20 0 -32 12 -11 11 -31 23 -43 25 -13 3 -32 7 -43 9 -11 3
-4 5 16 6 19 0 44 7 54 15 18 13 21 11 40 -22 17 -29 19 -39 8 -45z m-313 25
c0 -4 -13 -13 -30 -19 -16 -6 -38 -25 -48 -42 -18 -30 -19 -30 -36 -12 -14 15
-15 23 -5 44 10 22 16 25 44 20 18 -3 41 0 51 6 23 13 24 13 24 3z m116 -73
c1 -5 2 -17 3 -28 2 -28 50 -71 80 -71 l26 0 -25 -20 c-25 -19 -25 -19 -50 4
-14 13 -31 25 -39 28 -12 3 -17 53 -12 105 1 9 16 -6 17 -18z m179 -89 c3 -5
-3 -10 -14 -10 -12 0 -21 5 -21 10 0 6 6 10 14 10 8 0 18 -4 21 -10z m-333
-28 c22 -12 33 -23 29 -30 -9 -16 -79 19 -73 36 5 15 1 15 44 -6z m73 -145
c13 -10 15 -16 6 -21 -12 -8 -41 10 -41 25 0 13 13 11 35 -4z"/>
<path d="M7440 3599 c0 -5 5 -7 10 -4 6 3 10 8 10 11 0 2 -4 4 -10 4 -5 0 -10
-5 -10 -11z"/>
<path d="M2737 4339 c-11 -6 -25 -26 -33 -45 -12 -30 -17 -33 -34 -24 -61 32
-140 -16 -140 -85 0 -27 8 -44 29 -66 22 -21 39 -29 66 -29 42 0 95 44 95 80
0 20 1 20 22 6 32 -23 72 -20 106 9 16 13 31 23 33 21 2 -2 5 12 6 32 2 41
-19 87 -46 102 -25 13 -81 12 -104 -1z"/>
<path d="M7540 4319 c0 -5 5 -7 10 -4 6 3 10 8 10 11 0 2 -4 4 -10 4 -5 0 -10
-5 -10 -11z"/>
<path d="M7000 4250 c0 -5 5 -10 10 -10 6 0 10 5 10 10 0 6 -4 10 -10 10 -5 0
-10 -4 -10 -10z"/>
<path d="M2900 4205 c0 -20 18 -38 34 -32 17 7 22 37 6 37 -5 0 -7 -7 -4 -15
8 -20 -6 -19 -22 3 -7 9 -13 13 -14 7z"/>
<path d="M10723 4190 c2 -30 31 -34 34 -5 2 11 0 14 -3 8 -8 -18 -22 -16 -28
5 -3 10 -4 6 -3 -8z"/>
<path d="M10687 4173 c-4 -3 -7 -15 -7 -25 0 -23 31 -21 38 2 5 13 3 13 -13 0
-16 -14 -17 -13 -11 8 7 22 5 28 -7 15z"/>
<path d="M2836 4132 c1 -30 33 -39 42 -12 5 13 3 13 -11 1 -15 -12 -17 -11
-17 7 0 12 -4 23 -8 26 -4 2 -7 -8 -6 -22z"/>
<path d="M2891 4142 c-1 -17 4 -23 16 -20 10 2 18 11 19 21 1 12 1 13 -3 2 -6
-20 -20 -19 -26 3 -3 12 -5 11 -6 -6z"/>
<path d="M8372 4120 c-18 -11 -41 -20 -52 -20 -49 0 -100 -49 -100 -95 0 -35
31 -83 58 -90 26 -6 42 -21 42 -40 0 -5 -5 -4 -12 3 -17 17 -33 15 -18 -3 21
-25 43 -19 38 10 -4 19 -1 25 12 25 9 0 26 9 38 20 13 12 35 20 56 20 67 0
111 93 68 146 -37 47 -80 55 -130 24z"/>
<path d="M2685 4088 c-15 -14 -28 -38 -32 -60 -5 -33 -2 -41 31 -74 34 -34 40
-36 77 -30 35 6 40 4 35 -9 -11 -29 21 -85 56 -99 68 -29 133 13 133 84 0 66
-63 112 -122 89 -22 -8 -23 -6 -23 32 0 29 -7 47 -25 64 -32 33 -93 34 -130 3z"/>
<path d="M3593 4046 c-23 -20 -28 -32 -28 -71 0 -39 5 -51 28 -71 40 -34 90
-32 128 5 86 86 -36 216 -128 137z"/>
<path d="M9680 4030 c0 -5 5 -10 10 -10 6 0 10 5 10 10 0 6 -4 10 -10 10 -5 0
-10 -4 -10 -10z"/>
<path d="M9446 3982 c1 -30 33 -39 42 -12 5 13 3 13 -11 1 -15 -12 -17 -11
-17 7 0 12 -4 23 -8 26 -4 2 -7 -8 -6 -22z"/>
<path d="M6530 3980 c0 -5 5 -10 10 -10 6 0 10 5 10 10 0 6 -4 10 -10 10 -5 0
-10 -4 -10 -10z"/>
<path d="M9405 3949 c-4 -11 -4 -23 -1 -26 9 -9 36 6 35 19 0 10 -2 10 -6 1
-8 -21 -25 -14 -18 7 3 11 4 20 1 20 -2 0 -8 -9 -11 -21z"/>
<path d="M3089 3931 c-62 -62 -23 -161 63 -161 96 0 132 132 47 175 -43 23
-77 18 -110 -14z"/>
<path d="M8240 3855 c0 -11 35 -45 46 -45 15 0 26 28 14 35 -6 4 -10 -2 -10
-11 0 -15 -3 -15 -20 4 -20 21 -30 27 -30 17z"/>
<path d="M3288 3795 c-34 -19 -48 -44 -48 -85 0 -42 15 -67 51 -86 40 -20 82
-11 114 28 33 39 32 80 -2 118 -34 36 -78 46 -115 25z"/>
<path d="M10737 3780 c-71 -56 -25 -170 68 -170 42 0 85 50 85 98 0 79 -90
121 -153 72z"/>
<path d="M3952 3623 c-14 -10 -45 -17 -73 -17 -40 -1 -46 -3 -33 -13 12 -9 13
-16 5 -32 -34 -62 14 -141 85 -141 29 0 43 7 68 33 l30 33 16 -30 c15 -31 15
-31 -15 -41 -19 -6 -36 -23 -48 -47 -16 -34 -17 -39 -2 -73 19 -47 20 -45 -10
-45 -39 0 -75 -42 -75 -87 0 -21 7 -49 16 -61 14 -21 14 -22 -11 -22 -22 0
-25 3 -19 25 14 56 -38 115 -101 115 -33 0 -85 -50 -85 -82 l0 -23 -23 27
c-30 36 -63 51 -96 43 -44 -9 -76 -49 -76 -95 0 -43 21 -72 65 -90 40 -17 101
12 115 55 5 17 10 32 12 34 1 2 14 -11 28 -28 19 -22 36 -31 56 -31 28 0 29
-2 29 -44 0 -26 6 -48 14 -56 19 -15 9 -40 -15 -40 -15 0 -19 7 -19 31 0 20
-10 40 -29 60 -38 37 -88 39 -128 5 -23 -20 -28 -32 -28 -71 0 -39 5 -51 28
-71 17 -15 41 -24 60 -24 29 0 95 35 137 72 11 10 23 10 47 3 27 -9 30 -13 21
-29 -8 -14 -7 -21 3 -28 11 -8 10 -9 -3 -4 -10 3 -18 3 -18 -1 0 -12 84 -83
98 -83 9 0 12 -6 8 -16 -3 -9 -6 -24 -6 -35 0 -15 -7 -19 -36 -19 -26 0 -43
-8 -65 -29 -49 -50 -34 -127 32 -155 21 -9 26 -15 18 -26 -8 -13 -10 -13 -20
0 -10 13 -10 13 -6 0 3 -9 -1 -24 -9 -35 -25 -34 -18 -90 17 -124 26 -27 28
-31 11 -31 -31 0 -71 -38 -78 -74 -6 -34 17 -96 35 -96 5 0 -6 -15 -25 -34
-37 -37 -45 -78 -19 -112 19 -26 19 -34 -4 -34 -28 0 -71 -56 -71 -92 0 -21
10 -40 34 -64 28 -28 31 -36 20 -45 -20 -16 -32 -70 -23 -96 6 -17 3 -23 -21
-33 -60 -25 -80 -105 -37 -151 18 -20 21 -34 19 -75 -3 -47 -1 -53 28 -77 49
-41 115 -34 141 15 13 25 31 93 21 84 -3 -3 -13 8 -23 24 -11 17 -23 30 -29
30 -7 0 -7 7 1 21 6 13 9 38 5 60 -5 33 -4 39 12 39 20 0 62 39 62 58 0 7 9
12 20 12 60 0 108 61 96 120 -3 18 -1 30 5 30 20 0 59 50 59 76 0 25 1 26 18
11 61 -55 162 -10 162 73 0 19 5 30 14 30 8 0 18 5 22 11 4 7 0 9 -14 5 -17
-6 -20 -3 -15 16 4 20 3 21 -7 5 -11 -17 -13 -16 -37 3 -14 11 -41 20 -59 20
-30 0 -34 3 -34 25 0 14 -7 37 -17 51 -15 23 -15 26 0 42 16 15 17 14 17 -12
0 -36 49 -86 85 -86 14 0 39 7 55 15 18 9 30 11 30 5 0 -6 15 -18 34 -27 66
-31 136 14 136 87 0 38 1 40 31 40 17 0 39 5 51 11 26 14 48 67 41 102 -6 31
-55 77 -84 77 -10 0 -19 5 -19 11 0 7 7 8 18 4 47 -18 74 -17 101 2 24 18 30
19 52 7 40 -22 78 -17 110 15 16 16 29 36 29 43 0 8 16 20 35 27 35 12 65 53
65 88 0 10 -9 33 -20 51 -20 32 -20 32 0 52 22 22 34 62 27 89 -3 12 4 28 18
41 13 12 26 33 29 46 5 18 13 24 35 24 35 0 81 49 81 85 0 64 -54 113 -111
101 -22 -4 -29 -1 -34 14 -16 50 -97 77 -141 46 -19 -13 -22 -12 -48 21 -27
33 -31 35 -76 31 -43 -4 -49 -2 -59 19 -13 29 -72 56 -105 47 -14 -3 -32 -14
-42 -25 -22 -24 -30 -24 -37 2 -4 14 1 22 16 28 77 30 85 128 15 171 -37 23
-68 20 -110 -10 -26 -19 -27 -19 -33 0 -19 61 -108 79 -156 31 -86 -87 35
-215 129 -136 l30 25 6 -23 c9 -33 8 -34 -19 -41 -14 -4 -34 -21 -45 -39 -11
-17 -20 -27 -20 -20 0 6 -12 25 -26 42 -21 26 -33 31 -69 31 -36 0 -48 -5 -69
-31 -30 -35 -34 -83 -11 -116 14 -20 13 -21 -20 -25 -29 -3 -34 -1 -29 11 15
36 15 60 0 89 -16 30 -16 31 13 37 65 14 102 109 58 152 -16 16 -15 18 15 28
19 6 40 23 51 43 37 64 -11 142 -87 142 -29 0 -86 -45 -86 -68 0 -10 -6 -5
-16 13 -8 17 -24 37 -36 46 -13 10 -19 23 -15 33 8 19 8 19 -21 -1z m369 -507
c14 -16 10 -26 -10 -26 -33 0 -71 -48 -71 -92 0 -48 43 -98 85 -98 38 0 79 24
93 55 16 34 15 54 -2 87 -14 26 -13 28 9 34 13 3 31 15 41 25 17 19 18 19 39
-8 l22 -27 -31 -21 c-61 -41 -70 -102 -21 -151 34 -34 97 -33 130 1 30 29 35
104 10 125 -20 17 -19 27 6 33 15 4 22 -1 29 -19 5 -13 21 -29 34 -35 l25 -12
-30 -29 c-21 -22 -29 -39 -29 -65 0 -32 -2 -35 -25 -29 -29 7 -89 -15 -102
-38 -7 -14 -12 -10 -26 19 -37 78 -140 78 -173 0 -8 -19 -12 -46 -8 -59 5 -21
3 -24 -15 -19 -22 6 -27 18 -11 28 6 3 10 23 10 44 0 49 -30 88 -75 97 -30 5
-33 9 -25 24 15 28 12 73 -6 98 -14 21 -14 22 6 22 34 0 80 29 92 58 10 24 12
25 16 7 2 -11 8 -24 13 -29z m-291 -65 c-29 -55 6 -125 70 -138 24 -4 29 -9
24 -22 -21 -47 -16 -80 14 -111 17 -16 40 -30 51 -30 21 0 28 -14 12 -24 -14
-9 -19 -57 -9 -88 6 -16 23 -35 39 -44 29 -14 29 -15 12 -41 l-17 -26 -9 32
c-5 20 -19 39 -37 49 -20 12 -28 22 -23 32 18 42 14 77 -12 108 -14 17 -34 34
-45 37 -16 5 -17 10 -10 31 6 14 7 36 4 50 -8 30 -59 74 -86 74 -17 0 -19 5
-13 29 4 19 1 41 -9 60 -16 29 -15 30 12 34 15 2 31 5 35 6 4 0 3 -8 -3 -18z
m790 -55 c0 -8 11 -23 24 -33 20 -16 22 -22 11 -36 -15 -21 -25 -22 -25 -2 0
8 -13 24 -30 36 -27 20 -28 23 -12 35 22 17 32 17 32 0z m8 -180 c-20 -15 -38
-50 -38 -76 0 -17 -3 -19 -19 -10 -11 5 -31 10 -44 10 -20 0 -26 6 -29 30 -4
29 -3 30 27 24 37 -7 89 15 100 43 6 14 8 15 13 4 2 -8 -2 -19 -10 -25z m-304
-105 c6 -8 1 -10 -17 -6 -29 8 -82 -17 -97 -44 -15 -28 -12 -83 5 -108 20 -29
75 -46 107 -34 59 22 85 93 51 141 -16 22 -16 23 1 17 10 -4 24 -7 31 -7 7 0
16 -15 19 -34 6 -34 54 -86 78 -86 6 0 9 -2 6 -5 -3 -3 -21 2 -41 10 -33 14
-41 14 -72 1 -22 -10 -40 -26 -48 -45 -10 -24 -16 -28 -31 -19 -10 5 -35 8
-56 6 -37 -3 -40 -1 -54 34 -8 21 -25 43 -39 49 l-24 11 19 36 c11 22 16 47
13 62 -5 24 -3 25 36 25 35 0 46 6 68 33 l26 32 6 -28 c3 -16 9 -34 13 -41z
m301 -51 c3 -5 1 -10 -4 -10 -6 0 -11 5 -11 10 0 6 2 10 4 10 3 0 8 -4 11 -10z
m-763 -197 c12 -13 27 -23 35 -23 17 0 16 -5 -3 -35 -10 -15 -15 -38 -12 -60
2 -19 0 -35 -5 -35 -5 0 -22 -13 -37 -30 l-28 -30 -23 20 -24 19 27 1 c32 0
78 51 78 85 0 55 -48 104 -102 105 -21 1 -20 2 8 14 18 8 35 20 39 27 6 9 11
5 17 -12 5 -13 19 -34 30 -46z m172 -5 c6 -12 25 -32 43 -43 28 -20 29 -23 13
-33 -14 -9 -20 -6 -31 15 -7 13 -26 31 -41 39 -24 13 -26 17 -16 34 14 21 16
20 32 -12z m237 -162 c-9 -11 -9 -20 -2 -35 14 -25 14 -31 1 -31 -5 0 -10 8
-10 18 -1 16 -1 16 -11 0 -5 -10 -17 -18 -25 -18 -13 0 -13 3 0 22 9 12 16 30
16 40 0 12 8 18 21 18 18 0 19 -3 10 -14z m-231 -62 c-34 -29 -40 -30 -40 -3
0 11 10 29 23 39 20 17 23 17 34 3 10 -12 7 -20 -17 -39z m-196 -93 c3 -5 -1
-14 -8 -21 -8 -6 -18 -25 -22 -42 l-6 -31 -17 22 c-17 22 -17 24 8 51 29 30
37 34 45 21z m6 -164 c0 -3 -10 -7 -23 -9 -20 -4 -23 -1 -19 24 4 29 5 29 23
9 11 -11 19 -22 19 -24z m90 -27 c0 -5 -2 -10 -4 -10 -3 0 -8 5 -11 10 -3 6
-1 10 4 10 6 0 11 -4 11 -10z m-174 -70 c1 -54 -11 -68 -18 -22 -3 15 -8 34
-12 44 -5 11 -2 18 11 21 10 3 18 5 18 6 0 0 0 -22 1 -49z"/>
<path d="M3666 3564 c-50 -51 -24 -144 45 -159 93 -21 156 89 90 156 -40 39
-97 41 -135 3z"/>
<path d="M9953 3505 c-29 -20 -46 -75 -34 -107 13 -35 58 -68 92 -68 36 0 86
42 94 80 7 33 -15 84 -44 100 -28 15 -83 12 -108 -5z"/>
<path d="M6650 3462 c0 -7 -6 -12 -13 -12 -23 0 -38 -22 -26 -37 14 -16 29
-17 29 -2 0 5 -4 7 -10 4 -19 -12 -10 7 13 25 12 10 19 22 15 26 -5 4 -8 2 -8
-4z"/>
<path d="M10493 3453 c-35 -7 -63 -50 -63 -98 0 -35 -4 -44 -26 -53 -14 -7
-32 -28 -40 -47 -12 -30 -12 -40 -1 -67 18 -42 37 -58 79 -64 27 -5 41 -1 66
21 18 15 32 34 32 42 0 10 6 14 20 10 20 -5 20 -5 0 20 -23 30 -26 53 -6 53
23 0 66 59 66 91 0 56 -67 104 -127 92z"/>
<path d="M6671 3431 c-8 -5 -11 -16 -8 -25 7 -18 23 -21 32 -6 3 6 -1 10 -11
10 -13 0 -14 3 -4 15 14 17 11 19 -9 6z"/>
<path d="M3801 3394 c-26 -21 -31 -33 -31 -69 0 -57 36 -95 92 -95 96 0 132
132 47 175 -41 22 -74 18 -108 -11z"/>
<path d="M3596 3339 c-48 -57 -24 -137 48 -155 56 -14 116 38 116 100 0 13
-12 38 -26 55 -21 26 -33 31 -69 31 -36 0 -48 -5 -69 -31z"/>
<path d="M10030 3259 c-77 -30 -80 -138 -4 -174 48 -23 97 -6 122 42 26 49 2
114 -49 132 -37 13 -36 13 -69 0z"/>
<path d="M11236 3169 c-81 -96 51 -213 140 -124 37 37 29 108 -15 142 -9 7
-35 13 -58 13 -34 0 -46 -5 -67 -31z"/>
<path d="M11461 3096 c-86 -48 -52 -176 47 -176 86 0 125 99 63 161 -32 32
-70 37 -110 15z"/>
<path d="M10247 3065 c-54 -30 -62 -101 -18 -146 62 -61 161 -20 161 66 0 70
-80 115 -143 80z"/>
<path d="M3846 2853 c-13 -13 -20 -15 -23 -5 -3 6 -11 12 -19 12 -9 0 -12 -4
-9 -10 3 -5 0 -10 -8 -10 -8 0 -26 -12 -41 -26 -38 -38 -36 -95 3 -135 17 -17
40 -29 55 -29 90 0 138 99 78 160 -21 21 -26 33 -20 44 12 21 7 20 -16 -1z"/>
<path d="M11104 2790 c-57 -23 -73 -112 -29 -155 33 -34 93 -34 132 -1 57 49
25 148 -52 161 -16 2 -40 0 -51 -5z"/>
<path d="M11471 2759 c-1 -17 -57 -73 -81 -82 -10 -4 -7 -6 8 -6 17 -1 22 -7
22 -27 0 -26 -1 -26 -25 -10 -36 24 -87 20 -119 -9 -14 -13 -26 -29 -26 -35 0
-6 -5 -8 -11 -5 -19 13 -81 7 -97 -8 -13 -14 -18 -12 -47 19 -18 19 -42 34
-54 34 -15 0 -21 6 -21 20 0 35 -28 77 -59 90 -63 26 -131 -22 -131 -91 0 -37
-2 -39 -31 -39 -20 0 -40 -10 -60 -29 -32 -32 -37 -70 -16 -111 12 -23 11 -28
-21 -57 -18 -17 -31 -25 -28 -17 11 29 -21 84 -58 99 -85 36 -172 -62 -118
-134 19 -26 19 -27 1 -50 -28 -35 -25 -87 9 -120 24 -24 27 -34 24 -74 -4 -41
0 -50 26 -77 34 -33 67 -38 111 -16 26 14 51 53 51 81 0 9 9 6 26 -10 38 -35
87 -34 125 4 50 51 34 135 -31 156 l-20 6 20 26 c23 30 26 81 6 108 -12 17
-10 22 20 51 28 26 34 39 34 72 0 33 3 40 15 36 8 -4 15 -16 15 -29 0 -12 9
-34 21 -49 l20 -26 -24 0 c-31 0 -77 -52 -77 -86 0 -32 16 -64 42 -85 17 -13
18 -20 9 -37 -33 -62 13 -142 84 -142 55 0 98 47 93 99 l-3 39 28 -14 c26 -14
27 -16 12 -37 -25 -36 -19 -84 14 -118 38 -37 87 -39 128 -5 28 24 29 24 52 5
13 -10 32 -19 42 -19 20 0 26 -15 9 -25 -5 -3 -10 -23 -10 -44 0 -76 72 -121
139 -87 17 9 31 21 31 27 0 6 14 -1 31 -15 66 -55 159 -16 159 67 0 30 4 37
20 37 77 0 128 94 81 151 -19 23 -19 24 0 48 46 58 -4 151 -81 151 -16 0 -17
3 -7 29 23 62 -34 128 -103 118 -33 -4 -41 -1 -60 26 -20 26 -21 32 -8 41 44
33 49 93 10 137 -21 23 -37 31 -64 32 -25 1 -39 6 -41 16 -4 15 -5 14 -6 0z
m-15 -196 c-7 -7 -26 7 -26 19 0 6 6 6 15 -2 9 -7 13 -15 11 -17z m-46 -98 c0
-8 -6 -15 -14 -15 -20 0 -29 17 -14 23 22 9 28 7 28 -8z m-300 -5 c0 -6 12
-22 26 -35 25 -23 25 -25 7 -25 -11 0 -33 -12 -47 -27 -23 -23 -27 -35 -24
-69 3 -37 1 -40 -15 -30 -10 7 -15 17 -11 26 16 35 15 88 -1 114 -17 25 -17
26 5 26 12 0 31 -5 43 -11 21 -12 21 -11 4 8 -9 11 -14 23 -10 26 10 10 23 8
23 -3z m203 4 c3 -3 -7 -17 -24 -31 -16 -14 -29 -31 -29 -38 0 -19 -23 -25
-44 -9 -17 12 -16 14 17 28 20 8 40 24 47 35 11 21 22 26 33 15z m155 -73 c10
-6 10 -10 -1 -20 -12 -9 -16 -7 -20 9 -5 21 0 25 21 11z m-773 -111 c10 -11
26 -22 37 -26 17 -5 18 -8 5 -22 -9 -10 -18 -29 -22 -44 -7 -27 -8 -27 -30
-10 -20 15 -23 23 -18 59 4 31 1 50 -11 68 -14 22 -15 29 -4 42 11 14 13 12
19 -16 4 -18 15 -41 24 -51z m595 3 c0 -7 6 -10 14 -7 22 8 30 -45 10 -67 -15
-17 -18 -17 -40 -1 -23 17 -33 52 -15 52 5 0 12 -8 14 -17 4 -14 5 -12 6 5 0
12 -3 22 -9 22 -5 0 -10 14 -10 32 0 30 1 31 15 12 8 -10 15 -24 15 -31z m373
-7 c-4 -31 0 -51 13 -72 l18 -29 -30 26 c-16 14 -37 29 -47 32 -15 6 -16 10
-7 28 7 12 10 30 7 40 -4 15 0 19 23 19 27 0 27 -1 23 -44z m-228 -22 c9 -23
25 -40 43 -46 27 -11 29 -14 24 -54 -5 -48 14 -88 47 -99 12 -4 18 -12 14 -21
-4 -11 -11 -9 -35 11 -16 14 -39 25 -50 25 -15 0 -18 4 -12 18 4 9 9 34 12 54
3 32 -1 42 -27 69 -27 26 -37 30 -71 27 -22 -2 -40 -3 -40 -2 0 1 -3 9 -6 18
-5 12 1 16 22 16 16 0 36 5 44 10 8 5 16 10 17 10 2 0 9 -16 18 -36z"/>
<path d="M8115 2730 c-3 -5 -1 -10 4 -10 6 0 11 5 11 10 0 6 -2 10 -4 10 -3 0
-8 -4 -11 -10z"/>
<path d="M7996 2694 c-30 -31 -35 -86 -11 -121 15 -21 14 -23 -13 -37 -87 -45
-51 -176 48 -176 73 0 117 87 75 147 -15 21 -14 23 13 37 15 8 33 26 40 41 15
32 16 82 2 90 -6 4 -8 11 -5 16 8 13 -39 29 -84 29 -28 0 -45 -7 -65 -26z"/>
<path d="M4358 2045 c2 -14 9 -28 14 -31 13 -8 39 16 31 29 -4 6 -9 3 -14 -9
-6 -15 -8 -15 -8 -3 -1 9 -7 22 -15 28 -11 9 -12 6 -8 -14z"/>
<path d="M11590 1829 c-52 -21 -75 -82 -48 -132 18 -34 40 -46 83 -46 43 0 65
12 83 46 26 49 2 114 -49 132 -37 13 -36 13 -69 0z"/>
<path d="M12475 1807 c-18 -15 -28 -36 -32 -64 -5 -37 -2 -45 25 -73 42 -41
92 -42 133 -1 84 85 -36 216 -126 138z"/>
<path d="M3925 1501 c18 -8 18 -10 3 -16 -9 -3 -19 -13 -22 -21 -4 -11 0 -11
20 2 28 19 27 38 -2 41 -18 3 -18 2 1 -6z"/>
<path d="M3960 1481 c0 -5 6 -12 13 -14 9 -4 9 -6 -1 -6 -16 -1 -48 -31 -33
-31 5 0 13 5 16 10 4 6 10 8 14 6 4 -3 13 -1 21 4 11 7 11 11 1 24 -15 18 -31
21 -31 7z"/>
<path d="M3990 1415 c14 -17 13 -17 -9 -10 -16 5 -21 4 -17 -4 4 -6 16 -11 27
-11 24 0 23 30 -1 38 -13 5 -13 3 0 -13z"/>
<path d="M11030 872 c-23 -24 -30 -39 -30 -70 0 -50 -24 -64 -38 -23 -26 74
-110 96 -160 43 l-27 -28 -23 28 c-18 21 -32 28 -61 28 -20 0 -46 -6 -57 -14
-19 -13 -23 -12 -48 15 -34 35 -90 40 -127 10 -22 -17 -27 -17 -44 -5 -31 23
-92 18 -120 -11 -14 -13 -25 -31 -25 -40 0 -8 -4 -15 -10 -15 -5 0 -10 6 -10
14 0 8 -14 26 -31 40 -25 22 -40 26 -76 24 -42 -3 -46 -6 -60 -40 l-15 -37
-24 28 c-13 16 -36 31 -51 34 -38 7 -91 -17 -104 -47 l-12 -25 -27 29 c-34 37
-93 41 -132 10 -14 -10 -29 -16 -33 -12 -5 4 -5 -1 -2 -10 4 -12 1 -18 -8 -18
-12 0 -12 -4 1 -27 7 -16 14 -33 14 -40 0 -21 61 -63 90 -63 34 0 104 55 93
74 -3 6 7 -2 23 -19 16 -16 29 -32 28 -35 -1 -3 15 -5 36 -5 l38 1 -19 -25
c-27 -34 -24 -83 8 -121 24 -29 31 -32 72 -28 l46 5 0 -54 c0 -61 -7 -67 -26
-22 -27 66 -128 72 -165 10 -12 -20 -23 -27 -35 -24 -26 7 -24 20 6 27 26 7
55 51 55 86 0 12 -7 34 -15 51 -9 16 -13 35 -9 41 4 6 3 8 -4 4 -6 -3 -13 -2
-16 3 -3 5 1 12 10 15 9 4 15 9 12 11 -9 10 -38 -7 -38 -21 0 -8 -5 -14 -11
-14 -6 0 -9 6 -6 14 3 8 -15 3 -49 -14 -49 -25 -54 -26 -54 -10 0 24 -56 70
-85 70 -38 0 -75 -21 -91 -52 l-15 -28 -21 20 c-29 27 -87 26 -122 -1 -14 -11
-26 -26 -26 -33 0 -9 -15 -11 -54 -8 -34 3 -56 0 -60 -7 -5 -8 -17 -2 -34 17
-15 16 -33 31 -41 33 -12 4 -11 10 4 32 47 73 -37 167 -120 133 -40 -17 -55
-42 -55 -91 0 -32 -2 -35 -19 -25 -46 24 -104 3 -130 -47 -10 -20 -13 -21 -39
-7 -15 7 -38 14 -52 14 -21 0 -25 5 -25 30 0 20 7 33 21 41 45 24 58 99 24
142 -56 70 -170 25 -170 -68 0 -36 -15 -31 -17 7 -7 102 -162 111 -187 12 -4
-14 -11 -22 -16 -19 -6 3 -10 1 -10 -4 0 -6 7 -11 15 -11 25 0 17 -27 -10 -34
-26 -7 -65 -58 -65 -86 0 -8 7 -28 15 -44 19 -36 19 -36 -9 -36 -53 0 -94 -88
-65 -142 14 -26 -3 -47 -25 -29 -9 8 -12 24 -9 50 3 21 0 48 -6 60 -10 18 -9
21 7 21 26 0 70 42 78 76 5 20 1 39 -13 66 l-21 37 34 7 c19 3 34 10 34 15 0
5 6 9 14 9 9 0 14 15 15 51 1 44 -3 55 -28 80 -84 83 -213 -32 -140 -125 16
-20 17 -26 6 -26 -9 0 -22 -3 -30 -6 -13 -4 -14 2 -10 35 5 35 2 44 -25 71
-43 43 -100 43 -136 -1 -14 -17 -26 -34 -26 -39 0 -5 -13 5 -29 21 -22 21 -39
29 -66 29 -27 0 -44 -8 -66 -29 -16 -16 -29 -36 -29 -44 0 -11 -10 -13 -44
-10 -38 5 -48 2 -71 -21 -31 -31 -35 -32 -35 -6 0 35 -44 70 -88 70 -77 0
-126 -77 -87 -137 16 -24 16 -26 0 -20 -9 4 -26 7 -38 7 -18 0 -22 6 -23 32
-2 41 -52 88 -93 88 -60 0 -118 -80 -92 -129 13 -23 -4 -34 -31 -19 -14 6 -16
5 -12 -7 4 -9 1 -15 -7 -15 -17 -1 -54 -31 -60 -48 -3 -9 -13 -4 -29 14 l-25
27 32 -5 c18 -2 31 -2 28 0 -2 3 7 14 21 25 36 28 47 62 34 103 -15 44 -45 64
-93 64 -31 0 -45 -7 -68 -31 -16 -17 -29 -26 -29 -20 0 18 -67 42 -95 35 -14
-3 -37 -20 -50 -36 l-26 -31 -22 21 c-33 30 -61 35 -103 17 -28 -11 -40 -12
-50 -4 -10 8 -14 8 -14 0 0 -6 5 -11 11 -11 5 0 8 -4 4 -10 -3 -5 -13 -7 -23
-4 -14 5 -14 4 -3 -4 8 -6 15 -20 16 -31 1 -17 -3 -20 -24 -15 l-26 5 26 -15
c44 -26 42 -41 -5 -41 -42 0 -42 0 -32 27 7 19 6 34 -2 53 -7 15 -9 32 -6 38
4 7 4 9 -1 5 -4 -4 -17 -1 -29 7 -68 48 -170 -22 -147 -102 8 -28 7 -32 -15
-36 -21 -4 -24 -2 -17 17 14 41 5 80 -27 109 -40 36 -80 35 -122 -2 -27 -24
-33 -36 -32 -70 1 -26 -3 -41 -11 -41 -18 0 -53 -42 -61 -74 -7 -30 -7 -30
-16 -6 -7 18 -5 26 7 32 25 15 47 67 40 97 -14 64 -103 100 -150 61 -30 -25
-46 -75 -35 -106 7 -19 7 -30 -1 -40 -17 -20 -26 -17 -33 11 -7 28 -52 55 -91
55 -41 0 -85 -50 -85 -97 1 -43 15 -66 53 -86 16 -8 23 -18 18 -25 -6 -10 -14
-9 -37 3 -16 8 -34 15 -40 15 -7 0 -15 16 -18 35 -20 103 -178 97 -188 -8 -2
-21 -9 -33 -20 -35 -15 -3 -18 4 -18 36 0 33 -6 45 -31 66 -44 38 -92 35 -131
-6 -26 -28 -29 -38 -24 -74 5 -37 3 -42 -19 -52 -21 -10 -28 -8 -49 13 -32 32
-69 40 -107 25 -39 -17 -59 -46 -59 -88 0 -69 91 -118 146 -78 17 13 22 12 46
-15 40 -43 99 -43 139 0 l27 29 21 -21 c50 -51 152 -10 155 62 1 23 6 31 19
31 10 0 16 -4 12 -10 -3 -5 1 -25 9 -45 11 -25 26 -40 51 -51 41 -17 69 -12
103 19 l22 20 23 -20 c31 -28 65 -34 103 -18 38 16 54 41 54 88 0 21 6 37 14
40 11 4 13 -3 9 -32 -4 -30 0 -43 22 -69 23 -27 33 -32 71 -32 34 0 51 6 69
25 14 13 25 28 25 34 0 5 13 -4 29 -20 64 -64 168 -18 159 70 -3 33 0 41 13
41 25 0 76 46 83 74 3 14 2 36 -3 49 -8 20 -6 26 7 29 14 4 17 -4 17 -53 1
-52 -2 -58 -22 -64 -29 -7 -56 -48 -59 -90 -6 -75 103 -120 160 -66 l25 24 31
-27 c41 -34 81 -34 121 2 26 23 32 36 32 70 0 27 4 42 12 42 9 0 11 -13 8 -45
-5 -39 -2 -47 25 -75 77 -77 203 14 152 111 -10 17 -7 19 20 19 27 0 30 -2 20
-19 -26 -50 -6 -105 47 -127 88 -37 158 45 118 138 -5 14 -2 18 13 18 17 0 20
-6 20 -46 -1 -36 4 -51 25 -72 70 -70 187 1 157 94 -14 41 -44 64 -85 64 -29
0 -30 1 -27 39 2 21 -1 48 -7 60 -11 19 -9 21 19 21 19 0 29 -4 25 -10 -10
-17 15 -79 38 -95 35 -24 94 -19 124 11 14 14 26 24 27 22 0 -2 6 -13 13 -25
11 -19 9 -22 -15 -28 -15 -3 -37 -16 -49 -27 -20 -18 -25 -19 -39 -7 -16 13
-16 12 -6 -8 15 -27 15 -88 1 -114 -9 -18 -8 -19 10 -7 16 10 23 9 38 -4 25
-23 67 -32 91 -19 14 7 28 7 51 -2 24 -9 38 -9 62 0 27 10 34 9 52 -8 42 -39
127 -17 148 38 l10 26 25 -24 c18 -17 37 -24 66 -24 34 0 45 6 69 35 27 32 29
33 29 11 0 -32 52 -81 87 -81 15 0 43 9 61 20 17 11 32 16 32 11 0 -11 47 -31
74 -31 13 0 35 9 49 20 29 23 46 25 81 9 32 -15 71 -4 103 27 l25 25 19 -20
c39 -41 103 -39 141 4 l22 25 23 -22 c33 -31 93 -31 126 0 23 22 24 22 41 3
34 -38 119 -29 144 16 10 17 11 16 21 -8 23 -62 111 -80 158 -33 22 22 25 32
21 74 -5 46 -4 48 29 64 18 9 38 27 44 40 10 21 15 23 35 14 35 -16 85 2 109
38 21 31 21 31 44 13 28 -23 83 -25 115 -4 21 14 23 13 39 -20 10 -22 26 -37
43 -41 l26 -7 -39 -21 -38 -22 -17 27 c-18 30 -66 50 -100 42 -28 -7 -68 -42
-68 -60 0 -18 -5 -17 -36 12 -36 33 -83 33 -123 -1 -26 -21 -31 -33 -31 -69 0
-36 5 -48 31 -69 40 -34 91 -35 123 -3 13 13 25 30 28 38 4 11 11 9 32 -11 33
-30 94 -34 123 -7 24 21 33 22 33 3 0 -25 50 -56 90 -56 30 0 44 7 67 33 26
30 32 32 81 29 35 -3 52 -8 52 -17 0 -8 11 -26 24 -42 48 -56 145 -26 162 51
6 28 7 29 15 10 11 -32 58 -64 91 -64 21 0 41 11 64 34 19 19 34 28 34 21 0
-8 12 -27 26 -44 21 -26 33 -31 69 -31 36 0 48 5 69 31 17 19 26 43 26 64 0
46 25 53 57 15 13 -17 31 -30 39 -30 9 0 13 -4 9 -9 -3 -6 7 -6 26 -1 18 5 36
7 42 3 6 -3 7 -1 3 5 -4 7 -3 12 2 12 15 0 35 -47 26 -61 -6 -10 -10 -7 -15
11 l-7 25 -1 -26 c-1 -15 -8 -30 -17 -33 -24 -9 -28 -7 -14 9 7 9 8 15 2 15
-15 0 -24 -32 -13 -43 7 -7 16 -6 28 5 10 8 26 18 36 21 9 4 17 13 17 21 0 12
5 13 29 5 23 -8 38 -7 63 5 31 15 37 15 66 0 27 -13 38 -13 68 -4 19 7 40 20
46 30 11 17 14 16 41 -11 40 -40 97 -41 137 0 l29 28 23 -24 c19 -21 31 -24
70 -21 44 3 49 1 59 -25 13 -32 55 -57 94 -57 30 0 85 49 85 75 0 13 5 15 23
8 35 -12 85 -8 104 9 17 15 20 15 42 -3 30 -24 82 -24 112 0 23 18 23 18 50
-10 22 -23 36 -29 70 -29 26 0 50 -7 62 -17 12 -12 32 -17 58 -15 41 2 71 2
129 0 84 -4 121 83 64 151 -21 26 -33 31 -69 31 -24 0 -47 -5 -50 -10 -4 -7
-12 -7 -25 0 -10 5 -36 10 -58 10 -22 0 -44 6 -50 13 -8 10 -2 12 28 9 33 -3
44 1 70 26 39 39 41 88 5 130 -21 25 -23 31 -11 42 12 9 21 7 45 -11 23 -17
38 -20 65 -16 29 5 36 3 37 -11 1 -9 6 -2 12 17 6 19 26 50 45 69 27 27 30 33
14 28 -18 -6 -24 -1 -36 28 -17 41 -42 56 -91 56 -25 0 -43 -8 -61 -25 l-25
-25 -29 21 c-33 25 -89 22 -120 -6 -21 -19 -30 -19 -30 -1 0 25 -50 56 -90 56
-27 0 -45 -7 -61 -24 l-23 -24 -32 34 c-37 40 -86 46 -126 14 l-25 -19 -12 25
c-6 14 -27 32 -47 40 -33 14 -39 14 -74 -4 l-37 -18 -33 29 c-33 29 -66 33
-112 13 -11 -5 -18 -1 -23 13 -8 25 -53 51 -88 51 -14 0 -35 -9 -48 -19 -22
-17 -26 -18 -41 -4 -9 8 -35 17 -57 20 -35 5 -44 2 -71 -25z m-751 -153 c1 -4
-10 -9 -22 -11 -23 -5 -23 -4 -9 26 14 27 16 28 23 10 4 -10 8 -22 8 -25z
m905 12 c3 -4 -3 -16 -14 -26 -23 -21 -28 -93 -8 -113 9 -9 9 -12 1 -12 -7 0
-15 5 -18 10 -3 6 -15 10 -26 10 -19 0 -19 1 -5 22 9 12 16 38 16 57 0 41 38
78 54 52z m-1097 -21 c16 -24 70 -40 101 -29 22 8 22 8 7 -21 -19 -37 -19 -53
0 -90 15 -28 14 -30 -4 -30 -11 0 -26 -3 -34 -6 -12 -4 -14 3 -10 38 7 57 -22
95 -77 104 -39 6 -39 7 -22 30 21 29 24 29 39 4z m1273 -40 c26 -14 70 -12
100 4 22 13 27 12 58 -15 18 -16 42 -29 53 -29 20 0 20 -1 -3 -28 l-23 -28
-13 25 c-19 36 -43 50 -85 51 -29 0 -45 -7 -68 -29 -16 -16 -29 -36 -29 -44 0
-11 -7 -13 -21 -10 -18 5 -19 8 -8 17 19 15 21 72 4 107 -19 37 -19 52 1 17 8
-15 23 -32 34 -38z m-906 44 c14 -5 12 -11 -10 -37 -21 -25 -25 -38 -21 -68 5
-35 3 -37 -27 -41 -31 -3 -31 -3 -27 40 2 24 -2 49 -9 57 -10 12 -9 15 8 15
11 0 30 9 43 20 28 23 24 21 43 14z m146 -4 c0 -6 16 -20 35 -31 l35 -21 -20
-25 c-68 -87 59 -201 141 -127 15 13 18 11 29 -16 7 -17 22 -36 33 -42 18 -9
18 -11 4 -19 -11 -7 -23 -2 -41 16 -19 19 -35 25 -69 25 -23 0 -48 -5 -55 -12
-9 -9 -12 -9 -12 0 0 7 -11 24 -25 37 -37 38 -108 31 -142 -14 -11 -14 -12
-13 -13 5 0 16 11 26 41 38 23 9 51 14 63 11 19 -5 19 -5 4 8 -11 9 -14 18 -7
28 15 25 10 75 -12 103 -11 14 -17 30 -14 36 8 13 25 13 25 0z m246 -46 c15
-4 41 -2 58 4 16 7 30 11 31 9 0 -1 5 -16 11 -32 l10 -30 -39 4 c-28 2 -47 -2
-68 -18 -28 -21 -29 -21 -29 -3 0 22 -46 72 -67 72 -11 0 -10 5 4 24 l18 24
22 -24 c12 -13 34 -26 49 -30z m-2732 -19 l46 0 0 -40 c0 -23 4 -45 10 -51 6
-6 -3 -13 -25 -20 -35 -11 -35 -11 -35 21 0 43 -33 83 -75 91 -31 5 -33 8 -23
29 l10 23 23 -26 c19 -22 32 -27 69 -27z m476 -1 c0 -14 5 -34 10 -45 9 -16 7
-19 -9 -19 -12 0 -35 -13 -52 -28 -33 -29 -41 -65 -26 -109 6 -16 4 -23 -4
-23 -7 0 -26 -12 -42 -27 l-29 -28 21 35 c25 42 27 77 5 108 -14 20 -14 22 5
22 11 0 33 12 50 26 26 22 31 33 31 70 0 37 3 44 20 44 15 0 20 -7 20 -26z
m3082 4 c15 -23 15 -23 -31 -19 -37 3 -42 5 -25 12 12 4 25 12 29 18 9 15 11
14 27 -11z m251 -63 l37 -10 -22 -19 c-16 -14 -23 -16 -26 -6 -8 23 -42 51
-72 56 -28 6 -29 7 -12 28 l16 23 21 -31 c13 -19 35 -34 58 -41z m-4234 13 c1
-5 -10 -8 -24 -8 -26 0 -26 0 -8 24 16 21 19 22 25 8 4 -10 7 -20 7 -24z m236
22 c23 0 23 -1 8 -30 -9 -19 -12 -41 -9 -57 l7 -25 -27 21 c-15 12 -38 21 -52
21 l-25 0 21 23 c12 13 22 31 22 41 0 12 5 16 16 12 9 -3 26 -6 39 -6z m4139
-50 l21 -25 -22 19 c-13 10 -37 18 -60 18 l-38 0 28 14 c15 8 27 20 27 27 0 7
6 3 12 -8 6 -11 20 -31 32 -45z m-2966 32 c10 -7 9 -15 -4 -40 -38 -77 33
-156 119 -131 20 5 35 5 41 -1 7 -7 4 -10 -7 -10 -9 0 -31 -13 -50 -29 l-33
-30 -11 29 c-13 35 -70 65 -105 57 -13 -4 -33 -15 -45 -27 -15 -13 -24 -16
-29 -9 -3 6 -22 17 -40 25 -29 12 -39 12 -68 0 -19 -8 -40 -23 -47 -34 -11
-18 -13 -18 -38 6 -20 18 -34 23 -63 20 -21 -2 -38 -3 -38 -2 0 0 5 15 11 32
9 25 7 38 -5 63 -20 40 -20 39 4 39 16 0 20 -7 20 -36 0 -49 45 -94 93 -94 38
0 82 29 92 60 6 19 8 19 28 5 33 -23 81 -19 116 11 25 21 31 33 31 65 0 40 5
45 28 31z m2656 -23 c-10 -11 -18 -18 -19 -17 -1 2 -7 12 -13 24 -10 19 -8 20
19 16 29 -4 29 -5 13 -23z m-4695 7 c9 -11 6 -14 -18 -18 -26 -4 -28 -2 -17
14 13 22 20 22 35 4z m-185 -11 c4 -10 -1 -15 -14 -15 -13 0 -18 5 -14 15 4 8
10 15 14 15 4 0 10 -7 14 -15z m708 7 c14 -6 15 -9 2 -26 -7 -11 -15 -18 -16
-15 -31 50 -29 58 14 41z m3448 -11 c0 -3 -7 -15 -15 -25 -12 -16 -15 -17 -15
-4 0 9 -3 23 -6 31 -4 12 0 14 15 10 12 -3 21 -8 21 -12z m179 -38 c-12 -13
-14 -13 -20 4 -12 30 -10 34 12 23 17 -10 18 -14 8 -27z m-4235 -6 c-11 -12
-19 -23 -20 -25 -1 -1 -8 8 -16 20 -15 22 -14 23 19 25 35 2 35 2 17 -20z
m-632 -17 c-8 -21 -9 -22 -16 -5 -4 11 -2 22 6 26 17 11 20 6 10 -21z m1447
18 c-8 -7 -20 -20 -26 -27 -11 -13 -13 -11 -13 12 0 23 4 27 27 27 22 0 24 -2
12 -12z m-1016 -23 c-3 -11 -5 -35 -5 -52 1 -26 -3 -33 -18 -33 -23 0 -37 20
-20 30 9 5 9 17 2 43 -10 36 -10 36 19 34 24 -2 28 -5 22 -22z m3542 -30 c0
-37 -4 -55 -12 -55 -8 0 -13 12 -13 28 0 15 -7 37 -15 49 -14 20 -14 22 12 26
16 2 28 5 28 6 0 0 0 -24 0 -54z m1235 25 c9 -17 7 -22 -14 -30 -14 -5 -32
-20 -41 -34 -16 -25 -18 -25 -47 -10 -17 9 -39 13 -50 11 -15 -4 -19 -1 -16
16 2 14 9 20 18 17 8 -2 33 -4 54 -4 30 0 44 6 60 26 26 33 23 32 36 8z m-529
-44 c14 -15 11 -26 -6 -26 -8 0 -24 -6 -35 -12 -16 -10 -23 -10 -37 5 -16 16
-16 17 0 17 9 0 27 14 39 31 19 26 24 28 26 12 2 -10 8 -22 13 -27z m747 -22
c9 -7 26 -14 37 -14 12 0 16 -3 9 -10 -6 -6 -23 -3 -50 10 -31 15 -47 18 -71
11 -17 -5 -34 -7 -37 -3 -12 11 -5 20 19 26 14 4 30 15 37 25 11 18 12 18 25
-6 7 -15 21 -32 31 -39z m-3743 19 c50 19 55 19 55 -6 0 -23 -3 -24 -45 -19
-52 5 -90 -14 -106 -55 -7 -19 -13 -23 -21 -15 -8 8 -6 15 6 28 24 23 36 58
29 82 l-5 21 38 -20 c22 -10 43 -18 49 -16z m-1685 -9 c0 -7 -8 -14 -19 -17
-16 -4 -17 -1 -8 24 11 27 26 23 27 -7z m-198 -25 c-22 -8 -21 -9 -15 25 l6
29 13 -24 c11 -21 10 -25 -4 -30z m1028 -1 c0 -4 -9 -8 -21 -8 -15 0 -19 4
-15 16 3 9 6 21 6 27 1 13 30 -22 30 -35z m597 -11 l14 -29 -30 23 c-25 18
-28 24 -18 40 8 13 13 15 16 7 2 -7 10 -26 18 -41z m3436 39 c4 -9 -2 -17 -13
-21 -11 -3 -28 -17 -39 -31 -19 -24 -20 -24 -30 -6 -8 16 -5 21 25 35 18 9 34
21 34 27 0 15 17 12 23 -4z m766 -46 c16 -8 20 -15 12 -23 -7 -7 -16 -3 -31
15 -11 14 -31 29 -46 32 -22 6 -24 9 -13 22 11 13 15 12 33 -10 12 -13 32 -29
45 -36z m-4999 19 c0 -5 -4 -9 -10 -9 -5 0 -10 7 -10 16 0 8 5 12 10 9 6 -3
10 -10 10 -16z m-1056 -4 c-17 -8 -36 -21 -43 -29 -15 -18 -31 -21 -31 -6 0
15 61 50 85 49 15 0 13 -4 -11 -14z m4586 -10 c0 -7 -9 -17 -20 -20 -11 -4
-26 -18 -34 -33 l-15 -27 -9 25 c-8 22 -6 26 20 37 15 7 31 19 34 28 7 17 24
10 24 -10z m-4240 -12 c0 -5 -5 -15 -10 -23 -9 -13 -11 -13 -19 0 -7 10 -6 17
2 22 15 10 27 10 27 1z m2372 -15 c-7 -7 -12 -8 -12 -2 0 14 12 26 19 19 2 -3
-1 -11 -7 -17z m-1972 2 c0 -5 -2 -10 -4 -10 -3 0 -8 5 -11 10 -3 6 -1 10 4
10 6 0 11 -4 11 -10z m1462 -42 c-9 -9 -12 -7 -12 12 0 19 3 21 12 12 9 -9 9
-15 0 -24z m2118 15 c0 -5 -4 -14 -9 -21 -7 -11 -9 -11 -14 1 -3 8 -3 18 0 21
9 8 23 7 23 -1z"/>
<path d="M11350 619 c0 -5 5 -7 10 -4 6 3 10 8 10 11 0 2 -4 4 -10 4 -5 0 -10
-5 -10 -11z"/>
<path d="M3998 874 c-34 -18 -48 -43 -48 -87 0 -33 30 -79 59 -88 9 -3 10 -11
1 -33 -15 -41 -4 -81 33 -112 61 -51 147 -6 147 77 0 41 -33 89 -62 89 -9 0
-9 3 2 10 8 5 11 10 5 10 -5 0 0 7 12 15 l22 15 -24 37 c-14 20 -25 40 -25 44
0 12 -55 39 -77 39 -10 -1 -30 -7 -45 -16z"/>
<path d="M9605 880 c-3 -5 2 -10 12 -10 17 -1 17 -2 -1 -15 -23 -17 -14 -20
15 -4 16 8 18 13 8 25 -13 16 -25 18 -34 4z"/>
<path d="M9670 853 c16 -7 12 -21 -7 -26 -13 -3 -12 -5 5 -6 17 -1 23 4 20 16
-2 9 -9 18 -16 19 -7 1 -8 0 -2 -3z"/>
<path d="M10060 840 c0 -5 5 -10 10 -10 6 0 10 5 10 10 0 6 -4 10 -10 10 -5 0
-10 -4 -10 -10z"/>
<path d="M9514 833 c-12 -2 -32 -15 -45 -29 -49 -52 -19 -144 52 -159 32 -7
83 16 99 44 15 28 12 83 -5 107 -8 12 -12 24 -9 27 4 3 -2 5 -12 5 -11 -1 -28
1 -39 4 -11 3 -30 3 -41 1z"/>
<path d="M9269 781 c-21 -22 -29 -39 -29 -66 0 -51 44 -95 95 -95 51 0 95 44
95 95 0 27 -8 44 -29 66 -41 40 -91 40 -132 0z"/>
<path d="M6623 734 c9 -3 17 -9 17 -14 0 -5 -8 -11 -17 -13 -13 -3 -12 -5 5
-6 30 -1 27 33 -3 36 -16 1 -16 1 -2 -3z"/>
<path d="M9858 667 c-27 -10 -39 -37 -17 -37 5 0 7 5 4 10 -3 6 0 10 8 10 8 0
20 7 27 15 7 8 11 15 9 14 -2 -1 -16 -6 -31 -12z"/>
<path d="M3536 652 c-9 -11 -35 -24 -59 -31 -23 -7 -56 -17 -73 -22 -40 -12
-71 -11 -95 1 -21 12 -26 1 -7 -18 9 -9 9 -12 0 -12 -6 0 -18 -12 -26 -27 -15
-27 -15 -27 -16 -5 0 13 -13 37 -29 53 -41 40 -91 40 -132 0 -45 -45 -34 -118
22 -147 53 -27 97 -14 129 39 l20 32 0 -32 c0 -17 5 -35 10 -38 15 -9 12 -25
-4 -25 -24 0 -64 -40 -71 -71 -21 -93 89 -156 156 -90 22 23 29 39 29 70 0 22
-4 43 -10 46 -17 11 -11 21 25 38 21 10 37 26 41 42 7 30 11 31 37 8 27 -25
92 -21 121 7 48 44 34 131 -24 153 -22 8 -30 17 -26 29 5 23 3 22 -18 0z m-82
-60 c2 -4 1 -14 -4 -22 -7 -11 -11 -11 -24 -1 -9 7 -13 17 -10 22 7 11 31 12
38 1z"/>
<path d="M3854 651 c-26 -16 -33 -17 -49 -5 -45 33 -127 -5 -138 -63 -7 -35
15 -88 41 -102 30 -16 84 -13 110 4 16 12 27 13 41 5 11 -5 36 -10 56 -10 80
0 115 101 56 161 -35 34 -72 37 -117 10z"/>
<path d="M2893 605 c-29 -20 -46 -75 -34 -107 13 -35 58 -68 92 -68 36 0 86
42 94 80 7 33 -15 84 -44 100 -28 15 -83 12 -108 -5z"/>
<path d="M1683 560 c-35 -21 -48 -53 -41 -100 4 -24 1 -30 -14 -30 -28 0 -76
-27 -88 -49 -18 -34 -11 -78 16 -110 21 -26 33 -31 69 -31 36 0 48 5 70 32 23
27 26 38 21 73 -5 41 -5 42 26 42 37 0 88 50 88 88 0 38 -21 75 -51 91 -37 19
-58 18 -96 -6z"/>
<path d="M2178 565 c-38 -21 -54 -75 -34 -116 9 -18 16 -33 16 -34 0 0 -15 1
-33 3 -25 3 -41 -3 -65 -23 -27 -22 -32 -34 -32 -70 0 -36 5 -48 31 -69 80
-67 191 15 146 108 l-15 32 28 -4 c69 -10 126 64 100 129 -24 56 -84 75 -142
44z"/>
<path d="M2663 545 c-35 -35 -39 -59 -19 -105 5 -12 -2 -15 -35 -16 -81 -1
-117 -89 -63 -153 67 -80 203 8 154 100 -10 17 -7 19 29 19 l39 0 -10 -34
c-14 -45 6 -86 54 -109 33 -16 40 -17 73 -3 49 21 71 72 52 118 -19 46 -43 63
-88 63 -35 0 -38 2 -32 20 14 40 4 79 -27 108 -43 39 -83 36 -127 -8z"/>
<path d="M1425 545 c-14 -13 -25 -29 -25 -35 0 -13 -37 -13 -45 0 -11 18 -35
11 -35 -10 0 -11 4 -20 10 -20 5 0 7 8 3 18 -5 14 -3 15 8 5 7 -7 21 -13 30
-13 10 0 19 -10 22 -27 6 -35 2 -43 -26 -43 -28 0 -57 -49 -57 -97 0 -79 96
-121 157 -69 24 21 28 31 27 75 0 36 3 51 13 51 20 0 72 53 74 75 3 45 -2 64
-27 89 -36 35 -95 36 -129 1z"/>
<path d="M1918 540 c-27 -28 -30 -36 -25 -75 4 -42 3 -45 -20 -45 -68 0 -118
-70 -93 -130 34 -82 152 -79 180 4 7 23 7 41 1 60 -10 25 -9 26 25 26 50 0 94
45 94 95 0 51 -44 95 -95 95 -27 0 -44 -8 -67 -30z"/>
<path d="M2403 535 c-32 -32 -35 -39 -29 -74 6 -38 5 -39 -28 -45 -43 -8 -66
-35 -73 -85 -5 -35 -2 -44 25 -71 42 -42 92 -42 134 0 27 28 30 36 25 75 -4
44 -4 45 25 45 75 0 106 103 49 161 -42 41 -83 39 -128 -6z"/>
<path d="M1141 463 c-66 -61 -30 -163 56 -163 48 0 78 21 93 64 13 41 2 75
-36 105 -37 29 -77 27 -113 -6z"/>
<path d="M1307 454 c-8 -8 3 -34 14 -34 4 0 6 6 3 14 -4 11 0 13 14 9 11 -2
22 -1 25 4 6 9 -47 15 -56 7z"/>
<path d="M3005 405 c-34 -33 -34 -93 -1 -132 19 -22 32 -28 66 -28 35 0 47 6
72 34 25 28 29 39 24 70 -12 76 -108 110 -161 56z"/>
<path d="M3513 408 c-40 -10 -63 -42 -63 -88 0 -46 21 -76 64 -90 41 -13 75
-2 105 36 28 35 27 76 -4 112 -28 34 -56 42 -102 30z"/>
<path d="M4133 394 c-4 -12 -14 -14 -35 -10 -36 7 -93 -15 -107 -42 -16 -29
-14 -84 4 -109 8 -12 31 -27 50 -33 44 -14 81 2 110 47 15 24 25 31 40 26 17
-5 16 -2 -6 19 -28 26 -55 91 -44 108 3 5 4 10 0 10 -3 0 -8 -7 -12 -16z"/>
<path d="M866 359 c-27 -32 -34 -76 -16 -110 15 -27 68 -52 98 -46 17 3 31 -1
39 -11 11 -15 12 -14 13 10 0 16 13 40 34 62 28 30 30 36 15 36 -11 0 -19 6
-19 14 0 8 -12 28 -26 45 -21 26 -33 31 -69 31 -36 0 -48 -5 -69 -31z"/>
<path d="M3741 364 c-26 -22 -31 -33 -31 -70 0 -60 32 -94 89 -94 59 0 96 35
96 90 0 35 -6 47 -33 71 -41 37 -80 38 -121 3z"/>
<path d="M4674 370 c-57 -23 -73 -112 -29 -155 18 -19 35 -25 69 -25 37 0 48
5 70 31 34 40 34 80 -1 119 -30 32 -75 45 -109 30z"/>
<path d="M4914 365 c-12 -8 -27 -28 -34 -44 -38 -93 72 -170 149 -105 26 21
31 33 31 67 0 23 -6 49 -13 58 -30 39 -96 51 -133 24z"/>
<path d="M4399 341 c-21 -22 -29 -39 -29 -66 0 -51 44 -95 95 -95 51 0 95 44
95 95 0 51 -44 95 -95 95 -27 0 -44 -8 -66 -29z"/>
<path d="M6460 259 c0 -5 5 -7 10 -4 6 3 10 8 10 11 0 2 -4 4 -10 4 -5 0 -10
-5 -10 -11z"/>
<path d="M10705 247 c-10 -8 -15 -19 -11 -25 9 -15 33 -16 41 -2 3 6 -1 7 -9
4 -19 -7 -21 7 -4 24 16 16 6 15 -17 -1z"/>
<path d="M12400 249 c0 -5 5 -7 10 -4 6 3 10 8 10 11 0 2 -4 4 -10 4 -5 0 -10
-5 -10 -11z"/>
</g>
</svg>
