<?xml version="1.0" encoding="utf-8"?>
<!-- Generator: Adobe Illustrator 23.1.1, SVG Export Plug-In . SVG Version: 6.00 Build 0)  -->
<svg version="1.1" xmlns="http://www.w3.org/2000/svg" xmlns:xlink="http://www.w3.org/1999/xlink" x="0px" y="0px"
	 viewBox="0 0 1920 1080" style="enable-background:new 0 0 1920 1080;" xml:space="preserve">
<style type="text/css">
	.st0{fill:#FFFFFF;}
	.st1{font-family:'Minecraft';}
	.st2{font-size:224.9826px;}
	.st3{fill:#F5D345;}
	.st4{fill:#FFEE9C;}
</style>
<g id="Calque_2">
	<rect width="1920" height="1080"/>
</g>
<g id="Calque_1">
	<text transform="matrix(0.5499 0 0 1 671 999.7539)" class="st0 st1 st2">YOU WIN !</text>
</g>
<g id="Calque_3">
	<g>
		<polygon class="st3" points="1064.7,733.24 858.47,733.24 858.47,674.63 908.4,674.63 908.4,576.94 858.47,576.94 858.47,520.5 
			752.1,520.5 752.1,474.91 700,474.91 700,366.37 799.86,366.37 799.86,260 1110.29,260 1110.29,355.52 1221,355.52 1221,472.74 
			1177.58,472.74 1177.58,520.5 1071.21,520.5 1071.21,576.94 1019.11,576.94 1019.11,676.8 1066.87,676.8 		"/>
		<rect x="754.27" y="416.3" width="52.1" height="52.1"/>
		<rect x="1121.14" y="416.3" width="52.1" height="52.1"/>
		<g>
			<rect x="845.45" y="307.76" class="st4" width="52.1" height="52.1"/>
			<rect x="845.45" y="359.86" class="st4" width="52.1" height="52.1"/>
			<rect x="897.55" y="307.76" class="st4" width="52.1" height="52.1"/>
		</g>
	</g>
</g>
</svg>
