<?xml version="1.0" encoding="utf-8"?>
<!-- Generator: Adobe Illustrator 25.4.1, SVG Export Plug-In . SVG Version: 6.00 Build 0)  -->
<svg version="1.1" id="Calque_1" xmlns="http://www.w3.org/2000/svg" xmlns:xlink="http://www.w3.org/1999/xlink" x="0px" y="0px"
	 viewBox="0 0 1757.48 1757.48" style="enable-background:new 0 0 1757.48 1757.48;" xml:space="preserve">
<style type="text/css">
	.st0{fill:#83FF8F;stroke:#1D1D1B;stroke-miterlimit:10;}
	.st1{fill:#F91042;stroke:#1D1D1B;stroke-miterlimit:10;}
	.st2{fill:none;stroke:#1D1D1B;stroke-width:7;stroke-miterlimit:10;}
	.st3{fill:#FF39A1;}
	.st4{fill:#00987B;stroke:#1D1D1B;stroke-miterlimit:10;}
	.st5{fill:#FFFFFD;stroke:#1D1E1C;stroke-width:4;stroke-miterlimit:10;}
</style>
<ellipse class="st0" cx="480.63" cy="820.01" rx="203.23" ry="190.32"/>
<path class="st0" d="M1380.01,1178.2c-24.44,192.65-134.3,328.6-521.96,436.71c-357.25,99.62-580.65-34.09-580.65-371.29
	s194.66-545.15,565.55-545.15S1416.38,891.52,1380.01,1178.2z"/>
<ellipse class="st0" cx="1336.52" cy="873.52" rx="203.23" ry="190.32"/>
<ellipse class="st1" cx="526.97" cy="1443.2" rx="99.47" ry="63.6"/>
<path class="st2" d="M507.53,808.24c13.86-5.31,53.43-18.39,101.67-5.8c55.69,14.54,85.56,53.54,93.55,64.74"/>
<path class="st2" d="M830.8,905.21c13.86-5.31,53.43-18.39,101.67-5.8c55.69,14.54,85.56,53.54,93.55,64.74"/>
<path class="st3" d="M659.31,718.37l269.1-478.81l135.49,592.59C1063.9,832.16,684.68,890.17,659.31,718.37z"/>
<path class="st3" d="M1169.35,717.62L928.41,239.56l135.49,592.59C1063.9,832.16,1197.47,825.41,1169.35,717.62z"/>
<ellipse class="st4" cx="922.46" cy="202.72" rx="69.68" ry="65.26"/>
<ellipse class="st4" cx="864.55" cy="239.56" rx="69.68" ry="65.26"/>
<ellipse class="st4" cx="981.14" cy="239.56" rx="69.68" ry="65.26"/>
<ellipse class="st4" cx="911.46" cy="270.49" rx="69.68" ry="65.26"/>
<polygon class="st0" points="1053.46,771.98 993.87,742.26 935.61,774.5 945.46,708.65 896.8,663.2 962.48,652.22 990.66,591.9 
	1021.4,650.96 1087.48,659.13 1040.8,706.61 "/>
<polygon class="st0" points="887.69,778.19 861.32,765.04 835.52,779.31 839.89,750.16 818.34,730.04 847.42,725.18 859.89,698.47 
	873.5,724.62 902.75,728.23 882.09,749.25 "/>
<polygon class="st0" points="1072.81,637.64 1051.45,626.98 1030.55,638.54 1034.09,614.93 1016.64,598.63 1040.19,594.69 
	1050.29,573.06 1061.32,594.24 1085.01,597.17 1068.28,614.2 "/>
<path class="st5" d="M448.02,1038.6c28.16-12.6-40.94-133.83,64.13-106.11c39.75,10.5,27.32,44.56,22.67,93.49
	c-1.88,19.8,2.36,14.66,43.58,18.12c45.78,3.83,59.97-0.95,60.77,18.47c0.69,16.75,9.56,35.36-12.21,36.9
	c-62.21,4.38-57.34,5.4-97.6,2.88c-7.61-0.49,0,0-2.13,50.98c-1.65,39.19,1.16,42.96-12.44,44.09c-26.47,2.19-29.14,5.32-41.15-9.37
	c-24.74-30.16-6.5-72.61-24.5-86.17c-13.25-9.96-115.31,32.41-104.39-54.34C347.73,1023.49,438.87,1042.71,448.02,1038.6z"/>
<path class="st5" d="M859.97,1134.21c46.78-20.93-68-222.3,106.53-176.26c66.03,17.45,45.38,74.02,37.65,155.29
	c-3.13,32.89,3.92,24.36,72.38,30.11c76.04,6.37,99.62-1.57,100.95,30.68c1.15,27.82,15.88,58.74-20.28,61.3
	c-103.33,7.27-95.25,8.97-162.12,4.78c-12.64-0.82,0,0-3.54,84.68c-2.74,65.09,1.92,71.35-20.67,73.24
	c-43.97,3.64-48.4,8.83-68.36-15.56c-41.1-50.09-10.8-120.62-40.69-143.13c-22.02-16.54-191.53,53.83-173.4-90.26
	C693.38,1109.11,844.79,1141.03,859.97,1134.21z"/>
</svg>
