<?xml version="1.0" encoding="utf-8"?>
<!-- Generator: Adobe Illustrator 25.4.1, SVG Export Plug-In . SVG Version: 6.00 Build 0)  -->
<svg version="1.1" id="Calque_1" xmlns="http://www.w3.org/2000/svg" xmlns:xlink="http://www.w3.org/1999/xlink" x="0px" y="0px"
	 viewBox="0 0 906.89 693" style="enable-background:new 0 0 906.89 693;" xml:space="preserve">
<style type="text/css">
	.st0{fill:#E63A11;stroke:#000000;stroke-width:8;stroke-miterlimit:10;}
	.st1{fill:none;}
</style>
<path class="st0" d="M887.69,413.56c16.51,154.44-221.01,264.71-423.1,257.59c-204.35-7.21-403.7-169.05-403.7-313.49
	s155.83-239.34,358.04-239.34S870.28,250.68,887.69,413.56z"/>
<polygon points="675.6,359.7 759.2,294.75 789.25,359.7 878.4,327.22 843.15,379.16 895.7,355.71 834.44,405.68 811.87,396.96 
	843.15,354.38 777.28,388.45 759.2,331.76 "/>
<path d="M28.68,306.23l137.72,11.43l-7.55-58.02l157.7,57.48l-22.06-30.93l34.74-1.14l-176.25-73.26l-13.15-78.03
	C139.83,133.76,41.77,170.11,28.68,306.23"/>
<rect x="27.55" y="324.88" transform="matrix(0.9876 0.1569 -0.1569 0.9876 53.385 -10.8911)" width="136.24" height="15.55"/>
<rect x="21.56" y="377.75" width="136.24" height="15.55"/>
<rect x="27.55" y="397.91" transform="matrix(0.977 0.2131 -0.2131 0.977 88.6549 -11.0687)" width="136.24" height="15.55"/>
<rect x="18.49" y="342.24" transform="matrix(0.9966 0.0818 -0.0818 0.9966 28.6182 -5.9275)" width="136.24" height="7.77"/>
<rect x="17.04" y="359.9" transform="matrix(0.977 0.2131 -0.2131 0.977 79.4854 -9.7926)" width="136.24" height="7.77"/>
<line class="st1" x1="297.8" y1="412.93" x2="701.2" y2="500.92"/>
</svg>
