<?xml version="1.0" encoding="utf-8"?>
<!-- Generator: Adobe Illustrator 25.4.1, SVG Export Plug-In . SVG Version: 6.00 Build 0)  -->
<svg version="1.1" id="Calque_1" xmlns="http://www.w3.org/2000/svg" xmlns:xlink="http://www.w3.org/1999/xlink" x="0px" y="0px"
	 viewBox="0 0 906.89 693" style="enable-background:new 0 0 906.89 693;" xml:space="preserve">
<style type="text/css">
	.st0{fill:#E63A11;stroke:#000000;stroke-width:8;stroke-miterlimit:10;}
	.st1{fill:none;}
	.st2{fill:#FFFFFE;stroke:#1E1E1C;stroke-width:4;stroke-miterlimit:10;}
</style>
<path class="st0" d="M887.69,413.56c16.51,154.44-221.01,264.71-423.1,257.59c-204.35-7.21-403.7-169.05-403.7-313.49
	s155.83-239.34,358.04-239.34S870.28,250.68,887.69,413.56z"/>
<polygon points="675.6,359.7 759.2,294.75 789.25,359.7 878.4,327.22 843.15,379.16 895.7,355.71 834.44,405.68 811.87,396.96 
	843.15,354.38 777.28,388.45 759.2,331.76 "/>
<path d="M28.68,306.23l137.72,11.43l-7.55-58.02l157.7,57.48l-22.06-30.93l34.74-1.14l-176.25-73.26l-13.15-78.03
	C139.83,133.76,41.77,170.11,28.68,306.23"/>
<rect x="27.55" y="324.88" transform="matrix(0.9876 0.1569 -0.1569 0.9876 53.385 -10.8911)" width="136.24" height="15.55"/>
<rect x="21.56" y="377.75" width="136.24" height="15.55"/>
<rect x="27.55" y="397.91" transform="matrix(0.977 0.2131 -0.2131 0.977 88.6549 -11.0687)" width="136.24" height="15.55"/>
<rect x="18.49" y="342.24" transform="matrix(0.9966 0.0818 -0.0818 0.9966 28.6182 -5.9275)" width="136.24" height="7.77"/>
<rect x="17.04" y="359.9" transform="matrix(0.977 0.2131 -0.2131 0.977 79.4854 -9.7926)" width="136.24" height="7.77"/>
<line class="st1" x1="297.8" y1="412.93" x2="701.2" y2="500.92"/>
<path class="st2" d="M425.4,351.61c29.16-13.04-42.39-138.57,66.41-109.87c41.16,10.87,28.29,46.14,23.47,96.8
	c-1.95,20.5,2.44,15.19,45.12,18.77c47.4,3.97,62.09-0.98,62.93,19.13c0.71,17.34,9.89,36.61-12.64,38.21
	c-64.41,4.54-59.37,5.59-101.06,2.98c-7.88-0.5,0,0-2.21,52.79c-1.7,40.58,1.2,44.48-12.89,45.66c-27.41,2.28-30.17,5.5-42.61-9.7
	c-25.62-31.22-6.73-75.18-25.37-89.22c-13.72-10.31-119.39,33.56-108.09-56.26C321.56,335.97,415.93,355.86,425.4,351.61z"/>
</svg>
