<?xml version="1.0" encoding="utf-8"?>
<!-- Generator: Adobe Illustrator 25.4.1, SVG Export Plug-In . SVG Version: 6.00 Build 0)  -->
<svg version="1.1" id="Calque_1" xmlns="http://www.w3.org/2000/svg" xmlns:xlink="http://www.w3.org/1999/xlink" x="0px" y="0px"
	 viewBox="0 0 878.74 878.74" style="enable-background:new 0 0 878.74 878.74;" xml:space="preserve">
<style type="text/css">
	.st0{fill:#E63A11;stroke:#000000;stroke-width:8;stroke-miterlimit:10;}
	.st1{fill:none;}
	.st2{fill:#FFFFFF;stroke:#000000;stroke-miterlimit:10;}
	.st3{fill:none;stroke:#000000;stroke-width:11;stroke-linecap:round;stroke-miterlimit:10;}
	.st4{fill:#FFFFFF;stroke:#000000;stroke-width:10.9998;stroke-linecap:round;stroke-miterlimit:9.9998;}
</style>
<path d="M557.51,404.6c0,0,74.27-236.64,123.37-223.51c65.36,17.47,139.49,94.84,139.49,94.84s-204.17,49.6-220.89,156.9
	L557.51,404.6z"/>
<path d="M224.44,166.54c-8.24-20.3,0-40.77,14.26-49.96c29.44-18.98,71.43-0.81,74.21,12.17
	C314.78,137.49,293.56,137.38,224.44,166.54z"/>
<path d="M822.69,276.86c10.12-19.43,8.04-42.37-4.91-57.47c-22.81-26.59-68.34-16.08-72.34-3.42
	C742.75,224.5,756.62,241.3,822.69,276.86z"/>
<path class="st0" d="M873.62,506.43c16.51,154.44-221.01,264.71-423.1,257.59c-204.35-7.21-403.7-169.05-403.7-313.49
	s155.83-239.34,358.04-239.34S856.21,343.55,873.62,506.43z"/>
<polygon points="661.53,452.57 745.13,387.62 775.18,452.57 864.33,420.09 829.08,472.03 881.63,448.58 820.37,498.55 797.8,489.83 
	829.08,447.25 763.21,481.32 745.13,424.63 "/>
<path d="M14.61,399.1l137.72,11.43l-7.55-58.02l157.7,57.48l-22.06-30.93l34.74-1.14l-176.25-73.26l-13.15-78.03
	C125.76,226.63,27.7,262.98,14.61,399.1"/>
<rect x="73.83" y="357.4" transform="matrix(0.1569 -0.9876 0.9876 0.1569 -351.4522 439.3441)" width="15.55" height="136.24"/>
<rect x="7.49" y="470.62" width="136.24" height="15.55"/>
<rect x="73.82" y="430.42" transform="matrix(0.2131 -0.977 0.977 0.2131 -422.8818 472.0239)" width="15.55" height="136.24"/>
<rect x="68.66" y="370.86" transform="matrix(0.0818 -0.9966 0.9966 0.0818 -370.8929 475.368)" width="7.77" height="136.23"/>
<rect x="67.2" y="388.52" transform="matrix(0.2131 -0.977 0.977 0.2131 -390.2137 428.7856)" width="7.77" height="136.24"/>
<path d="M224.44,166.54c0,0,132.33,74.54,178.63,141.45c36.06,52.11,32.24,96.62,32.24,96.62s42.92-11.34,74.31-5.8
	c0,0,22.57-261.09-46.04-272.2S270.61,118.22,224.44,166.54z"/>
<ellipse transform="matrix(0.1569 -0.9876 0.9876 0.1569 -41.4371 895.5023)" cx="503.78" cy="472.02" rx="83.46" ry="115.44"/>
<line class="st1" x1="283.73" y1="505.8" x2="687.13" y2="593.79"/>
<circle class="st2" cx="425.43" cy="247.09" r="22.35"/>
<circle class="st2" cx="646.28" cy="307.99" r="22.35"/>
<circle cx="425.5" cy="255.1" r="15.25"/>
<circle cx="646.28" cy="315.08" r="15.25"/>
<path class="st3" d="M263.37,498.55c0,0,93.4,87.31,225.88,87.2c135.94-0.12,212.61-46.92,212.61-46.92"/>
<ellipse transform="matrix(0.2946 -0.9556 0.9556 0.2946 -33.8408 821.3746)" class="st4" cx="539.45" cy="433.61" rx="28.01" ry="54.02"/>
</svg>
