<?xml version="1.0" encoding="utf-8"?>
<!-- Generator: Adobe Illustrator 25.4.1, SVG Export Plug-In . SVG Version: 6.00 Build 0)  -->
<svg version="1.1" id="Calque_1" xmlns="http://www.w3.org/2000/svg" xmlns:xlink="http://www.w3.org/1999/xlink" x="0px" y="0px"
	 viewBox="0 0 878.74 878.74" style="enable-background:new 0 0 878.74 878.74;" xml:space="preserve">
<style type="text/css">
	.st0{fill:#E63A11;stroke:#000000;stroke-width:8;stroke-miterlimit:10;}
	.st1{fill:none;}
</style>
<path class="st0" d="M873.62,506.43c16.51,154.44-221.01,264.71-423.1,257.59c-204.35-7.21-403.7-169.05-403.7-313.49
	s155.83-239.34,358.04-239.34S856.21,343.55,873.62,506.43z"/>
<polygon points="661.53,452.57 745.13,387.62 775.18,452.57 864.33,420.09 829.08,472.03 881.63,448.58 820.37,498.55 797.8,489.83 
	829.08,447.25 763.21,481.32 745.13,424.63 "/>
<path d="M14.61,399.1l137.72,11.43l-7.55-58.02l157.7,57.48l-22.06-30.93l34.74-1.14l-176.25-73.26l-13.15-78.03
	C125.76,226.63,27.7,262.98,14.61,399.1"/>
<rect x="73.83" y="357.4" transform="matrix(0.1569 -0.9876 0.9876 0.1569 -351.4522 439.3441)" width="15.55" height="136.24"/>
<rect x="7.49" y="470.62" width="136.24" height="15.55"/>
<rect x="73.82" y="430.42" transform="matrix(0.2131 -0.977 0.977 0.2131 -422.8818 472.0239)" width="15.55" height="136.24"/>
<rect x="68.66" y="370.86" transform="matrix(0.0818 -0.9966 0.9966 0.0818 -370.8929 475.368)" width="7.77" height="136.23"/>
<rect x="67.2" y="388.52" transform="matrix(0.2131 -0.977 0.977 0.2131 -390.2137 428.7856)" width="7.77" height="136.24"/>
<line class="st1" x1="283.73" y1="505.8" x2="687.13" y2="593.79"/>
</svg>
