<?xml version="1.0" encoding="utf-8"?>
<!-- Generator: Adobe Illustrator 25.4.1, SVG Export Plug-In . SVG Version: 6.00 Build 0)  -->
<svg version="1.1" id="Calque_1" xmlns="http://www.w3.org/2000/svg" xmlns:xlink="http://www.w3.org/1999/xlink" x="0px" y="0px"
	 viewBox="0 0 906.89 693" style="enable-background:new 0 0 906.89 693;" xml:space="preserve">
<style type="text/css">
	.st0{fill:#E63A11;stroke:#000000;stroke-width:8;stroke-miterlimit:10;}
	.st1{fill:none;}
	.st2{fill:#FFFFFF;stroke:#000000;stroke-miterlimit:10;}
	.st3{fill:none;stroke:#000000;stroke-width:11;stroke-linecap:round;stroke-miterlimit:10;}
	.st4{fill:#FFFFFF;stroke:#000000;stroke-width:11;stroke-linecap:round;stroke-miterlimit:10;}
</style>
<path d="M571.58,311.73c0,0,74.27-236.64,123.37-223.51c65.36,17.47,139.49,94.84,139.49,94.84s-204.17,49.6-220.89,156.9
	L571.58,311.73z"/>
<path d="M238.51,73.67c-8.24-20.3,0-40.77,14.26-49.96c29.44-18.98,71.43-0.81,74.21,12.17C328.85,44.62,307.63,44.51,238.51,73.67z
	"/>
<path d="M836.76,183.99c10.12-19.43,8.04-42.37-4.91-57.47c-22.81-26.59-68.34-16.08-72.34-3.42
	C756.82,131.63,770.69,148.43,836.76,183.99z"/>
<path class="st0" d="M887.69,413.56c16.51,154.44-221.01,264.71-423.1,257.59c-204.35-7.21-403.7-169.05-403.7-313.49
	s155.83-239.34,358.04-239.34S870.28,250.68,887.69,413.56z"/>
<polygon points="675.6,359.7 759.2,294.75 789.25,359.7 878.4,327.22 843.15,379.16 895.7,355.71 834.44,405.68 811.87,396.96 
	843.15,354.38 777.28,388.45 759.2,331.76 "/>
<path d="M28.68,306.23l137.72,11.43l-7.55-58.02l157.7,57.48l-22.06-30.93l34.74-1.14l-176.25-73.26l-13.15-78.03
	C139.83,133.76,41.77,170.11,28.68,306.23"/>
<rect x="27.55" y="324.88" transform="matrix(0.9876 0.1569 -0.1569 0.9876 53.385 -10.8911)" width="136.24" height="15.55"/>
<rect x="21.56" y="377.75" width="136.24" height="15.55"/>
<rect x="27.55" y="397.91" transform="matrix(0.977 0.2131 -0.2131 0.977 88.6549 -11.0687)" width="136.24" height="15.55"/>
<rect x="18.49" y="342.24" transform="matrix(0.9966 0.0818 -0.0818 0.9966 28.6182 -5.9275)" width="136.24" height="7.77"/>
<rect x="17.04" y="359.9" transform="matrix(0.977 0.2131 -0.2131 0.977 79.4854 -9.7926)" width="136.24" height="7.77"/>
<path d="M238.51,73.67c0,0,132.33,74.54,178.63,141.45c36.06,52.11,32.24,96.62,32.24,96.62s42.92-11.34,74.31-5.8
	c0,0,22.57-261.09-46.04-272.2S284.68,25.35,238.51,73.67z"/>
<ellipse transform="matrix(0.1569 -0.9876 0.9876 0.1569 62.1448 831.1093)" cx="517.87" cy="379.16" rx="83.46" ry="115.44"/>
<line class="st1" x1="297.8" y1="412.93" x2="701.2" y2="500.92"/>
<circle class="st2" cx="439.5" cy="154.22" r="22.35"/>
<circle class="st2" cx="660.35" cy="215.12" r="22.35"/>
<circle cx="439.57" cy="162.23" r="15.25"/>
<circle cx="660.35" cy="222.21" r="15.25"/>
<path class="st3" d="M277.44,405.68c0,0,93.4,87.31,225.88,87.2c135.94-0.12,212.61-46.92,212.61-46.92"/>
<ellipse transform="matrix(0.2946 -0.9556 0.9556 0.2946 64.8631 769.3171)" class="st4" cx="553.53" cy="340.72" rx="28.01" ry="54.02"/>
</svg>
