<?xml version="1.0" encoding="utf-8"?>
<!-- Generator: Adobe Illustrator 25.4.1, SVG Export Plug-In . SVG Version: 6.00 Build 0)  -->
<svg version="1.1" id="Calque_1" xmlns="http://www.w3.org/2000/svg" xmlns:xlink="http://www.w3.org/1999/xlink" x="0px" y="0px"
	 viewBox="0 0 878.74 878.74" style="enable-background:new 0 0 878.74 878.74;" xml:space="preserve">
<style type="text/css">
	.st0{fill:#E53A11;stroke:#1D1D1B;stroke-width:8;stroke-miterlimit:10;}
	.st1{fill:#1D1D1B;}
	.st2{fill:none;}
	.st3{fill:#FFFFFD;stroke:#1D1E1C;stroke-width:4;stroke-miterlimit:10;}
</style>
<path class="st0" d="M873.61,506.43c16.51,154.44-221.01,264.71-423.1,257.59c-204.35-7.21-403.7-169.05-403.7-313.49
	s155.83-239.34,358.04-239.34S856.2,343.55,873.61,506.43z"/>
<polygon class="st1" points="661.53,452.57 745.12,387.62 775.18,452.57 864.33,420.09 829.07,472.03 881.63,448.58 820.36,498.55 
	797.8,489.83 829.07,447.25 763.2,481.32 745.12,424.63 "/>
<path class="st1" d="M14.6,399.1l137.72,11.43l-7.55-58.02l157.7,57.48l-22.06-30.93l34.74-1.14l-176.25-73.26l-13.15-78.03
	C125.76,226.63,27.7,262.98,14.6,399.1"/>
<rect x="13.47" y="417.75" transform="matrix(0.9876 0.1569 -0.1569 0.9876 67.7836 -7.5316)" class="st1" width="136.24" height="15.55"/>
<rect x="7.48" y="470.62" class="st1" width="136.24" height="15.55"/>
<rect x="13.47" y="490.78" transform="matrix(0.977 0.2131 -0.2131 0.977 108.1235 -5.9351)" class="st1" width="136.24" height="15.55"/>
<rect x="4.42" y="435.11" transform="matrix(0.9966 0.0818 -0.0818 0.9966 36.1715 -4.4639)" class="st1" width="136.24" height="7.77"/>
<rect x="2.97" y="452.77" transform="matrix(0.977 0.2131 -0.2131 0.977 98.954 -4.6591)" class="st1" width="136.24" height="7.77"/>
<line class="st2" x1="283.73" y1="505.8" x2="687.13" y2="593.79"/>
<path class="st3" d="M411.32,444.48c29.16-13.04-42.39-138.57,66.41-109.87c41.16,10.87,28.29,46.14,23.47,96.8
	c-1.95,20.5,2.44,15.19,45.12,18.77c47.4,3.97,62.09-0.98,62.93,19.13c0.71,17.34,9.89,36.61-12.64,38.21
	c-64.41,4.54-59.37,5.59-101.06,2.98c-7.88-0.5,0,0-2.21,52.79c-1.7,40.58,1.2,44.48-12.89,45.66c-27.41,2.28-30.17,5.5-42.61-9.7
	c-25.62-31.22-6.73-75.18-25.37-89.22c-13.72-10.31-119.39,33.56-108.09-56.26C307.48,428.84,401.85,448.73,411.32,444.48z"/>
</svg>
