<?xml version="1.0" encoding="utf-8"?>
<!-- Generator: Adobe Illustrator 25.4.1, SVG Export Plug-In . SVG Version: 6.00 Build 0)  -->
<svg version="1.1" id="Calque_1" xmlns="http://www.w3.org/2000/svg" xmlns:xlink="http://www.w3.org/1999/xlink" x="0px" y="0px"
	 viewBox="0 0 998 998" style="enable-background:new 0 0 998 998;" xml:space="preserve">
<style type="text/css">
	.st0{fill:#FDEA14;stroke:#1D1E1C;stroke-width:4;stroke-miterlimit:10;}
	.st1{fill:#1D1E1C;stroke:#1D1E1C;stroke-width:4;stroke-miterlimit:10;}
	.st2{fill:none;stroke:#1D1E1C;stroke-width:4;stroke-miterlimit:10;}
</style>
<path class="st0" d="M112.82,403.29c0,0-84.12-226.92-19.56-246.48c64.55-19.56,209,162.37,209,162.37s133.5-89.99,336.86-29.34
	c0,0,64.47-110.53,130.98-134.49s78.25,226.44,78.25,226.44s204.28,228.88-43.04,346.25s-565.34,129.11-708.15-7.82
	S112.82,403.29,112.82,403.29z"/>
<path class="st1" d="M144.47,372.88c0,0-44.3-122.14-17.96-134.11s101.78,80.23,101.78,80.23L144.47,372.88z"/>
<path class="st1" d="M698.87,295.04c0,0,44.3-92.2,76.63-80.23s25.15,102.98,21.55,113.75L698.87,295.04z"/>
<line class="st2" x1="10.28" y1="653.01" x2="201.43" y2="671.4"/>
<line class="st2" x1="158.79" y1="695.08" x2="37.52" y2="747.4"/>
<line class="st2" x1="211.72" y1="721.23" x2="157.32" y2="865.03"/>
<line class="st2" x1="760.17" y1="601.84" x2="927.62" y2="513.61"/>
<line class="st2" x1="821.92" y1="604.77" x2="988.07" y2="594.99"/>
<line class="st2" x1="831.39" y1="653.01" x2="964.55" y2="695.08"/>
</svg>
