<?xml version="1.0" encoding="utf-8"?>
<!-- Generator: Adobe Illustrator 25.4.1, SVG Export Plug-In . SVG Version: 6.00 Build 0)  -->
<svg version="1.1" id="Calque_1" xmlns="http://www.w3.org/2000/svg" xmlns:xlink="http://www.w3.org/1999/xlink" x="0px" y="0px"
	 viewBox="0 0 998 998" style="enable-background:new 0 0 998 998;" xml:space="preserve">
<style type="text/css">
	.st0{fill:#FDEA14;stroke:#1D1E1C;stroke-width:4;stroke-miterlimit:10;}
	.st1{fill:#FFFFFF;stroke:#1D1E1C;stroke-width:4;stroke-miterlimit:10;}
	.st2{fill:#1D1E1C;}
	.st3{fill:#1D1E1C;stroke:#1D1E1C;stroke-width:4;stroke-miterlimit:10;}
	.st4{fill:none;stroke:#1D1E1C;stroke-width:4;stroke-miterlimit:10;}
</style>
<path class="st0" d="M108.26,412.87c0,0-84.12-226.92-19.56-246.48c64.55-19.56,209,162.37,209,162.37s133.5-89.99,336.86-29.34
	c0,0,64.47-110.53,130.98-134.49s78.25,226.44,78.25,226.44s204.28,228.88-43.04,346.25S235.41,866.73,92.6,729.8
	S108.26,412.87,108.26,412.87z"/>
<rect x="189.66" y="410.91" class="st1" width="249.2" height="193.66"/>
<rect x="485.69" y="365.92" class="st1" width="249.2" height="193.66"/>
<rect x="332.7" y="495.06" class="st2" width="106.15" height="109.51"/>
<rect x="628.73" y="450.31" class="st2" width="106.15" height="109.51"/>
<path class="st3" d="M139.91,382.46c0,0-44.3-122.14-17.96-134.11s101.78,80.23,101.78,80.23L139.91,382.46z"/>
<path class="st3" d="M694.31,304.63c0,0,44.3-92.2,76.63-80.23s25.15,102.98,21.55,113.75L694.31,304.63z"/>
<rect x="450.46" y="630.22" class="st3" width="67.84" height="45.77"/>
<polyline class="st4" points="485.69,675.99 485.69,733.33 290.25,733.33 646.13,733.33 646.13,699.75 "/>
<line class="st4" x1="290.25" y1="733.33" x2="290.25" y2="704.66"/>
<rect x="314.26" y="675.99" class="st3" width="9.99" height="9.99"/>
<rect x="338.04" y="694.67" class="st3" width="9.99" height="9.99"/>
<rect x="338.04" y="662.59" class="st3" width="9.99" height="9.99"/>
<rect x="605.29" y="680.98" class="st3" width="9.99" height="9.99"/>
<rect x="636.13" y="662.59" class="st3" width="9.99" height="9.99"/>
<rect x="610.29" y="648.11" class="st3" width="9.99" height="9.99"/>
<line class="st4" x1="5.72" y1="662.59" x2="196.87" y2="680.98"/>
<line class="st4" x1="154.23" y1="704.66" x2="32.96" y2="756.99"/>
<line class="st4" x1="207.16" y1="730.82" x2="152.76" y2="874.62"/>
<line class="st4" x1="755.61" y1="611.42" x2="923.06" y2="523.2"/>
<line class="st4" x1="817.36" y1="614.36" x2="983.51" y2="604.58"/>
<line class="st4" x1="826.83" y1="662.59" x2="959.99" y2="704.66"/>
</svg>
