<?xml version="1.0" encoding="utf-8"?>
<!-- Generator: Adobe Illustrator 25.4.1, SVG Export Plug-In . SVG Version: 6.00 Build 0)  -->
<svg version="1.1" id="Calque_1" xmlns="http://www.w3.org/2000/svg" xmlns:xlink="http://www.w3.org/1999/xlink" x="0px" y="0px"
	 viewBox="0 0 1009 841.89" style="enable-background:new 0 0 1009 841.89;" xml:space="preserve">
<style type="text/css">
	.st0{fill:#FDEA14;stroke:#1D1E1C;stroke-width:4;stroke-miterlimit:10;}
	.st1{fill:#1D1E1C;stroke:#1D1E1C;stroke-width:4;stroke-miterlimit:10;}
	.st2{fill:none;stroke:#1D1E1C;stroke-width:4;stroke-miterlimit:10;}
</style>
<path class="st0" d="M118.32,325.23c0,0-84.12-226.92-19.56-246.48c64.55-19.56,209,162.37,209,162.37s133.5-89.99,336.86-29.34
	c0,0,64.47-110.53,130.98-134.49s78.25,226.44,78.25,226.44s204.28,228.88-43.04,346.25s-565.34,129.11-708.15-7.82
	S118.32,325.23,118.32,325.23z"/>
<path class="st1" d="M149.97,294.82c0,0-44.3-122.14-17.96-134.11s101.78,80.23,101.78,80.23L149.97,294.82z"/>
<path class="st1" d="M704.37,216.99c0,0,44.3-92.2,76.63-80.23s25.15,102.98,21.55,113.75L704.37,216.99z"/>
<line class="st2" x1="15.78" y1="574.95" x2="206.93" y2="593.34"/>
<line class="st2" x1="164.29" y1="617.02" x2="43.02" y2="669.35"/>
<line class="st2" x1="217.22" y1="643.18" x2="162.82" y2="786.98"/>
<line class="st2" x1="765.67" y1="523.78" x2="933.12" y2="435.56"/>
<line class="st2" x1="827.42" y1="526.72" x2="993.57" y2="516.94"/>
<line class="st2" x1="836.89" y1="574.95" x2="970.05" y2="617.02"/>
</svg>
