<?xml version="1.0" encoding="utf-8"?>
<!-- Generator: Adobe Illustrator 25.4.1, SVG Export Plug-In . SVG Version: 6.00 Build 0)  -->
<svg version="1.1" id="Calque_1" xmlns="http://www.w3.org/2000/svg" xmlns:xlink="http://www.w3.org/1999/xlink" x="0px" y="0px"
	 viewBox="0 0 420.13 401.32" style="enable-background:new 0 0 420.13 401.32;" xml:space="preserve">
<style type="text/css">
	.st0{fill:#1E1D59;stroke:#090A09;stroke-width:4;stroke-miterlimit:10;}
	.st1{fill:#1D1D1B;}
	.st2{fill:#FFFFFF;stroke:#1D1D1B;stroke-width:4;stroke-miterlimit:10;}
	.st3{fill:none;stroke:#1D1D1B;stroke-width:4;stroke-miterlimit:10;}
	.st4{fill:#FFFFFD;stroke:#1D1D1B;stroke-width:4;stroke-miterlimit:10;}
	.st5{fill:#10100E;stroke:#090A09;stroke-width:4;stroke-miterlimit:10;}
	.st6{fill:#FFFFFF;stroke:#090A09;stroke-width:4;stroke-miterlimit:10;}
</style>
<path class="st0" d="M204.11,240.04c-5.94,41.7,23.78,72.77,17.49,83.36c-5,8.41-14.93,13.11-24.29,13.2
	c-16.26,0.15-21.65-26.36-26.24-24.41c-5.84,2.48,9.26,28.58-5.14,35.03c-25.27,11.32-37.53-21.68-39.76-19.46
	c-1.05,1.04,11.44,26.94-2.66,35.84c-10.64,6.71-29.39-22.76-32.13-20.64c-1.31,1.02,9.81,25.34-5.53,33.39
	c-9.62,5.05-25.44-20.65-28.58-18.38c-1.02,0.74-25.37,34.49-42.48,37.38c-16.13,2.72,6.87-64.33,5.9-71.99
	c-3.73-29.42-7.27-45,5.13-97.39c0,0,7.95-31.28-1.44-74.22c-10.81-49.41-27.78-85.69-7.2-97.81c17.49-10.3,81.26,72.97,79.65,68.14
	c-5-18-70.21-76.84-40.98-94.5c37.02-22.36,103.16,68.15,106.16,74.15c1,1,147.48-64.49,178.47-28.93
	c11.7,13.43,4.52,34.92-5.47,49.93c-59.9,89.99-162,139-214.91,152.22"/>
<ellipse class="st1" cx="331.93" cy="78.72" rx="17.83" ry="15.59"/>
<circle class="st2" cx="216.35" cy="143.46" r="21.37"/>
<ellipse transform="matrix(0.2298 -0.9732 0.9732 0.2298 36.9429 320.8824)" class="st1" cx="221.2" cy="137.1" rx="13.29" ry="13.29"/>
<path class="st3" d="M213.07,14.65c12.38,8.23,24.75,16.45,37.13,24.68"/>
<line class="st3" x1="259.04" y1="21.68" x2="294.92" y2="52.82"/>
<line class="st3" x1="363.97" y1="111.78" x2="406.17" y2="132.39"/>
<line class="st3" x1="363.01" y1="123.73" x2="379.95" y2="156.75"/>
<path class="st3" d="M174.1,126.29c0,0,8.99-20.48,26.8-23.95"/>
<circle class="st4" cx="235.56" cy="76.26" r="21.37"/>
<ellipse transform="matrix(0.2298 -0.9732 0.9732 0.2298 117.139 287.8217)" class="st1" cx="240.41" cy="69.91" rx="13.29" ry="13.29"/>
<path class="st3" d="M201.61,87.85c0,0-8.27-20.78,1.77-35.9"/>
<ellipse transform="matrix(0.9164 -0.4002 0.4002 0.9164 -111.5922 112.39)" class="st5" cx="213.28" cy="323.36" rx="11.44" ry="8.46"/>
<ellipse transform="matrix(0.9164 -0.4002 0.4002 0.9164 -121.5635 94.6808)" class="st5" cx="165.89" cy="338.37" rx="11.47" ry="8.46"/>
<ellipse transform="matrix(0.9164 -0.4002 0.4002 0.9164 -132.9848 79.4601)" class="st5" cx="123.74" cy="358.11" rx="8.46" ry="6.14"/>
<ellipse transform="matrix(0.9164 -0.4002 0.4002 0.9164 -140.7137 66.1642)" class="st5" cx="88.05" cy="369.96" rx="8.46" ry="6.14"/>
<path class="st6" d="M262.65,158.66c-5.03,2.12-11.08,3.2-10.94,4.88c0.28,3.48,27.34,11.07,50.83-1.99
	c3.07-1.71,21.69-12.46,26.95-35.14C336.01,98.28,298.42,143.61,262.65,158.66z"/>
</svg>
