<?xml version="1.0" encoding="utf-8"?>
<!-- Generator: Adobe Illustrator 25.4.1, SVG Export Plug-In . SVG Version: 6.00 Build 0)  -->
<svg version="1.1" id="Calque_1" xmlns="http://www.w3.org/2000/svg" xmlns:xlink="http://www.w3.org/1999/xlink" x="0px" y="0px"
	 viewBox="0 0 420.13 401.32" style="enable-background:new 0 0 420.13 401.32;" xml:space="preserve">
<style type="text/css">
	.st0{fill:#1E1D59;stroke:#090A09;stroke-width:4;stroke-miterlimit:10;}
	.st1{fill:#1D1D1B;}
	.st2{fill:none;stroke:#1D1D1B;stroke-width:4;stroke-miterlimit:10;}
	.st3{fill:#10100E;stroke:#090A09;stroke-width:4;stroke-miterlimit:10;}
	.st4{fill:#FFFFFD;}
</style>
<path class="st0" d="M204.11,240.04c-5.94,41.7,23.78,72.77,17.49,83.36c-5,8.41-14.93,13.11-24.29,13.2
	c-16.26,0.15-21.65-26.36-26.24-24.41c-5.84,2.48,9.26,28.58-5.14,35.03c-25.27,11.32-37.53-21.68-39.76-19.46
	c-1.05,1.04,11.44,26.94-2.66,35.84c-10.64,6.71-29.39-22.76-32.13-20.64c-1.31,1.02,9.81,25.34-5.53,33.39
	c-9.62,5.05-25.44-20.65-28.58-18.38c-1.02,0.74-25.37,34.49-42.48,37.38c-16.13,2.72,6.87-64.33,5.9-71.99
	c-3.73-29.42-7.27-45,5.13-97.39c0,0,7.95-31.28-1.44-74.22c-10.81-49.41-27.78-85.69-7.2-97.81c17.49-10.3,81.26,72.97,79.65,68.14
	c-5-18-70.21-76.84-40.98-94.5c37.02-22.36,103.16,68.15,106.16,74.15c1,1,147.48-64.49,178.47-28.93
	c11.7,13.43,4.52,34.92-5.47,49.93c-59.9,89.99-162,139-214.91,152.22"/>
<ellipse class="st1" cx="331.93" cy="78.72" rx="17.83" ry="15.59"/>
<path class="st2" d="M213.07,14.65c12.38,8.23,24.75,16.45,37.13,24.68"/>
<line class="st2" x1="259.04" y1="21.68" x2="294.92" y2="52.82"/>
<line class="st2" x1="363.97" y1="111.78" x2="406.17" y2="132.39"/>
<line class="st2" x1="363.01" y1="123.73" x2="379.95" y2="156.75"/>
<ellipse transform="matrix(0.9164 -0.4002 0.4002 0.9164 -111.5922 112.39)" class="st3" cx="213.28" cy="323.36" rx="11.44" ry="8.46"/>
<ellipse transform="matrix(0.9164 -0.4002 0.4002 0.9164 -121.5635 94.6808)" class="st3" cx="165.89" cy="338.37" rx="11.47" ry="8.46"/>
<ellipse transform="matrix(0.9164 -0.4002 0.4002 0.9164 -132.9848 79.4601)" class="st3" cx="123.74" cy="358.11" rx="8.46" ry="6.14"/>
<ellipse transform="matrix(0.9164 -0.4002 0.4002 0.9164 -140.7137 66.1642)" class="st3" cx="88.05" cy="369.96" rx="8.46" ry="6.14"/>
<g>
	<g>
		<path class="st4" d="M74.2,245.61c-0.81-11.08-1.69-22.15-2.42-33.23c-0.29-4.32-0.52-9.52,2.58-12.99
			c1.03-1.14,2.7-2.46,4.36-2.13c0.81,0.16,1.17,0.9,1.53,1.58c0.63,1.2,1.18,2.45,1.72,3.69c2.37,5.38,4.19,11,5.55,16.71
			c0.64,2.67,5.27,2.18,4.91-0.66c-0.53-4.15-1.06-8.3-1.58-12.45c-0.49-3.84-1.22-7.73-1.42-11.6c-0.06-1.15-0.07-2.42,0.39-3.39
			c0.3-0.63,0.93-1.05,1.95-0.66c1.36,0.52,2.1,1.96,2.68,3.19c0.84,1.76,1.52,3.6,2.26,5.4c1.84,4.46,3.68,8.91,5.51,13.37
			c0.47,1.15,1.41,1.99,2.74,1.79c1.1-0.17,2.33-1.21,2.17-2.46c-0.64-4.96-1.28-9.92-1.92-14.87c-0.3-2.33-0.78-4.73-0.76-7.08
			c0.01-1,0.34-2.91,1.63-2.98c1.44-0.08,3.04,2.28,3.77,3.32c1.19,1.68,2.18,3.49,3.33,5.19c2.23,3.3,5.29,6.5,9.41,7.14
			c1.33,0.2,2.69-0.34,3.08-1.75c0.33-1.18-0.4-2.87-1.75-3.08c-3.17-0.49-5.23-2.96-6.88-5.52c-2-3.1-3.77-6.47-6.77-8.73
			c-3.28-2.46-7.55-1.79-9.67,1.81c-2.09,3.55-0.86,8.11-0.37,11.92c0.63,4.88,1.26,9.75,1.88,14.63c1.64-0.22,3.27-0.44,4.91-0.66
			c-1.9-4.61-3.8-9.22-5.7-13.83c-1.58-3.82-2.89-8.93-6.84-11.01c-3.95-2.09-8.35-0.32-9.65,3.94c-1.14,3.73-0.01,8.03,0.46,11.77
			c0.7,5.53,1.41,11.07,2.11,16.6c1.64-0.22,3.27-0.44,4.91-0.66c-1.4-5.84-3.32-11.53-5.69-17.05c-1.05-2.44-2.03-5.44-4.16-7.18
			c-2.33-1.9-5.48-1.72-8.09-0.52c-4.92,2.26-7.15,7.75-7.65,12.81c-0.29,2.93-0.02,5.89,0.19,8.82c0.23,3.15,0.46,6.3,0.69,9.44
			c0.52,7.12,1.04,14.25,1.56,21.37c0.1,1.35,1.08,2.5,2.5,2.5C72.98,248.11,74.3,246.96,74.2,245.61L74.2,245.61z"/>
	</g>
</g>
<g>
	<g>
		<path class="st4" d="M140.07,160.47c-4.46,3.15-8.85,6.61-10.26,12.15c-1.14,4.48-0.43,9.46,1.95,13.43
			c5.17,8.65,16.92,9.66,24.47,3.54c7.55-6.12,6.72-18.28-0.52-24.33c-3.7-3.09-8.66-4.34-13.14-2.11c-1.97,0.98-3.6,2.76-3.96,4.97
			c-0.46,2.86,0.98,5.39,3.28,7.02c4.78,3.38,11.28,2.04,15.62-1.36c4.43-3.48,6.9-9.12,5.66-14.7c-1.61,0.44-3.21,0.89-4.82,1.33
			c1.09,4.7,3.39,9.05,6.59,12.66c1.57,1.77,3.39,3.33,5.34,4.66c2.24,1.52,5.2,2.93,7.53,0.72c1.93-1.83,1.92-4.98,2.08-7.45
			c0.17-2.66,0.18-5.35,0.77-7.96c0.74-3.24,3.37-7.89,7.38-7.13c3.93,0.75,5.52,6.24,6.48,9.66c1.61-0.44,3.21-0.89,4.82-1.33
			c-1.67-4.5-4.31-11.04-0.16-14.98c1.28-1.22,3.05-1.97,4.58-1.28c1.7,0.77,2.47,2.92,3.06,4.56c0.88,2.46,1.64,4.84,3.32,6.9
			c1.62,1.99,3.99,3.58,6.64,3.54c6.67-0.08,6.96-8.37,7.17-13.17c0.32-7.25-0.36-14.54-1.91-21.63c-0.8,1.05-1.61,2.11-2.41,3.16
			c5.1,0.46,10.21,0.91,15.31,1.37c2.58,0.23,5.16,0.44,7.74,0.7c1.88,0.19,4.02,0.45,5.57,1.63c2.12,1.61,2.61,5.06,1.04,7.15
			c-1.59,2.13-5.19,2.63-7.25,0.96c-1.05-0.85-2.51-1.03-3.54,0c-0.88,0.88-1.05,2.68,0,3.54c2.95,2.38,6.91,3.11,10.48,1.7
			c3.72-1.48,6.04-4.83,6.19-8.82c0.14-3.73-1.81-7.45-5.09-9.27c-4.02-2.22-9.21-2.04-13.66-2.44c-5.6-0.5-11.2-1-16.79-1.5
			c-1.71-0.15-2.73,1.71-2.41,3.16c1.35,6.2,1.95,12.52,1.78,18.86c-0.04,1.6-0.13,3.19-0.27,4.79c-0.1,1.16-0.19,2.38-0.63,3.48
			c-0.66,1.65-1.89,1.6-3.16,0.58c-1.81-1.45-2.44-3.59-3.18-5.69c-0.81-2.3-1.74-4.68-3.52-6.42c-3.93-3.84-9.92-2.6-13.29,1.33
			c-4.77,5.55-2.72,12.95-0.43,19.11c1.1,2.97,5.7,1.83,4.82-1.33c-1.11-3.99-2.67-8.39-5.97-11.11c-3.85-3.17-8.92-2.82-12.69,0.3
			c-4.16,3.44-5.24,8.78-5.58,13.9c-0.09,1.3-0.14,2.59-0.23,3.89c-0.05,0.68-0.1,1.37-0.18,2.05c-0.02,0.17-0.37,1.49-0.32,1.53
			c-0.08-0.08,0.43-0.12,0.45-0.21c0,0.01-1.28-0.72-1.38-0.79c-0.95-0.6-1.84-1.27-2.68-2.01c-3.81-3.37-6.44-7.78-7.59-12.73
			c-0.73-3.14-5.52-1.81-4.82,1.33c1.37,6.18-5.4,13.08-11.64,11.5c-1.33-0.34-2.98-1.11-3.23-2.6c-0.04-0.23,0.04-0.54,0.33-0.94
			c-0.19,0.26,0.07-0.07,0.1-0.1c0.12-0.12,0.25-0.26,0.39-0.36c-0.11,0.08-0.21,0.14,0.17-0.09c0.2-0.12,0.41-0.24,0.62-0.34
			c1.04-0.48,2.62-0.63,3.79-0.34c1.4,0.34,2.71,1.13,3.76,2.09c4.73,4.34,5.48,12.05,0.52,16.44c-4.63,4.1-12.49,4.05-16.39-1.05
			c-2.14-2.8-2.99-6.67-2.3-10.02c0.94-4.53,4.5-7.24,8.11-9.79c1.1-0.78,1.62-2.18,0.9-3.42
			C142.85,160.28,141.18,159.69,140.07,160.47L140.07,160.47z"/>
	</g>
</g>
<g>
	<g>
		<path class="st4" d="M156.95,136.6c3.22,0,3.22-5,0-5C153.73,131.6,153.73,136.6,156.95,136.6L156.95,136.6z"/>
	</g>
</g>
<g>
	<g>
		<path class="st4" d="M254.37,79.07c1.9,8,3.81,16.01,5.71,24.01c0.74,3.13,5.57,1.8,4.82-1.33c-1.9-8-3.81-16.01-5.71-24.01
			C258.45,74.61,253.63,75.94,254.37,79.07L254.37,79.07z"/>
	</g>
</g>
<g>
	<g>
		<path class="st4" d="M269.62,129.72c3.22,0,3.22-5,0-5C266.41,124.72,266.4,129.72,269.62,129.72L269.62,129.72z"/>
	</g>
</g>
</svg>
