<?xml version="1.0" encoding="utf-8"?>
<!-- Generator: Adobe Illustrator 25.4.1, SVG Export Plug-In . SVG Version: 6.00 Build 0)  -->
<svg version="1.1" xmlns="http://www.w3.org/2000/svg" xmlns:xlink="http://www.w3.org/1999/xlink" x="0px" y="0px"
	 viewBox="0 0 2834.65 2834.65" style="enable-background:new 0 0 2834.65 2834.65;" xml:space="preserve">
<style type="text/css">
	.st0{fill:#FF78C7;stroke:#E70018;stroke-width:6;stroke-miterlimit:10;}
	.st1{fill:#FFFFFF;stroke:#1D1D1B;stroke-miterlimit:10;}
	.st2{fill:#FF78C7;stroke:#E70018;stroke-width:5;stroke-miterlimit:10;}
	.st3{fill:#FF075A;}
</style>
<g id="Calque_2">
	<path class="st0" d="M1129.06,457.04c0,0,729.54-298.95,1180.98,133.21c759.72,727.28-192.83,1482.04-192.83,1482.04
		L1129.06,457.04z"/>
	<polyline class="st1" points="766.2,3014.36 766.2,3014.36 766.2,3014.36 	"/>
</g>
<g id="Calque_1">
	<path class="st2" d="M310.23,996.06c261.19-105.32,233.32-316.4,502.9-489.49c291.91-187.42,615.65-140.94,673.57-133.72
		c136.79,17.06,239.98,57.24,291.99,80.08c77.5,34.04,484.59,224.66,603.48,677.24c72.77,277.01-1.42,506.74-26.82,576.66
		c-11.4,31.37-145.33,383.68-496.2,549.84c-180.07,85.27-212.85,24.7-590.07,147.52c-311.92,101.55-375.96,171.12-409.03,221.28
		L310.23,996.06z"/>
	<path class="st3" d="M2648.6,321.24"/>
</g>
<g id="Calque_4">
	<path class="st1" d="M2079.98,1841.93c-53.71,7.7-96.44-37.46-105.51-85.52c-8.01-42.39,4.58-62.14,44.99-129.4
		c81.3-135.38,46.78-178.19,78.47-305.09c14.55-58.26,94.41-43.58,132.92-13.1C2328.66,1386.17,2228.47,1820.64,2079.98,1841.93z"/>
</g>
<g id="Calque_3">
</g>
</svg>
