<?xml version="1.0" encoding="utf-8"?>
<!-- Generator: Adobe Illustrator 25.4.1, SVG Export Plug-In . SVG Version: 6.00 Build 0)  -->
<svg version="1.1" xmlns="http://www.w3.org/2000/svg" xmlns:xlink="http://www.w3.org/1999/xlink" x="0px" y="0px"
	 viewBox="0 0 2834.65 2834.65" style="enable-background:new 0 0 2834.65 2834.65;" xml:space="preserve">
<style type="text/css">
	.st0{fill:#FF78C7;stroke:#E70018;stroke-width:6;stroke-miterlimit:10;}
	.st1{fill:#FFFFFF;stroke:#1D1D1B;stroke-miterlimit:10;}
	.st2{fill:#FF78C7;stroke:#E70018;stroke-width:5;stroke-miterlimit:10;}
	.st3{fill:#FF075A;}
	.st4{fill:#FFFFFD;stroke:#1D1E1C;stroke-width:4;stroke-miterlimit:10;}
</style>
<g id="Calque_2">
	<path class="st0" d="M1129.06,457.04c0,0,729.54-298.95,1180.98,133.21c759.72,727.28-192.83,1482.04-192.83,1482.04
		L1129.06,457.04z"/>
	<polyline class="st1" points="766.2,3014.36 766.2,3014.36 766.2,3014.36 	"/>
</g>
<g id="Calque_1">
	<path class="st2" d="M310.23,996.06c261.19-105.32,233.32-316.4,502.9-489.49c291.91-187.42,615.65-140.94,673.57-133.72
		c136.79,17.06,239.98,57.24,291.99,80.08c77.5,34.04,484.59,224.66,603.48,677.24c72.77,277.01-1.42,506.74-26.82,576.66
		c-11.4,31.37-145.33,383.68-496.2,549.84c-180.07,85.27-212.85,24.7-590.07,147.52c-311.92,101.55-375.96,171.12-409.03,221.28
		L310.23,996.06z"/>
	<path class="st3" d="M2648.6,321.24"/>
</g>
<g id="Calque_4">
	<path class="st1" d="M2187.44,1835.14c-26.01-0.85-42.41-25.76-42.67-49.21c-0.24-20.69,7.36-28.96,32.07-57.34
		c49.72-57.13,37-80.23,62.58-137.51c11.75-26.3,48.23-12.68,63.87,4.93C2343,1640.72,2259.34,1837.51,2187.44,1835.14z"/>
	<path class="st4" d="M1243.94,1202.79c109.21-48.86-158.75-518.97,248.7-411.48c154.15,40.74,105.94,172.8,87.9,362.53
		c-7.31,76.78,9.15,56.87,168.97,70.29c177.52,14.87,232.57-3.67,235.67,71.62c2.68,64.95,37.07,137.13-47.34,143.11
		c-241.23,16.97-222.36,20.94-378.47,11.16c-29.51-1.91,0,0-8.26,197.69c-6.4,151.95,4.48,166.57-48.25,170.98
		c-102.65,8.5-112.99,20.61-159.59-36.33c-95.95-116.94-25.21-281.59-94.99-334.14c-51.41-38.61-447.13,125.67-404.81-210.71
		C855.03,1144.2,1208.5,1218.71,1243.94,1202.79z"/>
</g>
<g id="Calque_3">
</g>
</svg>
