<?xml version="1.0" encoding="utf-8"?>
<!-- Generator: Adobe Illustrator 25.4.1, SVG Export Plug-In . SVG Version: 6.00 Build 0)  -->
<svg version="1.1" id="Calque_1" xmlns="http://www.w3.org/2000/svg" xmlns:xlink="http://www.w3.org/1999/xlink" x="0px" y="0px"
	 viewBox="0 0 322.06 324" style="enable-background:new 0 0 322.06 324;" xml:space="preserve">
<style type="text/css">
	.st0{stroke:#FFE72D;stroke-miterlimit:10;}
	.st1{fill:#F6E81D;stroke:#000000;stroke-width:4;stroke-miterlimit:10;}
	.st2{stroke:#000000;stroke-width:4;stroke-miterlimit:10;}
	.st3{fill:#FFFFFF;}
	.st4{fill:#FFFFFF;stroke:#090A0A;stroke-width:4;stroke-miterlimit:10;}
</style>
<path class="st0" d="M191.79,11.24c67.42,24.99,9.47,155.37-30.17,155.72C122.53,167.3,55.5,41.65,124.74,13.11
	C142.98,5.6,172.48,4.08,191.79,11.24z"/>
<path class="st0" d="M16.59,119.11c36.06-62.21,154.72,17,148.35,56.13c-6.29,38.58-141.48,83.34-157.86,10.27
	C2.76,166.25,6.27,136.92,16.59,119.11z"/>
<path class="st0" d="M113.38,310.89c-65.9-28.77-0.67-155.65,38.93-153.76c39.05,1.87,98.86,131.11,28.12,155.68
	C161.79,319.29,132.25,319.13,113.38,310.89z"/>
<path class="st0" d="M309.63,205.49c-29.93,65.38-155.64-2.09-153.05-41.65c2.56-39.01,132.84-96.52,156.15-25.35
	C318.88,157.23,318.2,186.77,309.63,205.49z"/>
<path class="st0" d="M72.86,35.85c66.07-28.37,113.96,106.02,85.48,133.6C130.26,196.65-4.91,151.83,25.58,83.43
	C33.61,65.4,53.94,43.97,72.86,35.85z"/>
<path class="st0" d="M287.58,102.33c17.3,69.79-123.07,95.31-145.68,62.74C119.61,132.96,185.71,6.82,248.27,47.98
	C264.76,58.82,282.62,82.35,287.58,102.33z"/>
<path class="st0" d="M26.96,235.85c-30.25-65.24,102.73-116.94,131.11-89.26c27.98,27.29-12.96,163.69-82.2,135.16
	C57.62,274.24,35.62,254.53,26.96,235.85z"/>
<path class="st0" d="M233.03,286.16c-68,23.38-105.77-114.2-75.32-139.59c30.02-25.03,161.49,29.71,126,95.66
	C274.37,259.61,252.5,279.47,233.03,286.16z"/>
<circle class="st1" cx="158.74" cy="160.33" r="85.18"/>
<ellipse class="st2" cx="124.47" cy="152.56" rx="21.37" ry="31.47"/>
<ellipse transform="matrix(0.0472 -0.9989 0.9989 0.0472 -28.1131 248.66)" class="st3" cx="116.29" cy="139.07" rx="11.01" ry="8.17"/>
<ellipse class="st2" cx="186.56" cy="152.56" rx="21.37" ry="31.47"/>
<ellipse transform="matrix(0.0472 -0.9989 0.9989 0.0472 31.0449 310.6823)" class="st3" cx="178.39" cy="139.07" rx="11.01" ry="8.17"/>
<circle cx="155.52" cy="179.51" r="5.05"/>
<path class="st4" d="M126.8,203.81c-13.21-3.38-20.72-6.42-21.36-4.86c-1.33,3.23,28.73,27.36,55.55,25.6
	c19.72-1.29,62.46-32.28,36.51-25.66C182.27,202.77,146.76,208.92,126.8,203.81z"/>
<g id="Calque_2">
</g>
</svg>
