<?xml version="1.0" encoding="utf-8"?>
<!-- Generator: Adobe Illustrator 25.4.1, SVG Export Plug-In . SVG Version: 6.00 Build 0)  -->
<svg version="1.1" id="Calque_1" xmlns="http://www.w3.org/2000/svg" xmlns:xlink="http://www.w3.org/1999/xlink" x="0px" y="0px"
	 viewBox="0 0 322.06 324" style="enable-background:new 0 0 322.06 324;" xml:space="preserve">
<style type="text/css">
	.st0{stroke:#FFE72D;stroke-miterlimit:10;}
	.st1{fill:#F6E81D;stroke:#000000;stroke-width:4;stroke-miterlimit:10;}
</style>
<path class="st0" d="M191.79,11.24c67.42,24.99,9.47,155.37-30.17,155.72C122.53,167.3,55.5,41.65,124.74,13.11
	C142.98,5.6,172.48,4.08,191.79,11.24z"/>
<path class="st0" d="M16.59,119.11c36.06-62.21,154.72,17,148.35,56.13c-6.29,38.58-141.48,83.34-157.86,10.27
	C2.76,166.25,6.27,136.92,16.59,119.11z"/>
<path class="st0" d="M113.38,310.89c-65.9-28.77-0.67-155.65,38.93-153.76c39.05,1.87,98.86,131.11,28.12,155.68
	C161.79,319.29,132.25,319.13,113.38,310.89z"/>
<path class="st0" d="M309.63,205.49c-29.93,65.38-155.64-2.09-153.05-41.65c2.56-39.01,132.84-96.52,156.15-25.35
	C318.88,157.23,318.2,186.77,309.63,205.49z"/>
<path class="st0" d="M72.86,35.85c66.07-28.37,113.96,106.02,85.48,133.6C130.26,196.65-4.91,151.83,25.58,83.43
	C33.61,65.4,53.94,43.97,72.86,35.85z"/>
<path class="st0" d="M287.58,102.33c17.3,69.79-123.07,95.31-145.68,62.74C119.61,132.96,185.71,6.82,248.27,47.98
	C264.76,58.82,282.62,82.35,287.58,102.33z"/>
<path class="st0" d="M26.96,235.85c-30.25-65.24,102.73-116.94,131.11-89.26c27.98,27.29-12.96,163.69-82.2,135.16
	C57.62,274.24,35.62,254.53,26.96,235.85z"/>
<path class="st0" d="M233.03,286.16c-68,23.38-105.77-114.2-75.32-139.59c30.02-25.03,161.49,29.71,126,95.66
	C274.37,259.61,252.5,279.47,233.03,286.16z"/>
<circle class="st1" cx="158.74" cy="160.33" r="85.18"/>
<g id="Calque_2">
</g>
<g>
	<g>
		<path d="M95.94,191.71c-0.05-16.02,0.24-32.06,2.01-47.99c-1.64,0.22-3.27,0.44-4.91,0.66c5.59,18.24,10.02,36.83,13.23,55.64
			c0.9,5.25,1.7,10.52,2.4,15.81c0.18,1.34,1.02,2.5,2.5,2.5c1.21,0,2.68-1.15,2.5-2.5c-2.55-19.22-6.28-38.26-11.29-56.99
			c-1.41-5.29-2.93-10.55-4.53-15.78c-0.87-2.84-4.61-2.05-4.91,0.66c-1.76,15.93-2.06,31.97-2.01,47.99
			C90.95,194.93,95.95,194.93,95.94,191.71L95.94,191.71z"/>
	</g>
</g>
<g>
	<g>
		<path d="M101.41,159.75c1.25-2.48,3.04-6.49,6.36-6.27c1.27,0.08,1.79,1.02,2.2,2.31c0.71,2.27,1.32,4.57,1.98,6.86
			c0.66,2.28,1.31,4.57,1.97,6.85c0.55,1.92,1.12,3.83,2.41,5.4c2.56,3.1,7.87,2.84,9.27-1.22c1.05-3.05-3.78-4.36-4.82-1.33
			c0.04-0.12,0.35-0.35,0.35-0.37c-0.02,0.11-0.53,0.05-0.28,0.1c-0.07-0.01-0.7-0.3-0.42-0.11c-0.11-0.07-0.37-0.37-0.46-0.51
			c-1.04-1.44-1.33-3.67-1.81-5.34c-0.66-2.28-1.31-4.57-1.97-6.85c-0.59-2.04-1.06-4.16-1.87-6.13c-1.58-3.83-5.53-5.52-9.46-4.21
			c-3.88,1.3-6.02,4.85-7.76,8.31c-0.61,1.21-0.32,2.71,0.9,3.42C99.1,161.29,100.8,160.96,101.41,159.75L101.41,159.75z"/>
	</g>
</g>
<g>
	<g>
		<path d="M130.89,159.62c4.9-7.61,6.58-16.95,5-25.83c-0.38-2.11-0.96-4.19-1.76-6.18c-0.87-2.17-1.9-4.27-3.81-5.7
			c-1.72-1.29-4.02-1.73-6.07-0.99c-2.42,0.87-3.58,3.13-3.58,5.61c0.01,2.5,0.42,5.07,0.74,7.54c0.34,2.54,0.73,5.08,1.21,7.6
			c0.93,4.91,2.15,9.76,3.66,14.52c2.4,7.6,5.53,17.74,14.11,20.34c2.74,0.83,5.44,0.22,7.25-2.05c1.58-1.98,2.69-4.39,3.44-6.8
			c1.53-4.9,1.44-10.34-0.31-15.16c-0.42-1.17-1.46-1.98-2.74-1.79c-1.19,0.18-2.21,1.19-2.17,2.46c0.15,4.77,0.99,9.53,2.6,14.03
			c0.81,2.27,1.79,4.5,2.94,6.63c1.08,1.99,2.31,4.29,4.36,5.43c4.16,2.31,8.17-0.96,9.93-4.67c2.04-4.3,2.64-9.51,2.97-14.2
			c0.41-5.75-0.08-11.54-1.32-17.16c-0.63-2.83-4.82-2.08-4.91,0.66c-0.22,6.81,0.37,13.64,1.73,20.31
			c0.96,4.69,2.56,12.31,8.78,12.14c1.17-0.03,2.03-0.77,2.41-1.84c4.27-12.01,6.28-24.8,5.93-37.55c-1.55,0.42-3.11,0.84-4.66,1.26
			c4.8,7.13,12.42,11.09,19.51,15.53c2.84,1.78,7.18,4.06,7.73,7.75c0.1,0.67,0.07,1.45-0.19,2.09c-0.24,0.59-0.67,0.99-0.93,1.09
			c-0.53,0.21-1.05,0.2-1.46,0.06c-0.34-0.12-0.52-0.25-0.56-0.37c-0.46-1.27-1.7-2.12-3.08-1.75c-1.22,0.34-2.21,1.8-1.75,3.08
			c1.34,3.68,5.56,5.06,9.04,3.45c3.67-1.7,4.67-6.45,3.47-10.02c-1.37-4.06-4.98-6.63-8.43-8.86c-3.27-2.12-6.68-4.01-9.93-6.17
			c-3.46-2.29-6.76-4.93-9.1-8.4c-1.31-1.95-4.73-1.36-4.66,1.26c0.33,12.34-1.62,24.58-5.75,36.22c0.8-0.61,1.61-1.22,2.41-1.84
			c-0.53,0.01-0.85-0.08-1.36-0.67c-0.49-0.56-0.86-1.3-1.14-2.01c-0.95-2.41-1.37-5.14-1.83-7.68c-1.01-5.63-1.37-11.37-1.19-17.09
			c-1.64,0.22-3.27,0.44-4.91,0.66c1.79,8.1,1.72,16.57-0.26,24.62c-0.39,1.58-0.83,3.09-1.77,4.44c-0.29,0.41-0.68,0.85-1.05,1.13
			c-0.25,0.18-0.46,0.26-0.63,0.29c-0.09,0.02-0.27,0-0.31-0.01c-1.3-0.44-2.07-2.41-2.68-3.53c-0.92-1.68-1.73-3.41-2.39-5.21
			c-1.55-4.22-2.43-8.62-2.57-13.11c-1.64,0.22-3.27,0.44-4.91,0.66c1.18,3.25,1.56,6.75,0.9,10.16c-0.33,1.69-0.84,3.37-1.62,4.91
			c-0.48,0.96-1.25,3.04-2.57,2.99c-2.84-0.12-5.27-2.97-6.65-5.16c-1.85-2.93-3.01-6.2-4.11-9.46c-2.68-7.91-4.62-16.11-5.64-24.4
			c-0.25-2.04-0.55-4.12-0.59-6.18c-0.03-1.08,0.17-1.49,1.22-1.1c1.24,0.47,1.94,2.16,2.41,3.3c0.71,1.73,1.23,3.55,1.61,5.39
			c1.6,7.8-0.04,16.09-4.34,22.77C124.83,159.81,129.15,162.32,130.89,159.62L130.89,159.62z"/>
	</g>
</g>
<g>
	<g>
		<path d="M200.31,104.88c10.33,10.41,17.21,24.23,19.06,38.8c0.17,1.34,1.03,2.5,2.5,2.5c1.22,0,2.67-1.15,2.5-2.5
			c-2.02-15.94-9.18-30.92-20.52-42.34C201.57,99.05,198.04,102.59,200.31,104.88L200.31,104.88z"/>
	</g>
</g>
<g>
	<g>
		<path d="M220.75,166.23c3.22,0,3.22-5,0-5C217.54,161.23,217.53,166.23,220.75,166.23L220.75,166.23z"/>
	</g>
</g>
<g>
	<g>
		<path d="M119.54,201.16c11.5,6.35,24.99,9.02,38.04,7.39c12.18-1.52,23.55-6.64,32.89-14.6c5.13-4.37,9.53-9.62,12.99-15.4
			c1.66-2.77-2.67-5.29-4.32-2.52c-5.66,9.46-14,17.11-23.84,22.06c-10.39,5.23-22.44,7.08-33.92,5.3
			c-6.77-1.05-13.32-3.23-19.32-6.54C119.24,195.28,116.72,199.6,119.54,201.16L119.54,201.16z"/>
	</g>
</g>
</svg>
