<?xml version="1.0" encoding="utf-8"?>
<!-- Generator: Adobe Illustrator 25.4.1, SVG Export Plug-In . SVG Version: 6.00 Build 0)  -->
<svg version="1.1" id="Calque_1" xmlns="http://www.w3.org/2000/svg" xmlns:xlink="http://www.w3.org/1999/xlink" x="0px" y="0px"
	 viewBox="0 0 2834.65 2834.65" style="enable-background:new 0 0 2834.65 2834.65;" xml:space="preserve">
<style type="text/css">
	.st0{fill:#572AFF;stroke:#1D1D1B;stroke-width:7;stroke-miterlimit:10;}
	.st1{fill:#FFFFFF;stroke:#1D1D1B;stroke-width:24;stroke-miterlimit:10;}
	.st2{fill:#1D1D1B;}
	.st3{fill:#FFFFFF;stroke:#1D1D1B;stroke-width:6;stroke-miterlimit:10;}
	.st4{fill:#17EFFF;stroke:#1D1D1B;stroke-width:7;stroke-miterlimit:10;}
</style>
<path class="st0" d="M1378.37,678.32c0,0,503.97-311.98,847.95,68c637.49,704.21-815.19,1639.9-815.19,1639.9
	S190.44,1674.26,434.43,950.31C614.74,415.28,1378.37,678.32,1378.37,678.32z"/>
<circle class="st1" cx="1055.81" cy="1225.45" r="58.06"/>
<circle class="st1" cx="1833.52" cy="1204.25" r="58.06"/>
<g>
	<g>
		<path class="st2" d="M1025.76,1272.41c-29.12,22.56-56.14,47.77-80.74,75.17c-25.04,27.9-47.72,58.01-67.64,89.77
			c-19.97,31.84-36.98,65.38-51.34,100.1c-14.02,33.92-25.17,69.03-33.19,104.84c-8.2,36.62-13.24,74.05-14.83,111.54
			c-0.19,4.57-0.33,9.14-0.42,13.72c-0.13,6.54,5.84,12.8,12.5,12.5c6.88-0.31,12.36-5.49,12.5-12.5
			c0.37-18.29,1.55-36.55,3.57-54.73c0.5-4.54,1.08-9.07,1.66-13.61c-0.03,0.2-0.44,3.19-0.14,1.06c0.07-0.5,0.14-1.01,0.21-1.51
			c0.16-1.13,0.32-2.26,0.48-3.39c0.35-2.39,0.71-4.77,1.08-7.15c1.4-8.9,3-17.77,4.79-26.61c7.23-35.72,17.57-70.81,30.78-104.77
			c1.66-4.26,3.36-8.51,5.11-12.73c0.39-0.94,0.78-1.88,1.17-2.82c1.02-2.45-0.92,2.15-0.22,0.53c0.2-0.47,0.4-0.94,0.6-1.4
			c0.95-2.22,1.91-4.44,2.88-6.65c3.68-8.37,7.54-16.67,11.57-24.88c8.01-16.31,16.7-32.28,26.05-47.86
			c9.34-15.58,19.34-30.76,29.96-45.5c2.67-3.71,5.39-7.39,8.14-11.04c1.37-1.82,2.83-3.6,4.16-5.45c-0.13,0.19-1.84,2.37-0.56,0.72
			c0.31-0.4,0.62-0.8,0.94-1.2c0.78-1,1.57-2,2.35-3c5.67-7.17,11.49-14.22,17.46-21.14c23.72-27.49,49.83-52.93,78.03-75.8
			c3.55-2.88,7.14-5.72,10.76-8.52c2.35-1.82,3.66-6.04,3.66-8.84c0-3.07-1.36-6.73-3.66-8.84c-2.38-2.19-5.51-3.81-8.84-3.66
			C1031.06,1268.91,1028.53,1270.26,1025.76,1272.41L1025.76,1272.41z"/>
	</g>
</g>
<g>
	<g>
		<path class="st2" d="M1041.78,1277.88c-11.64,25.08-22.35,50.6-32.05,76.49c-9.41,25.11-17.85,50.58-25.32,76.34
			c-7.46,25.76-13.95,51.8-19.43,78.05c-5.66,27.11-10.18,54.43-13.78,81.9c-3.5,26.71-5.97,53.55-7.39,80.45
			c-0.17,3.29-0.33,6.57-0.48,9.86c-0.29,6.54,5.95,12.79,12.5,12.5c7.02-0.31,12.19-5.49,12.5-12.5
			c1.07-24.48,2.99-48.91,5.78-73.26c0.79-6.9,1.65-13.8,2.57-20.68c-0.15,1.11-0.3,2.22-0.45,3.32
			c4.86-36,11.55-71.74,20.08-107.05c8.53-35.31,18.88-70.17,31.01-104.41c6.84-19.3,14.24-38.4,22.19-57.27
			c-0.42,1-0.84,1.99-1.26,2.99c4.83-11.45,9.87-22.82,15.1-34.1c1.45-3.12,2.21-6.2,1.26-9.63c-0.8-2.9-3.04-6.04-5.74-7.47
			C1053.36,1270.48,1044.72,1271.55,1041.78,1277.88L1041.78,1277.88z"/>
	</g>
</g>
<g>
	<g>
		<path class="st2" d="M1051.49,1281.05c-3.35,23.81-5.29,47.75-5.41,71.8c-0.12,23,1.31,46.01,4.23,68.82
			c3.05,23.85,7.46,47.47,13.59,70.73c5.86,22.24,13.19,44.1,21.93,65.37c9.12,22.2,19.52,43.82,31.55,64.59
			c1.42,2.45,2.85,4.88,4.31,7.3c3.37,5.6,11.38,8.17,17.1,4.48c5.63-3.63,8.09-11.11,4.48-17.1c-12.45-20.72-23.4-42.32-32.8-64.59
			c0.42,1,0.84,1.99,1.26,2.99c-14.07-33.42-24.65-68.29-31.54-103.9c-1.93-9.95-3.56-19.96-4.91-30.01
			c0.15,1.11,0.3,2.22,0.45,3.32c-4.73-35.36-5.89-71.18-3.29-106.76c0.74-10.11,1.79-20.19,3.13-30.24
			c-0.15,1.11-0.3,2.22-0.45,3.32c0.16-1.16,0.32-2.32,0.48-3.48c0.49-3.48,0.59-6.47-1.26-9.63c-1.52-2.59-4.49-5.07-7.47-5.74
			c-3.2-0.73-6.79-0.57-9.63,1.26C1054.71,1275.21,1051.93,1277.92,1051.49,1281.05L1051.49,1281.05z"/>
	</g>
</g>
<g>
	<g>
		<path class="st2" d="M1056.59,1283.98c-0.85,19.61,1.11,39.4,5.32,58.57c4.21,19.17,11,37.75,19.62,55.36
			c8.66,17.68,19.55,34.11,32.02,49.33c12.47,15.23,26.81,28.63,42.5,40.49c15.72,11.88,32.87,21.35,51.08,28.83
			c2.14,0.88,4.29,1.72,6.45,2.52c2.88,1.07,7.07,0.24,9.63-1.26c2.59-1.52,5.07-4.49,5.74-7.47c0.73-3.2,0.57-6.79-1.26-9.63
			c-0.65-0.84-1.3-1.69-1.95-2.53c-1.56-1.55-3.4-2.62-5.52-3.21c-2.73-1.02-5.44-2.09-8.13-3.22c1,0.42,1.99,0.84,2.99,1.26
			c-13.5-5.7-26.4-12.81-38.46-21.13c-3.39-2.34-6.71-4.77-9.97-7.28c0.84,0.65,1.69,1.3,2.53,1.95
			c-12.32-9.54-23.66-20.33-33.85-32.11c-2.9-3.35-5.7-6.79-8.41-10.29c0.65,0.84,1.3,1.69,1.95,2.53
			c-9.86-12.8-18.46-26.56-25.59-41.06c-2.03-4.14-3.95-8.34-5.74-12.58c0.42,1,0.84,1.99,1.26,2.99
			c-6.08-14.46-10.75-29.52-13.78-44.91c-0.85-4.33-1.57-8.69-2.17-13.07c0.15,1.11,0.3,2.22,0.45,3.32
			c-1.66-12.38-2.25-24.89-1.71-37.38c0.13-3.12-1.49-6.67-3.66-8.84c-2.17-2.17-5.72-3.8-8.84-3.66
			C1062.08,1271.8,1056.9,1276.98,1056.59,1283.98L1056.59,1283.98z"/>
	</g>
</g>
<g>
	<g>
		<path class="st2" d="M1066.71,1289.46c10.7,15.36,22.12,30.24,34.17,44.56c11.46,13.62,23.55,26.71,36.2,39.23
			c12.6,12.47,25.77,24.37,39.45,35.65c14.49,11.96,29.52,23.3,45.04,33.9c14.64,10,29.74,19.33,45.24,27.94
			c1.94,1.08,3.88,2.14,5.83,3.2c2.91,1.58,6.4,2.15,9.63,1.26c2.9-0.8,6.04-3.04,7.47-5.74c1.53-2.9,2.3-6.42,1.26-9.63
			c-0.98-3.04-2.86-5.91-5.74-7.47c-21.56-11.67-42.38-24.7-62.3-39c-5.63-4.04-11.18-8.18-16.66-12.41
			c0.84,0.65,1.69,1.3,2.53,1.95c-15.4-11.91-30.21-24.56-44.35-37.93c-14.14-13.37-27.63-27.43-40.37-42.14
			c-7.17-8.27-14.1-16.74-20.79-25.4c0.65,0.84,1.3,1.69,1.95,2.53c-5.84-7.57-11.5-15.27-16.96-23.12
			c-1.89-2.71-4.19-4.84-7.47-5.74c-2.99-0.82-6.98-0.45-9.63,1.26c-2.67,1.72-5.02,4.28-5.74,7.47
			C1064.73,1282.96,1064.8,1286.73,1066.71,1289.46L1066.71,1289.46z"/>
	</g>
</g>
<g>
	<g>
		<path class="st2" d="M1016.93,1264.17c-21.41,4.14-42.94,7.67-64.55,10.59c1.11-0.15,2.22-0.3,3.32-0.45
			c-39.68,5.33-79.62,8.59-119.63,9.76c-39.87,1.16-79.81,0.25-119.59-2.74c-22.44-1.68-44.82-4.04-67.12-7.03
			c1.11,0.15,2.22,0.3,3.32,0.45c-19.43-2.62-38.78-5.74-58.05-9.35c-3.36-0.63-6.6-0.51-9.63,1.26c-2.59,1.52-5.07,4.49-5.74,7.47
			c-1.4,6.15,1.86,14.09,8.73,15.38c28.5,5.34,57.21,9.6,86.03,12.85c27.98,3.15,56.08,5.27,84.22,6.35
			c28.14,1.08,56.32,1.14,84.46,0.15c28.14-0.98,56.25-3,84.24-6.05c28.83-3.14,57.55-7.3,86.07-12.54c3.53-0.65,7.06-1.32,10.58-2
			c6.43-1.24,10.7-9.3,8.73-15.38C1030.09,1266.05,1023.83,1262.84,1016.93,1264.17L1016.93,1264.17z"/>
	</g>
</g>
<g>
	<g>
		<path class="st2" d="M1003.67,1238.52c-19.66-5.88-38.98-12.83-57.88-20.8c1,0.42,1.99,0.84,2.99,1.26
			c-18.21-7.7-36.03-16.32-53.37-25.82c-17.34-9.51-34.21-19.89-50.51-31.08c-9.21-6.32-18.25-12.91-27.1-19.73
			c0.84,0.65,1.69,1.3,2.53,1.95c-15.73-12.16-30.87-25.07-45.33-38.72c-14.45-13.64-28.23-28-41.26-43.01
			c-7.32-8.44-14.4-17.08-21.24-25.92c0.65,0.84,1.3,1.69,1.95,2.53c-20.26-26.23-38.32-54.14-53.8-83.46
			c-4.36-8.26-8.51-16.64-12.46-25.11c-1.25-2.69-4.72-4.99-7.47-5.74c-2.99-0.82-6.98-0.45-9.63,1.26
			c-2.67,1.72-5.02,4.28-5.74,7.47c-0.79,3.45-0.23,6.43,1.26,9.63c13.61,29.22,29.74,57.25,48.09,83.75
			c18.84,27.21,39.89,52.96,62.88,76.77c23.03,23.85,48.06,45.64,74.59,65.51c25.8,19.32,53.16,36.57,81.75,51.45
			c29.36,15.28,60.05,28.19,91.55,38.34c3.84,1.24,7.69,2.43,11.55,3.58c6.26,1.87,13.9-2.25,15.38-8.73
			C1013.93,1247.17,1010.37,1240.52,1003.67,1238.52L1003.67,1238.52z"/>
	</g>
</g>
<g>
	<g>
		<path class="st2" d="M1005.6,1204.84c-1-1.27-2-2.55-2.99-3.83c-0.21-0.27-0.43-0.55-0.64-0.82c-0.83-1.06,0.99,1.28,0.89,1.16
			c-0.58-0.72-1.13-1.47-1.69-2.2c-2.04-2.66-4.06-5.34-6.06-8.04c-3.87-5.2-7.66-10.45-11.39-15.75
			c-7.52-10.69-14.76-21.58-21.71-32.65c-13.91-22.14-26.66-45-38.2-68.46c-6.54-13.29-12.69-26.76-18.45-40.4
			c0.42,1,0.84,1.99,1.26,2.99c-10.2-24.2-19.18-48.91-26.85-74.03c-7.67-25.11-14.05-50.62-19.08-76.4
			c-2.84-14.53-5.24-29.15-7.21-43.82c0.15,1.11,0.3,2.22,0.45,3.32c-1.78-13.3-3.21-26.65-4.27-40.03
			c-0.27-3.36-1.21-6.39-3.66-8.84c-2.17-2.17-5.73-3.8-8.84-3.66c-6.33,0.28-13.06,5.52-12.5,12.5
			c2.38,29.82,6.47,59.53,12.27,88.87c5.63,28.49,12.9,56.64,21.75,84.3c9.11,28.47,19.92,56.38,32.18,83.64
			c11.91,26.48,25.32,52.29,40.17,77.24c14.85,24.95,31.14,49.04,48.79,72.1c2.69,3.51,5.39,7.01,8.13,10.48
			c1.84,2.34,6.01,3.66,8.84,3.66c3.07,0,6.73-1.36,8.84-3.66c2.19-2.38,3.81-5.51,3.66-8.84
			C1009.1,1210.15,1007.76,1207.59,1005.6,1204.84L1005.6,1204.84z"/>
	</g>
</g>
<g>
	<g>
		<path class="st2" d="M1027.29,1179.1c-4.31-20.17-7.85-40.5-10.61-60.93c0.15,1.11,0.3,2.22,0.45,3.32
			c-3.72-27.71-6-55.61-6.83-83.56c-0.83-28.05-0.2-56.13,1.9-84.11c1.18-15.72,2.82-31.4,4.92-47.03c-0.15,1.11-0.3,2.22-0.45,3.32
			c1.54-11.4,3.32-22.76,5.34-34.08c0.6-3.38,0.53-6.58-1.26-9.63c-1.52-2.59-4.49-5.07-7.47-5.74c-3.2-0.73-6.79-0.57-9.63,1.26
			c-2.59,1.67-5.18,4.31-5.74,7.47c-3.73,20.91-6.67,41.97-8.82,63.1c-2.07,20.32-3.36,40.72-3.87,61.13
			c-0.51,20.32-0.26,40.66,0.76,60.96c1.02,20.3,2.81,40.56,5.36,60.72c2.67,21.08,6.03,42.06,10.28,62.88
			c0.52,2.53,1.04,5.05,1.58,7.57c0.63,2.96,3.19,5.97,5.74,7.47c2.68,1.57,6.63,2.23,9.63,1.26
			C1025.31,1192.29,1028.76,1185.96,1027.29,1179.1L1027.29,1179.1z"/>
	</g>
</g>
<g>
	<g>
		<path class="st2" d="M1061.79,1169.48c6.66-34.4,14.71-68.52,24.14-102.26c9.43-33.74,20.24-67.1,32.38-99.96
			c6.84-18.51,14.1-36.86,21.77-55.04c-0.42,1-0.84,1.99-1.26,2.99c18.7-44.27,39.84-87.51,63.35-129.44
			c6.56-11.69,13.3-23.28,20.22-34.77c3.38-5.61,1.43-13.98-4.48-17.1c-6.06-3.2-13.5-1.5-17.1,4.48
			c-15.27,25.35-29.68,51.22-43.17,77.57c-13.49,26.34-26.07,53.15-37.73,80.35c-11.98,27.97-23.09,56.3-33.15,85.02
			c-9.74,27.81-18.53,55.96-26.35,84.37c-7.85,28.53-14.72,57.34-20.59,86.35c-0.73,3.6-1.44,7.19-2.13,10.79
			c-0.65,3.34-0.5,6.62,1.26,9.63c1.52,2.59,4.49,5.07,7.47,5.74C1052.59,1179.62,1060.46,1176.35,1061.79,1169.48L1061.79,1169.48z
			"/>
	</g>
</g>
<g>
	<g>
		<path class="st2" d="M1106.59,1199.86c15.11-11.5,30.22-22.99,45.32-34.49c15.17-11.55,30.35-23.09,45.52-34.64
			c15.11-11.5,30.22-22.99,45.32-34.49c15.11-11.5,30.22-22.99,45.32-34.49c15.17-11.55,30.35-23.09,45.52-34.64
			c1.86-1.41,3.71-2.82,5.57-4.24c1.46-0.79,2.63-1.86,3.51-3.22c1.1-1.21,1.85-2.62,2.24-4.25c0.82-2.99,0.45-6.98-1.26-9.63
			c-1.72-2.67-4.28-5.02-7.47-5.74c-3.05-0.69-7.02-0.73-9.63,1.26c-15.11,11.5-30.22,22.99-45.32,34.49
			c-15.17,11.55-30.35,23.09-45.52,34.64c-15.11,11.5-30.22,22.99-45.32,34.49c-15.11,11.5-30.22,22.99-45.32,34.49
			c-15.17,11.55-30.35,23.09-45.52,34.64c-1.86,1.41-3.71,2.82-5.57,4.24c-1.46,0.79-2.63,1.86-3.51,3.22
			c-1.1,1.21-1.85,2.62-2.24,4.25c-0.82,2.99-0.45,6.98,1.26,9.63c1.72,2.67,4.28,5.02,7.47,5.74
			C1100.01,1201.82,1103.98,1201.85,1106.59,1199.86L1106.59,1199.86z"/>
	</g>
</g>
<g>
	<g>
		<path class="st2" d="M1101.84,1180.03c6.07-17.75,12.76-35.28,20.06-52.56c-0.42,1-0.84,1.99-1.26,2.99
			c10.68-25.26,22.63-49.98,35.81-74.04c13.18-24.06,27.56-47.45,43.07-70.07c8.78-12.81,17.94-25.36,27.43-37.66
			c-0.65,0.84-1.3,1.69-1.95,2.53c15.3-19.79,31.48-38.88,48.52-57.19c17.03-18.31,34.91-35.83,53.56-52.48
			c10.53-9.4,21.32-18.52,32.33-27.35c2.34-1.88,3.66-5.98,3.66-8.84c0-3.07-1.36-6.73-3.66-8.84c-2.38-2.19-5.51-3.81-8.84-3.66
			c-3.51,0.16-6.11,1.47-8.84,3.66c-23.44,18.8-45.83,38.91-67.02,60.22c-21.12,21.23-41.07,43.63-59.73,67.05
			c-19.21,24.1-37.2,49.16-53.69,75.2c-16.07,25.39-30.76,51.66-43.94,78.66c-13.57,27.78-25.62,56.34-36.01,85.46
			c-1.22,3.42-2.42,6.85-3.59,10.28c-2.12,6.19,2.42,13.94,8.73,15.38C1093.41,1190.34,1099.58,1186.66,1101.84,1180.03
			L1101.84,1180.03z"/>
	</g>
</g>
<g>
	<g>
		<path class="st2" d="M1103.84,1247.33c20.21,16.83,41.72,32.1,64.43,45.37c22.55,13.18,46.23,24.37,70.61,33.73
			c23.33,8.95,47.38,16.02,71.85,21.08c25.26,5.22,51.01,8.44,76.78,9.45c24.95,0.98,49.97-0.17,74.72-3.46
			c3.99-0.53,7.98-1.08,11.96-1.69c2.89-0.45,6.06-3.34,7.47-5.74c1.57-2.68,2.23-6.63,1.26-9.63c-0.98-3.02-2.85-5.94-5.74-7.47
			c-3.16-1.67-6.12-1.8-9.63-1.26c-2.87,0.44-5.75,0.86-8.63,1.25c1.11-0.15,2.22-0.3,3.32-0.45c-30.22,4.03-60.84,4.83-91.24,2.5
			c-8.59-0.66-17.16-1.57-25.7-2.72c1.11,0.15,2.22,0.3,3.32,0.45c-31.37-4.25-62.29-11.76-92.12-22.36
			c-8.45-3-16.81-6.25-25.08-9.74c1,0.42,1.99,0.84,2.99,1.26c-28.44-12.02-55.68-26.85-81.16-44.3
			c-7.25-4.96-14.34-10.13-21.29-15.5c0.84,0.65,1.69,1.3,2.53,1.95c-4.38-3.39-8.7-6.86-12.96-10.41
			c-2.61-2.17-5.33-3.66-8.84-3.66c-3.07,0-6.73,1.36-8.84,3.66c-2.19,2.38-3.81,5.51-3.66,8.84
			C1100.32,1241.63,1101.33,1245.24,1103.84,1247.33L1103.84,1247.33z"/>
	</g>
</g>
<g>
	<g>
		<path class="st2" d="M1115.38,1233.94c23.07,1.68,46.24,1.78,69.32,0.33c24.09-1.52,48.12-4.66,71.79-9.33
			c22.69-4.48,45.09-10.45,67.01-17.85c22.83-7.71,45.19-16.96,66.81-27.61c20.75-10.21,40.81-21.81,59.99-34.74
			c2.38-1.6,4.74-3.23,7.09-4.87c2.71-1.89,4.84-4.19,5.74-7.47c0.82-2.99,0.45-6.98-1.26-9.63c-1.72-2.67-4.28-5.02-7.47-5.74
			c-3.13-0.71-6.9-0.65-9.63,1.26c-23.04,16.09-47.4,30.25-72.76,42.36c-7.24,3.46-14.57,6.74-21.96,9.87
			c1-0.42,1.99-0.84,2.99-1.26c-33.65,14.18-68.75,24.88-104.6,31.85c-10.13,1.97-20.32,3.64-30.55,5.02
			c1.11-0.15,2.22-0.3,3.32-0.45c-27.28,3.64-54.84,5.17-82.35,4.44c-7.84-0.21-15.66-0.6-23.48-1.17
			c-3.06-0.22-6.73,1.55-8.84,3.66c-2.17,2.17-3.8,5.73-3.66,8.84c0.14,3.23,1.21,6.59,3.66,8.84
			C1109.08,1232.62,1111.92,1233.69,1115.38,1233.94L1115.38,1233.94z"/>
	</g>
</g>
<g>
	<g>
		<path class="st2" d="M1089.98,1275.84c15.62,14.99,31.76,29.44,48.38,43.31c17.31,14.45,35.14,28.3,53.4,41.53
			c17.47,12.65,35.37,24.71,53.66,36.14c18.36,11.47,37.12,22.31,56.23,32.48c19.04,10.14,38.42,19.62,58.12,28.42
			c2.47,1.1,4.95,2.2,7.43,3.28c1.43,0.91,2.98,1.41,4.65,1.48c1.66,0.37,3.32,0.3,4.98-0.22c2.9-0.8,6.04-3.04,7.47-5.74
			c1.53-2.9,2.3-6.42,1.26-9.63c-0.93-2.89-2.84-6.2-5.74-7.47c-27.72-12.1-54.85-25.54-81.27-40.27
			c-26.28-14.65-51.86-30.55-76.62-47.64c-13.89-9.59-27.51-19.55-40.87-29.86c0.84,0.65,1.69,1.3,2.53,1.95
			c-20.65-15.97-40.65-32.78-59.91-50.41c-5.4-4.94-10.74-9.95-16.03-15.02c-2.34-2.25-5.57-3.66-8.84-3.66
			c-3.07,0-6.73,1.36-8.84,3.66c-2.19,2.38-3.81,5.51-3.66,8.84C1086.47,1270.28,1087.56,1273.52,1089.98,1275.84L1089.98,1275.84z"
			/>
	</g>
</g>
<g>
	<g>
		<path class="st2" d="M1864.87,1154.45c16.98-32.66,35.09-64.73,54.31-96.13c19.11-31.21,39.3-61.76,60.53-91.57
			c11.99-16.84,24.31-33.43,36.94-49.79c-0.65,0.84-1.3,1.69-1.95,2.53c13.17-17.03,26.67-33.8,40.52-50.28
			c13.92-16.56,28.18-32.84,42.76-48.82c8.2-8.98,16.51-17.87,24.91-26.66c4.52-4.73,5.05-13.04,0-17.68
			c-4.9-4.5-12.85-5.05-17.68,0c-20.23,21.16-39.88,42.88-58.91,65.13c-19.51,22.82-38.33,46.21-56.56,70.07
			c-17.71,23.18-34.78,46.85-51.18,70.97c-16.4,24.12-32.13,48.7-47.17,73.69c-15.04,24.99-29.39,50.4-43.02,76.19
			c-1.71,3.24-3.41,6.48-5.1,9.72c-3.01,5.8-1.69,13.84,4.48,17.1C1853.51,1161.97,1861.65,1160.65,1864.87,1154.45L1864.87,1154.45
			z"/>
	</g>
</g>
<g>
	<g>
		<path class="st2" d="M1835.21,1139.44c-8.92-20.51-17.83-41.01-26.75-61.52c-8.92-20.51-17.83-41.01-26.75-61.52
			c-8.92-20.51-17.83-41.01-26.75-61.52c-8.92-20.51-17.83-41.01-26.75-61.52c-8.92-20.51-17.83-41.01-26.75-61.52
			c-1.13-2.6-2.26-5.2-3.39-7.8c-1.16-2.68-4.79-5.01-7.47-5.74c-2.99-0.82-6.98-0.45-9.63,1.26c-2.67,1.72-5.02,4.28-5.74,7.47
			c-0.15,1.11-0.3,2.22-0.45,3.32c0.01,2.26,0.58,4.36,1.71,6.31c8.92,20.51,17.83,41.01,26.75,61.52
			c8.92,20.51,17.83,41.01,26.75,61.52c8.92,20.51,17.83,41.01,26.75,61.52c8.92,20.51,17.83,41.01,26.75,61.52
			c8.92,20.51,17.83,41.01,26.75,61.52c1.13,2.6,2.26,5.2,3.39,7.8c1.16,2.68,4.79,5.01,7.47,5.74c2.99,0.82,6.98,0.45,9.63-1.26
			c2.67-1.72,5.02-4.28,5.74-7.47c0.15-1.11,0.3-2.22,0.45-3.32C1836.91,1143.5,1836.34,1141.39,1835.21,1139.44L1835.21,1139.44z"
			/>
	</g>
</g>
<g>
	<g>
		<path class="st2" d="M1852.23,1145.25c-2.54-27.23-3.88-54.57-3.99-81.92c-0.11-27.35,0.98-54.7,3.28-81.95
			c1.3-15.46,2.99-30.88,5.05-46.25c-0.15,1.11-0.3,2.22-0.45,3.32c4.24-31.42,10.04-62.62,17.43-93.46
			c7.39-30.83,16.35-61.28,26.85-91.19c5.95-16.95,12.4-33.71,19.33-50.28c1.16-2.77,0.18-7.17-1.26-9.63
			c-1.52-2.59-4.49-5.07-7.47-5.74c-3.2-0.73-6.79-0.57-9.63,1.26c-2.92,1.89-4.41,4.29-5.74,7.47
			c-11.44,27.37-21.57,55.27-30.33,83.61c-8.76,28.34-16.15,57.1-22.17,86.14c-6.16,29.74-10.85,59.78-14.2,89.97
			c-3.27,29.48-5.14,59.12-5.59,88.77c-0.45,29.66,0.52,59.33,2.93,88.9c0.3,3.66,0.62,7.32,0.96,10.98
			c0.32,3.38,1.18,6.36,3.66,8.84c2.17,2.17,5.73,3.8,8.84,3.66C1845.98,1157.47,1852.88,1152.23,1852.23,1145.25L1852.23,1145.25z"
			/>
	</g>
</g>
<g>
	<g>
		<path class="st2" d="M1792.53,1150.78c-30.93-7.82-61.85-15.65-92.78-23.47c-30.84-7.8-61.69-15.61-92.53-23.41
			c-17.36-4.39-34.72-8.78-52.08-13.18c-3.18-0.81-6.77-0.41-9.63,1.26c-2.59,1.52-5.07,4.49-5.74,7.47
			c-0.73,3.2-0.57,6.79,1.26,9.63c1.75,2.71,4.27,4.94,7.47,5.74c30.93,7.82,61.85,15.65,92.78,23.47
			c30.84,7.8,61.69,15.61,92.53,23.41c17.36,4.39,34.72,8.78,52.08,13.18c3.18,0.81,6.77,0.41,9.63-1.26
			c2.59-1.52,5.07-4.49,5.74-7.47c0.73-3.2,0.57-6.79-1.26-9.63C1798.25,1153.82,1795.72,1151.59,1792.53,1150.78L1792.53,1150.78z"
			/>
	</g>
</g>
<g>
	<g>
		<path class="st2" d="M1811.07,1147.87c-15.67-23.11-33.19-45.04-52.32-65.39c-18.53-19.71-38.6-37.97-59.94-54.6
			c-22-17.14-45.09-32.76-69.43-46.41c-24.46-13.72-50.02-25.48-76.29-35.3c-25.25-9.44-51.24-16.92-77.67-22.25
			c-3.26-0.66-6.53-1.28-9.81-1.88c-3.37-0.61-6.58-0.52-9.63,1.26c-2.59,1.52-5.07,4.49-5.74,7.47c-0.73,3.2-0.57,6.79,1.26,9.63
			c1.67,2.6,4.31,5.17,7.47,5.74c28.77,5.22,57.07,12.96,84.53,23.03c7.72,2.84,15.38,5.86,22.96,9.05c-1-0.42-1.99-0.84-2.99-1.26
			c16.46,6.95,32.56,14.72,48.24,23.29c15.75,8.61,31.07,18.02,45.87,28.18c8.31,5.7,16.45,11.63,24.42,17.79
			c-0.84-0.65-1.69-1.3-2.53-1.95c27.28,21.11,52.53,44.84,75.15,70.89c6.43,7.4,12.64,14.99,18.64,22.75
			c-0.65-0.84-1.3-1.69-1.95-2.53c6.31,8.18,12.37,16.56,18.17,25.11c1.84,2.72,4.23,4.85,7.47,5.74c2.99,0.82,6.98,0.45,9.63-1.26
			C1811.97,1161.5,1815,1153.65,1811.07,1147.87L1811.07,1147.87z"/>
	</g>
</g>
<g>
	<g>
		<path class="st2" d="M1770.35,1181.55c-28.65,7.07-56.52,16.69-83.65,28.28c-26.11,11.16-51.32,24.39-75.37,39.48
			c-24.8,15.56-48.4,33.11-70.53,52.28c-21.53,18.64-41.61,38.96-59.96,60.73c-18.92,22.44-36.18,46.33-51.26,71.53
			c-1.78,2.97-3.53,5.96-5.25,8.97c-3.25,5.68-1.52,13.93,4.48,17.1c5.94,3.14,13.63,1.58,17.1-4.48
			c9.37-16.38,19.63-32.25,30.71-47.52c3.15-4.34,6.37-8.63,9.65-12.88c-0.65,0.84-1.3,1.69-1.95,2.53
			c11.07-14.3,22.85-28.05,35.3-41.17c12.45-13.13,25.55-25.63,39.24-37.47c7.73-6.68,15.65-13.15,23.73-19.39
			c-0.84,0.65-1.69,1.3-2.53,1.95c14.54-11.21,29.62-21.71,45.2-31.42c15.57-9.71,31.63-18.64,48.1-26.74
			c9.32-4.58,18.77-8.89,28.34-12.93c-1,0.42-1.99,0.84-2.99,1.26c19.78-8.33,40.05-15.48,60.7-21.35
			c5.83-1.66,11.69-3.21,17.58-4.66c6.35-1.57,10.77-9.07,8.73-15.38C1783.59,1183.69,1777.16,1179.87,1770.35,1181.55
			L1770.35,1181.55z"/>
	</g>
</g>
<g>
	<g>
		<path class="st2" d="M1766.62,1213.05c-14.78,15.23-28.73,31.24-41.8,47.96c-13.58,17.38-26.35,35.36-38.05,54.06
			c-11.25,17.99-21.55,36.57-30.86,55.64c-9.67,19.82-18.31,40.17-25.87,60.89c-7.24,19.86-13.43,40.1-18.51,60.62
			c-0.64,2.58-1.26,5.17-1.87,7.76c-0.76,3.24-0.44,6.72,1.26,9.63c1.52,2.59,4.49,5.07,7.47,5.74c3.2,0.73,6.79,0.57,9.63-1.26
			c2.68-1.73,5-4.28,5.74-7.47c6-25.69,13.72-50.98,23.08-75.65c2.64-6.95,5.41-13.86,8.3-20.71c-0.42,1-0.84,1.99-1.26,2.99
			c7.93-18.75,16.78-37.11,26.55-54.97c9.77-17.86,20.43-35.23,31.94-52.02c6.46-9.43,13.2-18.67,20.19-27.71
			c-0.65,0.84-1.3,1.69-1.95,2.53c10.59-13.68,21.76-26.92,33.5-39.63c3.35-3.62,6.74-7.2,10.17-10.74
			c2.25-2.32,3.66-5.58,3.66-8.84c0-3.07-1.36-6.73-3.66-8.84c-2.38-2.19-5.51-3.81-8.84-3.66
			C1772.17,1209.54,1768.96,1210.63,1766.62,1213.05L1766.62,1213.05z"/>
	</g>
</g>
<g>
	<g>
		<path class="st2" d="M1786.52,1239.77c-13.07,13.85-24.69,29.21-34.51,45.53c-9.76,16.24-17.74,33.6-24.05,51.46
			c-6.05,17.13-10.38,34.87-12.92,52.86c-2.67,18.92-3.77,37.96-2.59,57.05c1.17,18.99,4.21,37.98,9.37,56.3
			c0.61,2.15,1.25,4.3,1.91,6.44c0.95,3.07,2.94,5.83,5.74,7.47c2.68,1.57,6.63,2.23,9.63,1.26c3.02-0.98,5.94-2.85,7.47-5.74
			c1.54-2.92,2.27-6.39,1.26-9.63c-4.14-13.32-7.14-26.97-9.01-40.79c0.15,1.11,0.3,2.22,0.45,3.32
			c-2.45-18.25-2.94-36.74-1.55-55.09c0.4-5.25,0.96-10.49,1.66-15.7c-0.15,1.11-0.3,2.22-0.45,3.32
			c2.52-18.59,6.94-36.92,13.2-54.61c1.78-5.02,3.71-9.99,5.78-14.9c-0.42,1-0.84,1.99-1.26,2.99c6.79-16.04,15.1-31.43,24.92-45.82
			c2.78-4.07,5.68-8.06,8.69-11.96c-0.65,0.84-1.3,1.69-1.95,2.53c4.99-6.45,10.29-12.66,15.89-18.6c2.24-2.37,3.66-5.54,3.66-8.84
			c0-3.07-1.36-6.73-3.66-8.84c-2.38-2.19-5.51-3.81-8.84-3.66C1792.1,1236.25,1788.82,1237.33,1786.52,1239.77L1786.52,1239.77z"/>
	</g>
</g>
<g>
	<g>
		<path class="st2" d="M1806.17,1257.86c-4.15,18.86-6.65,38.15-7.45,57.45c-0.76,18.27,0.05,36.61,2.38,54.75
			c2.45,19.14,6.22,38.04,11.78,56.53c5.54,18.39,12.68,36.36,21.2,53.57c8.11,16.39,17.62,32.08,28.47,46.81
			c1.36,1.85,2.75,3.68,4.15,5.5c0.79,1.46,1.86,2.63,3.22,3.51c1.21,1.1,2.62,1.85,4.25,2.24c2.99,0.82,6.98,0.45,9.63-1.26
			c2.67-1.72,5.02-4.28,5.74-7.47c0.69-3.04,0.74-7.04-1.26-9.63c-12.88-16.7-24.02-34.71-33.28-53.66
			c-2.65-5.41-5.14-10.9-7.48-16.45c0.42,1,0.84,1.99,1.26,2.99c-8.79-20.9-15.42-42.7-19.75-64.96
			c-1.23-6.34-2.28-12.71-3.14-19.11c0.15,1.11,0.3,2.22,0.45,3.32c-2.94-22.04-3.68-44.37-2.06-66.54
			c0.46-6.29,1.11-12.57,1.94-18.82c-0.15,1.11-0.3,2.22-0.45,3.32c1.15-8.53,2.65-17.01,4.5-25.42c0.72-3.27,0.46-6.69-1.26-9.63
			c-1.52-2.59-4.49-5.07-7.47-5.74c-3.2-0.73-6.79-0.57-9.63,1.26C1809.25,1252.1,1806.87,1254.68,1806.17,1257.86L1806.17,1257.86z
			"/>
	</g>
</g>
<g>
	<g>
		<path class="st2" d="M1850.29,1252.77c-6.76,26.8-9.66,54.74-8.47,82.35c1.18,27.53,6.12,55.06,15,81.15
			c8.32,24.45,19.84,47.83,34.5,69.1c14,20.33,30.44,39.01,49.11,55.18c18.53,16.05,38.96,29.97,60.95,40.82
			c2.67,1.31,5.36,2.58,8.07,3.81c3.15,1.43,6.17,2.21,9.63,1.26c2.9-0.8,6.04-3.04,7.47-5.74c1.53-2.9,2.3-6.42,1.26-9.63
			c-0.94-2.91-2.84-6.15-5.74-7.47c-19.27-8.73-37.46-19.73-54.22-32.63c0.84,0.65,1.69,1.3,2.53,1.95
			c-14.64-11.32-28.17-24.06-40.31-38.03c-3.47-3.99-6.82-8.08-10.06-12.26c0.65,0.84,1.3,1.69,1.95,2.53
			c-10.91-14.12-20.47-29.26-28.43-45.23c-2.5-5.03-4.84-10.14-7.03-15.31c0.42,1,0.84,1.99,1.26,2.99
			c-7.35-17.48-12.87-35.7-16.49-54.31c-1.03-5.29-1.9-10.61-2.63-15.95c0.15,1.11,0.3,2.22,0.45,3.32
			c-2.58-19.25-3.2-38.76-1.76-58.13c0.41-5.47,0.98-10.92,1.71-16.35c-0.15,1.11-0.3,2.22-0.45,3.32
			c1.38-10.13,3.31-20.17,5.81-30.09c0.8-3.19,0.41-6.77-1.26-9.63c-1.52-2.59-4.49-5.07-7.47-5.74
			C1859.18,1242.56,1852,1245.99,1850.29,1252.77L1850.29,1252.77z"/>
	</g>
</g>
<g>
	<g>
		<path class="st2" d="M1868.78,1255.41c23.03,19.45,46.05,38.89,69.08,58.34c22.9,19.34,45.8,38.68,68.7,58.02
			c12.98,10.96,25.95,21.92,38.93,32.88c2.58,2.18,5.35,3.66,8.84,3.66c3.07,0,6.73-1.36,8.84-3.66c2.19-2.38,3.81-5.51,3.66-8.84
			c-0.14-3.15-1.16-6.72-3.66-8.84c-23.03-19.45-46.05-38.89-69.08-58.34c-22.9-19.34-45.8-38.68-68.7-58.02
			c-12.98-10.96-25.95-21.92-38.93-32.88c-2.58-2.18-5.35-3.66-8.84-3.66c-3.07,0-6.73,1.36-8.84,3.66
			c-2.19,2.38-3.81,5.51-3.66,8.84C1865.26,1249.72,1866.27,1253.3,1868.78,1255.41L1868.78,1255.41z"/>
	</g>
</g>
<g>
	<g>
		<path class="st2" d="M1891.21,1229.46c40.11-4.78,80.45-7.59,120.84-8.39c40.27-0.8,80.58,0.37,120.73,3.52
			c22.59,1.77,45.14,4.17,67.6,7.19c-1.11-0.15-2.22-0.3-3.32-0.45c17.46,2.35,34.86,5.07,52.2,8.17c3.38,0.6,6.57,0.53,9.63-1.26
			c2.59-1.52,5.07-4.49,5.74-7.47c0.73-3.2,0.57-6.79-1.26-9.63c-1.67-2.59-4.31-5.18-7.47-5.74c-24.1-4.3-48.34-7.87-72.65-10.79
			c-23.55-2.83-47.18-4.97-70.86-6.43c-23.56-1.45-47.16-2.23-70.76-2.33c-23.6-0.1-47.21,0.49-70.78,1.75
			c-23.69,1.27-47.33,3.22-70.91,5.87c-2.92,0.33-5.83,0.67-8.75,1.01c-3.43,0.41-6.3,1.12-8.84,3.66c-2.17,2.17-3.8,5.73-3.66,8.84
			c0.14,3.23,1.21,6.59,3.66,8.84C1884.64,1227.89,1887.99,1229.84,1891.21,1229.46L1891.21,1229.46z"/>
	</g>
</g>
<g>
	<g>
		<path class="st2" d="M1883.42,1169.08c8.22-6.82,16.55-13.49,25-20.02c-0.84,0.65-1.69,1.3-2.53,1.95
			c24.67-19.04,50.29-36.83,76.75-53.28c26.37-16.39,53.57-31.45,81.45-45.12c15.75-7.72,31.72-14.99,47.88-21.81
			c-1,0.42-1.99,0.84-2.99,1.26c37.95-15.99,76.95-29.48,116.7-40.27c11.15-3.03,22.35-5.84,33.6-8.44
			c6.38-1.48,10.75-9.14,8.73-15.38c-2.16-6.66-8.54-10.31-15.38-8.73c-27.39,6.34-54.48,13.93-81.17,22.75
			c-27.31,9.03-54.15,19.39-80.53,30.82c-25.79,11.18-51.07,23.53-75.75,37c-24.58,13.42-48.54,27.94-71.8,43.53
			c-23.96,16.06-47.16,33.26-69.56,51.43c-2.71,2.2-5.4,4.41-8.08,6.64c-2.33,1.93-3.66,5.93-3.66,8.84c0,3.07,1.36,6.73,3.66,8.84
			c2.38,2.19,5.51,3.81,8.84,3.66C1878.07,1172.59,1880.75,1171.3,1883.42,1169.08L1883.42,1169.08z"/>
	</g>
</g>
<g>
	<g>
		<path class="st2" d="M1894.68,1192.77c24.11-3.76,48.07-8.47,71.8-14.13c23.73-5.66,47.24-12.26,70.46-19.78
			c23.12-7.48,45.94-15.87,68.4-25.14c23.37-9.64,46.38-20.1,68.93-31.54c21.76-11.04,43.08-22.95,63.89-35.69
			c2.56-1.57,5.11-3.14,7.65-4.73c5.54-3.46,8.22-11.31,4.48-17.1c-3.58-5.55-11.17-8.19-17.1-4.48
			c-32.61,20.39-66.49,38.74-101.39,54.91c-9.76,4.52-19.59,8.87-29.5,13.05c1-0.42,1.99-0.84,2.99-1.26
			c-27.16,11.44-54.84,21.61-82.96,30.43c-28.11,8.82-56.65,16.31-85.47,22.41c-16.18,3.43-32.46,6.41-48.81,8.96
			c-2.89,0.45-6.06,3.33-7.47,5.74c-1.57,2.68-2.23,6.63-1.26,9.63c0.98,3.02,2.85,5.94,5.74,7.47c1,0.42,1.99,0.84,2.99,1.26
			C1890.25,1193.37,1892.46,1193.37,1894.68,1192.77L1894.68,1192.77z"/>
	</g>
</g>
<path class="st3" d="M1241.16,1744.81c0,0,11.4-5.44,30.41-13.1c57.04-22.98,182.62-65.93,274.55-41.73c0,0,0,190.32-128.81,219.35
	C1315.25,1932.33,1241.16,1744.81,1241.16,1744.81z"/>
<path class="st4" d="M1326.86,1875.49c0,0,49.11-91.35,135.44-108.01c62.97-12.15,73.59,0.06,73.59,0.06s-21.09,101.16-79.8,126.35
	C1397.38,1919.08,1386.62,1925.69,1326.86,1875.49z"/>
<circle class="st2" cx="1057.26" cy="1224.2" r="7.53"/>
<circle class="st2" cx="1835.72" cy="1204.25" r="7.53"/>
</svg>
