<?xml version="1.0" encoding="utf-8"?>
<!-- Generator: Adobe Illustrator 25.4.1, SVG Export Plug-In . SVG Version: 6.00 Build 0)  -->
<svg version="1.1" id="Calque_1" xmlns="http://www.w3.org/2000/svg" xmlns:xlink="http://www.w3.org/1999/xlink" x="0px" y="0px"
	 viewBox="0 0 2834.65 2834.65" style="enable-background:new 0 0 2834.65 2834.65;" xml:space="preserve">
<style type="text/css">
	.st0{fill:#FF2A76;stroke:#1D1D1B;stroke-width:7;stroke-miterlimit:10;}
	.st1{fill:#FFFFFF;stroke:#1D1D1B;stroke-width:6;stroke-miterlimit:10;}
	.st2{fill:#17EFFF;stroke:#1D1D1B;stroke-width:7;stroke-miterlimit:10;}
	.st3{fill:#FFFFFD;stroke:#1D1E1C;stroke-width:4;stroke-miterlimit:10;}
</style>
<path class="st0" d="M1378.37,678.32c0,0,503.97-311.98,847.95,68c637.49,704.21-815.19,1639.9-815.19,1639.9
	S190.44,1674.26,434.43,950.31C614.74,415.28,1378.37,678.32,1378.37,678.32z"/>
<path class="st1" d="M1241.16,1744.81c0,0,11.4-5.44,30.41-13.1c57.04-22.98,182.62-65.93,274.55-41.73c0,0,0,190.32-128.81,219.35
	C1315.25,1932.33,1241.16,1744.81,1241.16,1744.81z"/>
<path class="st2" d="M1326.86,1875.49c0,0,49.11-91.35,135.44-108.01c62.97-12.15,73.59,0.06,73.59,0.06s-21.09,101.16-79.8,126.35
	C1397.38,1919.08,1386.62,1925.69,1326.86,1875.49z"/>
<path class="st3" d="M1712.8,1152.77c177.66,5.47,231.53-15.88,238.6,58.99c6.07,64.58,44.13,134.69-39.65,145.09
	c-194.57,24.05-988.26,53.5-1101.63,9.9c-54.84-21.09-4.09-89.77,0.5-153.04C817.3,1120.12,1552.82,1147.8,1712.8,1152.77z"/>
</svg>
