<?xml version="1.0" encoding="utf-8"?>
<!-- Generator: Adobe Illustrator 25.4.1, SVG Export Plug-In . SVG Version: 6.00 Build 0)  -->
<svg version="1.1" id="Calque_1" xmlns="http://www.w3.org/2000/svg" xmlns:xlink="http://www.w3.org/1999/xlink" x="0px" y="0px"
	 viewBox="0 0 2834.65 2834.65" style="enable-background:new 0 0 2834.65 2834.65;" xml:space="preserve">
<style type="text/css">
	.st0{fill:#FF2A76;stroke:#1D1D1B;stroke-width:7;stroke-miterlimit:10;}
	.st1{fill:#FFFFFF;stroke:#1D1D1B;stroke-width:6;stroke-miterlimit:10;}
	.st2{fill:#17EFFF;stroke:#1D1D1B;stroke-width:7;stroke-miterlimit:10;}
	.st3{fill:#FFFFFD;stroke:#1D1E1C;stroke-width:4;stroke-miterlimit:10;}
</style>
<path class="st0" d="M1378.37,678.32c0,0,503.97-311.98,847.95,68c637.49,704.21-815.19,1639.9-815.19,1639.9
	S190.44,1674.26,434.43,950.31C614.74,415.28,1378.37,678.32,1378.37,678.32z"/>
<path class="st1" d="M1241.16,1744.81c0,0,11.4-5.44,30.41-13.1c57.04-22.98,182.62-65.93,274.55-41.73c0,0,0,190.32-128.81,219.35
	C1315.25,1932.33,1241.16,1744.81,1241.16,1744.81z"/>
<path class="st2" d="M1326.86,1875.49c0,0,49.11-91.35,135.44-108.01c62.97-12.15,73.59,0.06,73.59,0.06s-21.09,101.16-79.8,126.35
	C1397.38,1919.08,1386.62,1925.69,1326.86,1875.49z"/>
<path class="st3" d="M1716.94,1156.73c71.68-32.07-104.2-340.63,163.24-270.08c101.18,26.74,69.54,113.42,57.69,237.95
	c-4.8,50.4,6.01,37.33,110.91,46.14c116.52,9.76,152.65-2.41,154.69,47.01c1.76,42.63,24.33,90.01-31.08,93.93
	c-158.33,11.14-145.95,13.74-248.42,7.32c-19.37-1.26,0,0-5.42,129.76c-4.2,99.74,2.94,109.33-31.67,112.23
	c-67.38,5.58-74.16,13.53-104.75-23.84c-62.98-76.75-16.55-184.83-62.35-219.32c-33.74-25.34-293.48,82.48-265.7-138.31
	C1461.67,1118.27,1693.68,1167.18,1716.94,1156.73z"/>
<path class="st3" d="M821.19,1145.83c73.59-32.93-106.97-349.71,167.59-277.28c103.87,27.45,71.39,116.44,59.23,244.29
	c-4.92,51.74,6.17,38.32,113.86,47.37c119.62,10.02,156.72-2.47,158.81,48.26c1.81,43.76,24.98,92.41-31.9,96.43
	c-162.55,11.44-149.84,14.11-255.04,7.52c-19.88-1.29,0,0-5.57,133.21c-4.31,102.4,3.02,112.24-32.52,115.22
	c-69.17,5.73-76.14,13.89-107.54-24.48c-64.66-78.8-16.99-189.75-64.01-225.16c-34.64-26.02-301.3,84.68-272.78-141.99
	C559.12,1106.34,797.31,1156.55,821.19,1145.83z"/>
</svg>
