<?xml version="1.0" encoding="utf-8"?>
<!-- Generator: Adobe Illustrator 25.4.1, SVG Export Plug-In . SVG Version: 6.00 Build 0)  -->
<svg version="1.1" id="Calque_1" xmlns="http://www.w3.org/2000/svg" xmlns:xlink="http://www.w3.org/1999/xlink" x="0px" y="0px"
	 viewBox="0 0 822.05 822.05" style="enable-background:new 0 0 822.05 822.05;" xml:space="preserve">
<style type="text/css">
	.st0{fill:#DF3078;stroke:#000000;stroke-width:8;stroke-miterlimit:10;}
	.st1{fill:#FFED00;stroke:#000000;stroke-width:4;stroke-miterlimit:10;}
	.st2{fill:#E26AA5;stroke:#000000;stroke-width:3;stroke-miterlimit:10;}
	.st3{fill:#F08118;stroke:#000000;stroke-width:3;stroke-miterlimit:10;}
	.st4{fill:#FFED00;stroke:#000000;stroke-width:3;stroke-miterlimit:10;}
	.st5{fill:#FFFFFF;stroke:#000000;stroke-width:3;stroke-miterlimit:10;}
	.st6{fill:none;stroke:#000000;stroke-width:4;stroke-miterlimit:10;}
	.st7{fill:none;stroke:#000000;stroke-width:3;stroke-miterlimit:10;}
</style>
<path class="st0" d="M685,557.4c-47.23,69.39-148.12,80.74-225.32,97.05c-164.52,34.76-317.61-17.48-290.45-207.37
	c26.4-184.59,209.32-280.4,367.87-237.84C703.1,253.8,773.19,427.85,685,557.4z"/>
<path class="st1" d="M186.51,372.74c0,0-182.47-23.09-163.09-130.45s34.3-107.9,34.3-107.9s49.21-38.02,67.1,28.23l7.46-39.09
	c0,0,29.82-19.5,46.22,10.86s16.4,30.36,16.4,30.36s2.95-15.49,10.44-24.43s38.77-9.86,41.75,6.54s-21.95,63.99-11.93,98.2
	s10.02,34.21,10.02,34.21L186.51,372.74z"/>
<path class="st2" d="M352.21,517.6c1.59,8.3,5.54,28.8,23.81,37.97c14.36,7.21,35.93,6.57,46.05-6.25
	c6.94-8.79,5.8-19.86,5.17-25.91c-0.31-3.03-3.67-31.09-27.4-40.51c-16.22-6.43-38.67-2.85-46.46,10.72
	C349.05,501.16,350.63,509.39,352.21,517.6z"/>
<path class="st3" d="M396.63,490.66c-31.12,49.94-106.09,20.43-145.94,0c-30.98-15.88-51.97-69.92-60.03-96.57
	c-15.94-52.73,46.54-109.91,79.78-134.29c31.88-23.38,116.7-77.11,171.61-34.19c24.61,19.24,46.13,42.73,58.15,52.36
	c32.94,26.41,78.83,24.01,114.08,37.54c54.85,21.05,117.47,73.31,101.44,153.35c-14.92,74.52-30.86,109.08-122.53,151.93
	c-56.73,26.52-137.71,0.17-167.71-63.34c-7.06-14.96-11.74-35.64-14.44-51.84L396.63,490.66z"/>
<path class="st4" d="M666.33,582.28c0,0,49.14-6.14,56.64-15.52s8.44-16.88,12.19-20.63s18.76-15.94,21.57-5.63
	s2.81,10.32,2.81,10.32s4.69-3.75,6.56-6.56c1.88-2.81,12.19-7.5,11.25-0.94s4.69,16.05,4.69,16.05s11.25-6.67,13.13-10.42
	s17.82-1.67,15.94,10.42s-39.39,73.04-137.85,60.85c-14.24-1.76-33.57-14.74-33.57-14.74L666.33,582.28z"/>
<path d="M394.57,452.36c16.14-12.5,53.41,6.85,51.39,31.29c-1.7,20.58-29.8,38.49-48.21,36.12C376.2,517,378.76,464.6,394.57,452.36
	z"/>
<path class="st5" d="M429.88,371.14c-9.43,36.66-32.24,70.11-72.5,59.76s-65.26-48.47-55.83-85.12
	c9.43-36.66,49.71-57.98,89.97-47.62C431.78,308.52,439.31,334.48,429.88,371.14z"/>
<path class="st5" d="M475.16,383.45c-11.15,36.17-9.22,76.62,30.51,88.86c39.73,12.25,67.88-8.32,89.32-39.51
	c20.64-30.02,8.58-71.35-31.14-83.6S486.31,347.28,475.16,383.45z"/>
<circle cx="391.19" cy="381.27" r="36.98"/>
<ellipse transform="matrix(0.1602 -0.9871 0.9871 0.1602 16.6086 839.7081)" cx="501.78" cy="410.09" rx="36.98" ry="36.98"/>
<path d="M196.91,609.31c0,0-50.93-8.03-59.34,10.81c-8.41,18.83,3.4,4.27,11.36,1.22c7.96-3.04,32.17-4.32,38.08-2.78
	s8.45,3.23,8.45,3.23s-16-3.19-31.53,0.43c-12.14,2.83-14.3,4.94-16.35,9.53c-2.16,4.84,0.02,10.42,0.44,10.09
	c17.61-13.58,11.56-10.97,21.14-13.32c11.12-2.73,23.64-0.76,23.64-0.76l11.21-0.49l-21.68,7.91c0,0-17.18,4.42-22.91,13.96
	c-5.73,9.54,7.48,3.34,7.48,3.34l9.34-7.37c0,0,8.93-6.46,20.35-7.4c11.42-0.95,21.26-2.05,21.26-2.05l4.5-10.08l-11.74-16.79
	L196.91,609.31z"/>
<path d="M274.11,654.23c0,0,17.02,35.81,4.97,46.12s-3.89-1.58-3.38-8.11c0.51-6.53-3.82-24.66-6.25-28.69
	c-2.42-4.02-4.22-5.53-4.22-5.53s5.84,11.1,6.56,23.34c0.56,9.57-0.53,11.62-3.46,14.13c-3.1,2.65-7.69,2.26-7.54,1.88
	c6.17-15.94,5.57-10.92,5.22-18.49c-0.41-8.79-4.59-17.6-4.59-17.6l-2.08-8.38l-1.11,17.71c0,0,0.48,13.63-5.3,19.94
	c-5.78,6.3-4.1-4.79-4.1-4.79l3.4-8.5c0,0,2.81-7.99,1.02-16.62s-3.12-16.12-3.12-16.12l6.45-5.52l14.94,5L274.11,654.23z"/>
<line class="st6" x1="506.62" y1="544.06" x2="632.81" y2="544.06"/>
<line class="st6" x1="525.25" y1="570.21" x2="614.19" y2="562.26"/>
<line class="st6" x1="222.37" y1="371.91" x2="325.95" y2="443.98"/>
<line class="st6" x1="222.73" y1="404" x2="300.27" y2="448.28"/>
<line class="st7" x1="327.92" y1="308.6" x2="313.95" y2="283.27"/>
<line class="st7" x1="354.21" y1="297.33" x2="354.21" y2="264.65"/>
<line class="st7" x1="391.52" y1="298.15" x2="398.23" y2="258.77"/>
<line class="st7" x1="529.54" y1="344.28" x2="529.54" y2="304.53"/>
<line class="st7" x1="563.85" y1="349.21" x2="574.45" y2="323.92"/>
<line class="st7" x1="589.35" y1="364.17" x2="616" y2="350.75"/>
</svg>
