<?xml version="1.0" encoding="utf-8"?>
<!-- Generator: Adobe Illustrator 25.4.1, SVG Export Plug-In . SVG Version: 6.00 Build 0)  -->
<svg version="1.1" id="Calque_1" xmlns="http://www.w3.org/2000/svg" xmlns:xlink="http://www.w3.org/1999/xlink" x="0px" y="0px"
	 viewBox="0 0 837 616" style="enable-background:new 0 0 837 616;" xml:space="preserve">
<style type="text/css">
	.st0{fill:#DF3078;stroke:#000000;stroke-width:8;stroke-miterlimit:10;}
	.st1{fill:#FFED00;stroke:#000000;stroke-width:4;stroke-miterlimit:10;}
	.st2{fill:#FFED00;stroke:#000000;stroke-width:3;stroke-miterlimit:10;}
	.st3{fill:#FFFFFE;stroke:#1E1E1C;stroke-width:4;stroke-miterlimit:10;}
</style>
<path class="st0" d="M692.48,454.38c-47.23,69.39-148.12,80.74-225.32,97.05c-164.52,34.76-317.61-17.48-290.45-207.37
	c26.4-184.59,209.32-280.4,367.87-237.84C710.58,150.78,780.67,324.83,692.48,454.38z"/>
<path class="st1" d="M193.99,269.72c0,0-182.47-23.09-163.09-130.45s34.3-107.9,34.3-107.9s49.21-38.02,67.1,28.23l7.46-39.09
	c0,0,29.82-19.5,46.22,10.86s16.4,30.36,16.4,30.36s2.95-15.49,10.44-24.43s38.77-9.86,41.75,6.54s-21.95,63.99-11.93,98.2
	s10.02,34.21,10.02,34.21L193.99,269.72z"/>
<path class="st2" d="M673.81,479.26c0,0,49.14-6.14,56.64-15.52c7.5-9.38,8.44-16.88,12.19-20.63c3.75-3.75,18.76-15.94,21.57-5.63
	s2.81,10.32,2.81,10.32s4.69-3.75,6.56-6.56c1.88-2.81,12.19-7.5,11.25-0.94c-0.94,6.56,4.69,16.05,4.69,16.05
	s11.25-6.67,13.13-10.42c1.88-3.75,17.82-1.67,15.94,10.42c-1.88,12.09-39.39,73.04-137.85,60.85
	c-14.24-1.76-33.57-14.74-33.57-14.74L673.81,479.26z"/>
<path d="M204.39,506.29c0,0-50.93-8.03-59.34,10.81c-8.41,18.83,3.4,4.27,11.36,1.22c7.96-3.04,32.17-4.32,38.08-2.78
	c5.91,1.54,8.45,3.23,8.45,3.23s-16-3.19-31.53,0.43c-12.14,2.83-14.3,4.94-16.35,9.53c-2.16,4.84,0.02,10.42,0.44,10.09
	c17.61-13.58,11.56-10.97,21.14-13.32c11.12-2.73,23.64-0.76,23.64-0.76l11.21-0.49l-21.68,7.91c0,0-17.18,4.42-22.91,13.96
	c-5.73,9.54,7.48,3.34,7.48,3.34l9.34-7.37c0,0,8.93-6.46,20.35-7.4c11.42-0.95,21.26-2.05,21.26-2.05l4.5-10.08l-11.74-16.79
	L204.39,506.29z"/>
<path d="M281.59,551.21c0,0,17.02,35.81,4.97,46.12c-12.05,10.31-3.89-1.58-3.38-8.11c0.51-6.53-3.82-24.66-6.25-28.69
	c-2.42-4.02-4.22-5.53-4.22-5.53s5.84,11.1,6.56,23.34c0.56,9.57-0.53,11.62-3.46,14.13c-3.1,2.65-7.69,2.26-7.54,1.88
	c6.17-15.94,5.57-10.92,5.22-18.49c-0.41-8.79-4.59-17.6-4.59-17.6l-2.08-8.38l-1.11,17.71c0,0,0.48,13.63-5.3,19.94
	c-5.78,6.3-4.1-4.79-4.1-4.79l3.4-8.5c0,0,2.81-7.99,1.02-16.62c-1.79-8.63-3.12-16.12-3.12-16.12l6.45-5.52l14.94,5L281.59,551.21z
	"/>
<path class="st3" d="M533.22,299.28c43.48,1.34,56.67-3.89,58.4,14.44c1.49,15.81,10.8,32.97-9.7,35.51
	c-47.62,5.89-241.88,13.09-269.62,2.42c-13.42-5.16-1-21.97,0.12-37.46C314.05,291.29,494.07,298.07,533.22,299.28z"/>
<path class="st3" d="M368.85,219.75c20.66,0.64,26.93-1.85,27.75,6.86c0.71,7.51,5.13,15.67-4.61,16.87
	c-22.63,2.8-114.94,6.22-128.13,1.15c-6.38-2.45-0.48-10.44,0.06-17.8C264.69,215.95,350.24,219.17,368.85,219.75z"/>
<path class="st3" d="M589.28,215.33c20.66,0.64,26.93-1.85,27.75,6.86c0.71,7.51,5.13,15.67-4.61,16.87
	c-22.63,2.8-114.94,6.22-128.13,1.15c-6.38-2.45-0.48-10.44,0.06-17.8C485.13,211.53,570.68,214.75,589.28,215.33z"/>
<path class="st3" d="M163.13,137.39c20.66,0.64,26.93-1.85,27.75,6.86c0.71,7.51,5.13,15.67-4.61,16.87
	c-22.63,2.8-114.94,6.22-128.13,1.15c-6.38-2.45-0.48-10.44,0.06-17.8C58.97,133.59,144.52,136.81,163.13,137.39z"/>
<path class="st3" d="M751.9,483.22c10.71-0.35,14.05-2.16,14.16,3.34c0.09,4.74,2.09,9.76-3.01,10.88
	c-11.85,2.6-59.92,8.15-66.58,5.41c-3.22-1.32,0.13-6.61,0.68-11.3C697.95,484.61,742.26,483.53,751.9,483.22z"/>
</svg>
