<?xml version="1.0" encoding="utf-8"?>
<!-- Generator: Adobe Illustrator 25.4.1, SVG Export Plug-In . SVG Version: 6.00 Build 0)  -->
<svg version="1.1" xmlns="http://www.w3.org/2000/svg" xmlns:xlink="http://www.w3.org/1999/xlink" x="0px" y="0px"
	 viewBox="0 0 2040.94 2040.94" style="enable-background:new 0 0 2040.94 2040.94;" xml:space="preserve">
<style type="text/css">
	.st0{fill:#3CFF8C;}
	.st1{fill:#FF43B8;}
	.st2{display:none;fill:#FFFFFF;stroke:#1D1D1B;stroke-miterlimit:10;}
	.st3{fill:#FFFFFD;stroke:#1D1E1C;stroke-width:4;stroke-miterlimit:10;}
	.st4{fill:#194092;stroke:#1D1D1B;stroke-miterlimit:10;}
	.st5{fill:#FFFFFF;stroke:#1D1D1B;stroke-miterlimit:10;}
	.st6{fill:#FFFFFF;stroke:#1D1D1B;stroke-width:1;stroke-miterlimit:10.0002;}
</style>
<g id="Calque_1">
	<polygon class="st0" points="234.58,359.34 234.58,280.82 334.13,338.78 1644.93,333.17 1715.44,271.47 1744.48,351.87 
		1985.64,914.45 42.62,901.75 	"/>
	<path class="st1" d="M1307.61,1849.6H717.07c-387.89,0-702.34-314.45-702.34-702.34v-48.92c0-387.89,314.45-702.34,702.34-702.34
		h590.54c387.89,0,702.34,314.45,702.34,702.34v48.92C2009.96,1535.15,1695.51,1849.6,1307.61,1849.6z"/>
	<path class="st2" d="M868.19,1158.58l-53.27-95.99c-20.88-37.62,6.33-83.84,49.35-83.84l115.89,0c44.83,0,71.77,49.74,47.28,87.29
		l-62.62,95.99C941.59,1197.64,888.82,1195.76,868.19,1158.58z"/>
	<path class="st3" d="M1446.65,1284.27c216.61,14.59,283.32-9.07,288.61,82.63c4.54,79.1,47.88,166.37-54.85,175.33
		c-238.57,20.7-1208.66,21.32-1345.1-36.95c-66-28.19-1-109.76,7.42-186.78C355.04,1204.56,1251.59,1271.07,1446.65,1284.27z"/>
	
		<ellipse transform="matrix(0.0382 -0.9993 0.9993 0.0382 -187.8448 1720.6475)" class="st4" cx="799.9" cy="957.9" rx="161.9" ry="179.96"/>
	
		<ellipse transform="matrix(0.0382 -0.9993 0.9993 0.0382 208.7056 2165.4492)" class="st4" cx="1229.24" cy="974.31" rx="161.11" ry="179.09"/>
	<path class="st5" d="M1369.48,920.57c-2.01,14.07-16.51,21.48-29.25,20.23c-11.25-1.11-15.28-5.72-29.22-20.82
		c-28.05-30.39-41.35-24.86-70.92-42.16c-13.58-7.94-4.02-26.94,6.48-34.38C1273.2,824.55,1375.04,881.68,1369.48,920.57z"/>
	
		<ellipse transform="matrix(0.8294 -0.5586 0.5586 0.8294 -385.228 807.8084)" class="st6" cx="1130.11" cy="1034.69" rx="33.31" ry="43.09"/>
	
		<ellipse transform="matrix(0.8294 -0.5586 0.5586 0.8294 -448.2262 558.9784)" class="st6" cx="691.17" cy="1013.43" rx="33.31" ry="43.09"/>
	<path class="st5" d="M924.18,887.46c-0.84,14.19-14.66,22.78-27.47,22.59c-11.3-0.16-15.71-4.43-30.85-18.32
		c-30.48-27.95-43.27-21.34-74.18-36.12c-14.19-6.79-6.24-26.51,3.6-34.79C820.26,799.78,926.5,848.24,924.18,887.46z"/>
</g>
<g id="Calque_2">
</g>
</svg>
