<?xml version="1.0" encoding="utf-8"?>
<!-- Generator: Adobe Illustrator 25.4.1, SVG Export Plug-In . SVG Version: 6.00 Build 0)  -->
<svg version="1.1" xmlns="http://www.w3.org/2000/svg" xmlns:xlink="http://www.w3.org/1999/xlink" x="0px" y="0px"
	 viewBox="0 0 2040.94 2040.94" style="enable-background:new 0 0 2040.94 2040.94;" xml:space="preserve">
<style type="text/css">
	.st0{fill:#3CFF8C;}
	.st1{fill:#FF43B8;}
	.st2{display:none;fill:#FFFFFF;stroke:#1D1D1B;stroke-miterlimit:10;}
	.st3{fill:#FFFFFD;stroke:#1D1E1C;stroke-width:4;stroke-miterlimit:10;}
</style>
<g id="Calque_1">
	<polygon class="st0" points="234.58,359.34 234.58,280.82 334.13,338.78 1644.93,333.17 1715.44,271.47 1744.48,351.87 
		1985.64,914.45 42.62,901.75 	"/>
	<path class="st1" d="M1307.61,1849.6H717.07c-387.89,0-702.34-314.45-702.34-702.34v-48.92c0-387.89,314.45-702.34,702.34-702.34
		h590.54c387.89,0,702.34,314.45,702.34,702.34v48.92C2009.96,1535.15,1695.51,1849.6,1307.61,1849.6z"/>
	<path class="st2" d="M868.19,1158.58l-53.27-95.99c-20.88-37.62,6.33-83.84,49.35-83.84l115.89,0c44.83,0,71.77,49.74,47.28,87.29
		l-62.62,95.99C941.59,1197.64,888.82,1195.76,868.19,1158.58z"/>
	<path class="st3" d="M837.26,1015.11c99.23-44.4-144.25-471.56,225.98-373.9c140.07,37.02,96.26,157.02,79.87,329.41
		c-6.64,69.77,8.32,51.67,153.54,63.87c161.3,13.51,211.32-3.33,214.14,65.08c2.44,59.01,33.69,124.6-43.02,130.03
		c-219.19,15.42-202.05,19.03-343.9,10.14c-26.81-1.74,0,0-7.51,179.63c-5.81,138.07,4.07,151.35-43.85,155.36
		c-93.27,7.72-102.67,18.73-145.01-33.01c-87.18-106.25-22.91-255.87-86.31-303.62c-46.71-35.09-406.29,114.19-367.83-191.47
		C483.87,961.86,805.06,1029.58,837.26,1015.11z"/>
</g>
<g id="Calque_2">
</g>
</svg>
