<?xml version="1.0" encoding="utf-8"?>
<!-- Generator: Adobe Illustrator 25.4.1, SVG Export Plug-In . SVG Version: 6.00 Build 0)  -->
<svg version="1.1" xmlns="http://www.w3.org/2000/svg" xmlns:xlink="http://www.w3.org/1999/xlink" x="0px" y="0px"
	 viewBox="0 0 2040.94 2040.94" style="enable-background:new 0 0 2040.94 2040.94;" xml:space="preserve">
<style type="text/css">
	.st0{fill:#3CFF8C;}
	.st1{fill:#FF43B8;}
	.st2{fill:#FFFFFF;stroke:#1D1D1B;stroke-miterlimit:10;}
	.st3{fill:#194092;stroke:#1D1D1B;stroke-miterlimit:10;}
	.st4{display:none;fill:#FFFFFF;stroke:#1D1D1B;stroke-miterlimit:10;}
	.st5{fill:none;stroke:#FFFFFF;stroke-width:18;stroke-linecap:round;stroke-miterlimit:10;}
</style>
<g id="Calque_1">
	<polygon class="st0" points="234.58,359.34 234.58,280.82 334.13,338.78 1644.93,333.17 1715.44,271.47 1744.48,351.87 
		1985.64,914.45 42.62,901.75 	"/>
	<path class="st1" d="M1307.61,1849.6H717.07c-387.89,0-702.34-314.45-702.34-702.34v-48.92c0-387.89,314.45-702.34,702.34-702.34
		h590.54c387.89,0,702.34,314.45,702.34,702.34v48.92C2009.96,1535.15,1695.51,1849.6,1307.61,1849.6z"/>
	<ellipse class="st2" cx="568.33" cy="869.23" rx="401.61" ry="361.29"/>
	<ellipse class="st2" cx="1416.92" cy="869.23" rx="401.61" ry="361.29"/>
	<ellipse class="st3" cx="1389.22" cy="869.23" rx="330.58" ry="297.39"/>
	<ellipse class="st3" cx="599.99" cy="869.23" rx="328.97" ry="295.94"/>
	<path class="st2" d="M346.34,977.71c2.71-25.96,28.8-40.59,52.28-39.19c20.72,1.24,28.45,9.43,55.1,36.17
		c53.62,53.81,77.65,42.73,133.13,72.41c25.48,13.63,9.26,49.16-9.48,63.56C529.79,1147.2,338.85,1049.48,346.34,977.71z"/>
	
		<ellipse transform="matrix(0.8075 -0.5899 0.5899 0.8075 -293.5538 603.4136)" class="st2" cx="777.69" cy="751.45" rx="61.19" ry="79.16"/>
	
		<ellipse transform="matrix(0.8075 -0.5899 0.5899 0.8075 -143.0286 1081.1517)" class="st2" cx="1584.88" cy="759.7" rx="61.19" ry="79.16"/>
	<path class="st2" d="M1166.04,1007.25c0.54-26.1,25.32-42.85,48.84-43.4c20.75-0.49,29.14,7.03,57.91,31.47
		c57.91,49.17,80.93,36.13,138.69,61.09c26.52,11.46,13.31,48.22-4.17,64.12C1362.95,1160.91,1164.54,1079.4,1166.04,1007.25z"/>
	<path class="st4" d="M868.19,1158.58l-53.27-95.99c-20.88-37.62,6.33-83.84,49.35-83.84l115.89,0c44.83,0,71.77,49.74,47.28,87.29
		l-62.62,95.99C941.59,1197.64,888.82,1195.76,868.19,1158.58z"/>
	<path class="st2" d="M964.87,1176.05l-31.65-57.03c-12.41-22.35,3.76-49.81,29.33-49.81h68.86c26.64,0,42.64,29.56,28.09,51.86
		l-37.21,57.03C1008.48,1199.26,977.13,1198.14,964.87,1176.05z"/>
	<path class="st5" d="M996.98,1211.02c0,0-62.43,71.51-135.57,74.6s-168.91-44.09-168.91-44.09"/>
	<path class="st5" d="M996.98,1211.02c0,0,62.43,71.51,135.57,74.6s168.91-44.09,168.91-44.09"/>
</g>
<g id="Calque_2">
</g>
</svg>
